<?xml version="1.0" standalone="no"?>
<!DOCTYPE svg PUBLIC "-//W3C//DTD SVG 1.1//EN" "http://www.w3.org/Graphics/SVG/1.1/DTD/svg11.dtd" >
<svg xmlns="http://www.w3.org/2000/svg" xmlns:xlink="http://www.w3.org/1999/xlink" version="1.1">
<metadata>
Created by FontForge 20201107 at Wed Nov 30 23:40:49 2022
 By 
Copyright (c) 2022 Sign Studio. All Right Reserved.
</metadata>
<defs>
<font id="SignateGrotesk-Black" horiz-adv-x="523" >
  <font-face 
    font-family="Signate Grotesk Black"
    font-weight="900"
    font-stretch="normal"
    units-per-em="1000"
    panose-1="0 0 0 0 0 0 0 0 0 0"
    ascent="800"
    descent="-200"
    x-height="520"
    cap-height="700"
    bbox="-113 -271 1436 911"
    underline-thickness="0"
    underline-position="0"
    unicode-range="U+000D-FB05"
  />
<missing-glyph horiz-adv-x="597" 
d="M27 700h543v-700h-543v700zM463 593h-329l164 -227zM470 573l-160 -223l160 -223v446zM287 350l-159 221v-443zM463 108l-164 227l-164 -227h328z" />
    <glyph glyph-name="f_f" unicode="ff" horiz-adv-x="671" 
d="M91 355h-76v140q0 110 57.5 167.5t167.5 57.5h73v-165h-101q-32 0 -32 -31v-4h149v5q0 48 16 84t45.5 61t70.5 37.5t92 12.5h103v-165h-131q-32 0 -32 -31v-4h163v-165h-77v-355h-175v355h-138v-355h-175v355z" />
    <glyph glyph-name="fi" unicode="fi" horiz-adv-x="576" 
d="M180 520h369v-520h-175v355h-108v-355h-175v355h-76v140q0 110 57.5 167.5t167.5 57.5h103v-165h-131q-32 0 -32 -31v-4zM374 720h175v-165h-175v165z" />
    <glyph glyph-name="fl" unicode="fl" horiz-adv-x="576" 
d="M180 520h163v-165h-77v-355h-175v355h-76v140q0 110 57.5 167.5t167.5 57.5h309v-720h-175v555h-162q-32 0 -32 -31v-4z" />
    <glyph glyph-name="f_f_i" unicode="ffi" horiz-adv-x="889" 
d="M91 355h-76v140q0 110 57.5 167.5t167.5 57.5h73v-165h-101q-32 0 -32 -31v-4h149v5q0 44 13.5 79.5t38.5 61.5t60.5 40t78.5 14h136v-165h-131q-32 0 -32 -31v-4h369v-520h-175v355h-108v-355h-175v355h-138v-355h-175v355zM687 720h175v-165h-175v165z" />
    <glyph glyph-name="f_f_l" unicode="ffl" horiz-adv-x="855" 
d="M91 355h-76v140q0 110 57.5 167.5t167.5 57.5h73v-165h-101q-32 0 -32 -31v-4h149v5q0 48 16 84t45.5 61t70.5 37.5t92 12.5h309v-720h-175v555h-162q-32 0 -32 -31v-4h163v-165h-77v-355h-175v355h-138v-355h-175v355z" />
    <glyph glyph-name="longs_t" unicode="&#x17f;t" horiz-adv-x="559" 
d="M16 520q0 50 18.5 86t49 59t71 34t84.5 11q102 0 159 -51.5t57 -137.5v-1h86v-160h-86v-152q0 -33 32 -33h55v-175h-106q-74 0 -115.5 35t-41.5 104v221h-46v160h47v4q0 28 -13 42.5t-31 14.5q-20 0 -32.5 -16t-12.5 -45v-520h-175v520z" />
    <glyph glyph-name=".notdef" horiz-adv-x="597" 
d="M27 700h543v-700h-543v700zM463 593h-329l164 -227zM470 573l-160 -223l160 -223v446zM287 350l-159 221v-443zM463 108l-164 227l-164 -227h328z" />
    <glyph glyph-name=".null" horiz-adv-x="0" 
 />
    <glyph glyph-name=".null" horiz-adv-x="0" 
 />
    <glyph glyph-name="uni000D" unicode="&#xd;" horiz-adv-x="0" 
 />
    <glyph glyph-name="space" unicode=" " horiz-adv-x="200" 
 />
    <glyph glyph-name="exclam" unicode="!" horiz-adv-x="228" 
d="M26 700h175l-10 -495h-155zM26 175h175v-175h-175v175z" />
    <glyph glyph-name="quotedbl" unicode="&#x22;" horiz-adv-x="418" 
d="M30 554v146h175v-145l-60 -142h-145zM226 554v146h175v-145l-60 -142h-145z" />
    <glyph glyph-name="numbersign" unicode="#" horiz-adv-x="604" 
d="M76 545h79l40 155h170l-40 -155h53l40 155h170l-40 -155h33v-165h-75l-16 -65h36v-165h-79l-38 -150h-170l38 150h-53l-38 -150h-170l38 150h-32v165h75l16 65h-37v165zM320 315l16 65h-53l-16 -65h53z" />
    <glyph glyph-name="dollar" unicode="$" horiz-adv-x="545" 
d="M185 36q-43 3 -86 10t-83 16v174q26 -8 60 -15.5t70 -13.5t70 -9.5t60 -3.5q37 0 57 7t20 19q0 25 -101 50q-123 30 -179.5 80t-56.5 132q0 147 169 177v51h175v-47q42 -4 82.5 -12.5t75.5 -20.5v-172q-23 9 -56.5 17.5t-69.5 15.5t-70.5 11t-60.5 4q-33 0 -51.5 -7
t-18.5 -20q0 -14 25.5 -27t82.5 -28q62 -16 105 -35.5t71 -44.5t40.5 -56t12.5 -70q0 -145 -168 -177v-51h-175v46z" />
    <glyph glyph-name="percent" unicode="%" horiz-adv-x="976" 
d="M204 275q-94 0 -141 53.5t-47 165.5t47 162.5t141 50.5q95 0 141 -50.5t46 -162.5t-45.5 -165.5t-141.5 -53.5zM547 700h185l-319 -700h-185zM205 379q21 0 21 114q0 57 -5 83.5t-16 26.5t-17.5 -26.5t-6.5 -83.5q0 -114 24 -114zM761 -7q-94 0 -141 53.5t-47 165.5
t47 162.5t141 50.5q95 0 141 -50.5t46 -162.5t-45.5 -165.5t-141.5 -53.5zM762 97q21 0 21 114q0 57 -5 83.5t-16 26.5t-17.5 -26.5t-6.5 -83.5q0 -114 24 -114z" />
    <glyph glyph-name="ampersand" unicode="&#x26;" horiz-adv-x="642" 
d="M468 121q-36 -56 -89 -88.5t-132 -32.5q-51 0 -93.5 14.5t-73 41t-47.5 64.5t-17 86q0 61 28 105.5t81 73.5q-34 29 -52.5 66.5t-18.5 84.5q0 32 10 63.5t34 56.5t63.5 40.5t97.5 15.5h178v-165h-176q-16 0 -25.5 -7t-9.5 -21q0 -13 10.5 -25.5t34.5 -30.5l117 -88
l39 105h175l-70 -212l94 -70v-198zM241 296q-21 -11 -35.5 -31t-14.5 -43q0 -24 17 -40.5t48 -16.5q24 0 43 13t33 47z" />
    <glyph glyph-name="quotesingle" unicode="'" horiz-adv-x="222" 
d="M30 554v146h175v-145l-60 -142h-145z" />
    <glyph glyph-name="parenleft" unicode="(" horiz-adv-x="318" 
d="M16 287q0 58 7.5 115t22 110.5t36.5 101t52 86.5h167q-27 -37 -48 -84t-34.5 -100t-20.5 -111.5t-7 -117.5t7 -117.5t20.5 -111.5t34.5 -100t48 -84h-167q-30 39 -52 87t-36.5 101t-22 110t-7.5 115z" />
    <glyph glyph-name="parenright" unicode=")" horiz-adv-x="318" 
d="M301 287q0 -58 -7.5 -115t-22 -110t-37 -101t-52.5 -87h-166q27 37 48 84t34.5 100t20.5 111.5t7 117.5t-7 117.5t-20.5 111.5t-34.5 100t-48 84h166q30 -39 52.5 -86.5t37 -101t22 -110.5t7.5 -115z" />
    <glyph glyph-name="asterisk" unicode="*" horiz-adv-x="491" 
d="M89 421l112 49l-1 4l-120 -25l-63 21l54 166l63 -20l82 -91l3 2l-61 107v66h175v-66l-61 -106l3 -3l82 91l62 19l55 -164l-63 -22l-121 26l-1 -4l113 -51l38 -53l-140 -103l-40 53l-13 125h-4l-12 -124l-39 -53l-141 102z" />
    <glyph glyph-name="plus" unicode="+" horiz-adv-x="510" 
d="M16 377h151v151h175v-151h151v-175h-151v-151h-175v151h-151v175z" />
    <glyph glyph-name="comma" unicode="," horiz-adv-x="208" 
d="M16 29v146h175v-145l-60 -142h-145z" />
    <glyph glyph-name="hyphen" unicode="-" horiz-adv-x="510" 
d="M16 377h477v-175h-477v175z" />
    <glyph glyph-name="period" unicode="." horiz-adv-x="208" 
d="M16 175h175v-175h-175v175z" />
    <glyph glyph-name="slash" unicode="/" horiz-adv-x="457" 
d="M255 700h185l-239 -700h-185z" />
    <glyph glyph-name="zero" unicode="0" horiz-adv-x="545" 
d="M273 -7q-72 0 -121 22t-79 67t-43.5 112.5t-13.5 158.5t13 157.5t43 109.5t79.5 63.5t121.5 20.5t121 -20.5t79 -63.5t42.5 -109t12.5 -158q0 -91 -13 -159t-43 -112.5t-78.5 -66.5t-120.5 -22zM273 153q29 0 45.5 9t24 31.5t9 61t1.5 97.5t-1.5 96.5t-9.5 58.5t-24 29
t-45 8t-45.5 -8t-24.5 -29t-10 -58.5t-2 -96.5t2 -97.5t10 -61t24.5 -31.5t45.5 -9z" />
    <glyph glyph-name="one" unicode="1" horiz-adv-x="437" 
d="M15 165h115v355h-5l-3 -12q-5 -20 -15.5 -34t-30.5 -16l-61 -7v164l77 13q20 3 29 17.5t9 33.5v21h175v-535h115v-165h-405v165z" />
    <glyph glyph-name="two" unicode="2" horiz-adv-x="546" 
d="M247 405q62 18 87 37t25 46q0 28 -24.5 41t-77.5 13q-24 0 -54 -2.5t-61 -7.5t-61 -11t-55 -14v171q56 14 117 21.5t113 7.5q136 0 205.5 -55.5t69.5 -162.5q0 -87 -51 -144.5t-168 -90.5q-36 -10 -58 -19.5t-35 -19t-17.5 -19.5t-4.5 -21v-10h334v-165h-515v101
q0 68 11.5 116.5t38.5 84t71.5 60t109.5 43.5z" />
    <glyph glyph-name="three" unicode="3" horiz-adv-x="532" 
d="M16 165h252q36 0 56 14.5t20 40.5q0 54 -76 54h-168v165h180q27 0 43 12.5t16 34.5q0 27 -27.5 41.5t-92.5 14.5q-45 0 -95 -7t-98 -21v170q45 11 94.5 17t97.5 6q137 0 211.5 -47t74.5 -132q0 -41 -17 -69.5t-44.5 -47t-63 -27.5t-73.5 -11v-5q45 0 83.5 -8t66.5 -26.5
t44 -49t16 -75.5q0 -46 -17 -84t-51 -66t-85 -43.5t-118 -15.5h-229v165z" />
    <glyph glyph-name="four" unicode="4" horiz-adv-x="535" 
d="M16 420l273 280h230l-433 -444v-5h149q42 0 66 -18.5t38 -50.5h5v199h175v-381h-175v46q0 40 -40 40h-288v334z" />
    <glyph glyph-name="five" unicode="5" horiz-adv-x="535" 
d="M16 165h209q62 0 92.5 28.5t30.5 77.5q0 43 -23 73.5t-70 30.5q-49 0 -75 -34h-164v359h476v-165h-301v-141h5q11 43 44 72.5t92 29.5q44 0 78.5 -18t58.5 -49t37 -72.5t13 -89.5q0 -65 -23 -115t-62.5 -83.5t-93 -51t-115.5 -17.5h-209v165z" />
    <glyph glyph-name="six" unicode="6" horiz-adv-x="544" 
d="M273 -7q-68 0 -117 20.5t-80 64t-45.5 111.5t-14.5 164q0 95 14 161.5t45 108.5t80 61.5t118 19.5q109 0 166.5 -48t77.5 -154h-174q-7 23 -22 32.5t-48 9.5q-28 0 -46 -7.5t-28.5 -28.5t-14 -58.5t-3.5 -97.5h5q13 60 56.5 92.5t109.5 32.5q85 0 130.5 -56t45.5 -162
q0 -130 -65 -198t-190 -68zM272 153q23 0 38.5 5t25 18t13.5 34t4 52t-4 52t-13.5 33.5t-25 18t-38.5 5.5q-47 0 -63.5 -22.5t-16.5 -84.5q0 -64 17 -87.5t63 -23.5z" />
    <glyph glyph-name="seven" unicode="7" horiz-adv-x="535" 
d="M88 0l199 535h-271v165h503v-15l-255 -685h-176z" />
    <glyph glyph-name="eight" unicode="8" horiz-adv-x="572" 
d="M285 -7q-63 0 -113 9.5t-84.5 33.5t-53 65.5t-18.5 105.5q0 86 38.5 131.5t134.5 45.5v5q-70 4 -109 36t-39 110q0 50 16.5 83t48 53t77 28t103.5 8t103.5 -8t77 -28t48 -53.5t16.5 -83.5q0 -77 -38 -108.5t-108 -35.5v-5q95 -1 132.5 -46.5t37.5 -130.5
q0 -65 -18.5 -106.5t-53.5 -65.5t-85 -33.5t-113 -9.5zM286 437q40 0 57 12.5t17 40.5t-17.5 40t-58.5 12q-39 0 -56 -11.5t-17 -39.5t17 -41t58 -13zM286 158q50 0 73 17.5t23 63.5t-23.5 63.5t-77.5 17.5q-48 0 -69.5 -16t-21.5 -63q0 -48 22.5 -65.5t73.5 -17.5z" />
    <glyph glyph-name="nine" unicode="9" horiz-adv-x="544" 
d="M271 -7q-109 0 -166.5 48t-77.5 154h174q7 -23 22 -32.5t48 -9.5q29 0 46.5 7.5t28 28.5t14 58.5t3.5 97.5h-5q-13 -60 -56.5 -92.5t-109.5 -32.5q-85 0 -130.5 56t-45.5 162q0 130 65 198t190 68q68 0 117 -20.5t80 -64t45.5 -111.5t14.5 -164q0 -95 -14 -161.5
t-45 -108.5t-80 -61.5t-118 -19.5zM272 326q47 0 63.5 22.5t16.5 84.5q0 32 -4 53.5t-13 34.5t-24.5 18t-38.5 5q-46 0 -63.5 -23t-17.5 -85q0 -63 17.5 -86.5t63.5 -23.5z" />
    <glyph glyph-name="colon" unicode=":" horiz-adv-x="208" 
d="M16 471h175v-175h-175v175zM16 175h175v-175h-175v175z" />
    <glyph glyph-name="semicolon" unicode=";" horiz-adv-x="207" 
d="M16 471h175v-175h-175v175zM16 29v146h175v-145l-60 -142h-145z" />
    <glyph glyph-name="less" unicode="&#x3c;" horiz-adv-x="545" 
d="M16 298v67l513 237v-186l-216 -85l215 -84v-186z" />
    <glyph glyph-name="equal" unicode="=" horiz-adv-x="535" 
d="M16 512h503v-175h-503v175zM16 317h503v-175h-503v175z" />
    <glyph glyph-name="greater" unicode="&#x3e;" horiz-adv-x="545" 
d="M17 247l215 84l-216 85v186l513 -237v-67l-512 -237v186z" />
    <glyph glyph-name="question" unicode="?" horiz-adv-x="526" 
d="M149 215q0 32 4 59.5t16.5 52t35.5 47.5t60 45q39 24 55 43.5t16 37.5q0 21 -20.5 29.5t-63.5 8.5q-29 0 -61 -3.5t-63.5 -9.5t-60 -14.5t-51.5 -18.5v174q55 20 116.5 30.5t122.5 10.5q125 0 190.5 -48t65.5 -148q0 -69 -33.5 -120.5t-105.5 -96.5q-28 -17 -48 -36.5
t-20 -42.5v-10h-155v10zM139 175h175v-175h-175v175z" />
    <glyph glyph-name="at" unicode="@" horiz-adv-x="788" 
d="M267 36q-73 0 -114.5 59t-41.5 162q0 80 25 147.5t69.5 116.5t105.5 76.5t133 27.5q42 0 91 -7.5t94 -21.5l-61 -494q32 14 62 39.5t53 62.5t37.5 83.5t14.5 102.5q0 69 -22.5 124t-64.5 94t-101 59.5t-131 20.5q-82 0 -151 -26.5t-118 -74.5t-76.5 -115t-27.5 -148
t27.5 -148t76.5 -115t117 -74.5t150 -26.5h130l-4 -25h-126q-88 0 -161.5 28.5t-126 80t-81.5 123t-29 157.5t29 157.5t82 123t126.5 80t162.5 28.5q79 0 143 -23t109 -65t69.5 -101.5t24.5 -133.5q0 -78 -27 -143t-75 -111.5t-115.5 -72.5t-148.5 -26l15 147h-5
q-25 -80 -57 -114t-82 -34zM323 156q23 0 48.5 29.5t51.5 85.5l26 206q-22 15 -38 15q-24 0 -46.5 -21.5t-40.5 -57t-28.5 -80.5t-10.5 -92q0 -85 38 -85z" />
    <glyph glyph-name="A" unicode="A" horiz-adv-x="667" 
d="M174 700h317l159 -700h-180l-30 141h-214l-30 -141h-180zM404 306l-69 319h-5l-68 -319h142z" />
    <glyph glyph-name="B" unicode="B" horiz-adv-x="620" 
d="M26 700h348q57 0 98.5 -15.5t69 -41t41 -57t13.5 -64.5q0 -31 -11.5 -60t-34 -51.5t-55 -36t-75.5 -13.5v-5q45 0 80 -14.5t58.5 -38t35.5 -54t12 -62.5q0 -34 -14 -68t-42.5 -60t-72.5 -42.5t-103 -16.5h-348v700zM384 434q28 0 41.5 15.5t13.5 35.5q0 19 -13.5 34.5
t-41.5 15.5h-183v-101h183zM384 165q28 0 41.5 17t13.5 38q0 20 -13.5 37t-41.5 17h-183v-109h183z" />
    <glyph glyph-name="C" unicode="C" horiz-adv-x="681" 
d="M347 -7q-161 0 -246 91.5t-85 265.5t85 265.5t246 91.5q146 0 227 -73.5t92 -213.5h-175q-9 63 -44 92.5t-100 29.5q-81 0 -118.5 -46t-37.5 -146t37.5 -146t118.5 -46q128 0 144 122h175q-13 -140 -93.5 -213.5t-225.5 -73.5z" />
    <glyph glyph-name="D" unicode="D" horiz-adv-x="610" 
d="M26 700h242q75 0 135 -23.5t102 -68t65 -108t23 -144.5q0 -83 -23 -149t-65.5 -112t-102.5 -70.5t-134 -24.5h-242v700zM268 165q69 0 109.5 49t40.5 139q0 91 -39.5 136.5t-110.5 45.5h-67v-370h67z" />
    <glyph glyph-name="E" unicode="E" horiz-adv-x="530" 
d="M26 700h487v-165h-312v-97h292v-165h-292v-108h312v-165h-487v700z" />
    <glyph glyph-name="F" unicode="F" horiz-adv-x="530" 
d="M26 700h487v-165h-312v-97h292v-165h-292v-273h-175v700z" />
    <glyph glyph-name="G" unicode="G" horiz-adv-x="686" 
d="M669 0h-170v208h-5l-31 -169q-7 -39 -47 -39h-69q-161 0 -246 90.5t-85 263.5q0 172 85 262.5t246 90.5q151 0 234 -79t88 -228h-176q-5 73 -40.5 107.5t-105.5 34.5q-81 0 -118.5 -45t-37.5 -143t37 -143.5t118 -45.5h8q19 0 31 7t17 26l3 10h-78v160h197
q145 0 145 -145v-223z" />
    <glyph glyph-name="H" unicode="H" horiz-adv-x="624" 
d="M26 700h175v-280h221v280h175v-700h-175v255h-221v-255h-175v700z" />
    <glyph glyph-name="I" unicode="I" horiz-adv-x="238" 
d="M26 700h185v-700h-185v700z" />
    <glyph glyph-name="J" unicode="J" horiz-adv-x="327" 
d="M16 0v160h73q36 0 36 36v338h-109v166h284v-512q0 -92 -48 -140t-140 -48h-96z" />
    <glyph glyph-name="K" unicode="K" horiz-adv-x="620" 
d="M603 0h-193l-205 343h-4v-343h-175v700h175v-342h5l204 342h193l-152 -260q-26 -44 -65.5 -65.5t-90.5 -21.5v-5q104 0 156 -88z" />
    <glyph glyph-name="L" unicode="L" horiz-adv-x="530" 
d="M26 700h175v-540h312v-160h-487v700z" />
    <glyph glyph-name="M" unicode="M" horiz-adv-x="806" 
d="M26 700h336l38 -625h5l38 625h336v-700h-175v625h-5l-40 -625h-313l-40 625h-5v-625h-175v700z" />
    <glyph glyph-name="N" unicode="N" horiz-adv-x="627" 
d="M26 700h333l61 -625h5v625h175v-700h-333l-61 625h-5v-625h-175v700z" />
    <glyph glyph-name="O" unicode="O" horiz-adv-x="693" 
d="M347 -7q-161 0 -246 91.5t-85 265.5t85 265.5t246 91.5t245 -91t84 -266t-84 -266t-245 -91zM347 158q81 0 117.5 46t36.5 146t-36.5 146t-117.5 46t-118.5 -46t-37.5 -146t37.5 -146t118.5 -46z" />
    <glyph glyph-name="P" unicode="P" horiz-adv-x="600" 
d="M26 700h316q53 0 97.5 -19t76.5 -53t49.5 -80t17.5 -99t-18 -99t-50 -80t-76 -53.5t-97 -19.5h-141v-197h-175v700zM325 362q37 0 60 24t23 63t-22.5 62.5t-60.5 23.5h-124v-173h124z" />
    <glyph glyph-name="Q" unicode="Q" horiz-adv-x="692" 
d="M333 -7q-155 4 -236 95.5t-81 262.5q0 174 85 265t246 91t245 -91t84 -265q0 -172 -80.5 -263t-235.5 -95l2 -7q6 -20 26 -20h205l51 -165h-172q-51 0 -79.5 25t-40.5 81zM347 158q81 0 117.5 46t36.5 146t-36.5 146t-117.5 46t-118.5 -46t-37.5 -146t37.5 -146
t118.5 -46z" />
    <glyph glyph-name="R" unicode="R" horiz-adv-x="608" 
d="M201 217v-217h-175v700h323q107 0 168.5 -54.5t61.5 -149.5q0 -91 -56.5 -141t-159.5 -50v-5q168 0 192 -115l38 -185h-178l-38 178q-8 39 -48 39h-128zM357 382q28 0 44.5 21t16.5 56t-16.5 55.5t-44.5 20.5h-156v-153h156z" />
    <glyph glyph-name="S" unicode="S" horiz-adv-x="600" 
d="M324 429q134 -24 196.5 -77.5t62.5 -144.5q0 -107 -71.5 -160.5t-225.5 -53.5q-31 0 -66.5 2t-71.5 6t-70 9.5t-63 11.5v180q68 -21 140 -32.5t134 -11.5q119 0 119 45q0 23 -33 39.5t-107 30.5q-131 24 -192 77t-61 143q0 107 69.5 160.5t220.5 53.5q61 0 133 -8.5
t135 -23.5v-180q-60 22 -131.5 34.5t-137.5 12.5q-59 0 -86.5 -10.5t-27.5 -33.5t31.5 -39.5t102.5 -29.5z" />
    <glyph glyph-name="T" unicode="T" horiz-adv-x="600" 
d="M212 535h-196v165h568v-165h-197v-535h-175v535z" />
    <glyph glyph-name="U" unicode="U" horiz-adv-x="581" 
d="M191 700v-451q0 -38 25 -64.5t75 -26.5t74 26.5t24 64.5v451h175v-456q0 -51 -18 -97t-53 -80t-86 -54t-116 -20q-66 0 -117 20t-86 54.5t-53.5 80t-18.5 96.5v456h175z" />
    <glyph glyph-name="V" unicode="V" horiz-adv-x="667" 
d="M196 700l134 -625h5l135 625h180l-159 -700h-317l-158 700h180z" />
    <glyph glyph-name="W" unicode="W" horiz-adv-x="901" 
d="M16 700h180l79 -397h5l13 397h314l13 -397h5l78 394l181 3l-159 -700h-245l-27 625h-6l-28 -625h-245z" />
    <glyph glyph-name="X" unicode="X" horiz-adv-x="662" 
d="M214 0h-198l216 349l-216 351h196l72 -117q23 -37 34 -78.5t11 -85.5h5q0 44 10.5 85.5t33.5 78.5l72 117h195l-216 -351l215 -349h-197l-70 113q-23 37 -33 79t-10 86h-5q0 -44 -11 -85.5t-34 -78.5z" />
    <glyph glyph-name="Y" unicode="Y" horiz-adv-x="661" 
d="M461 700h185l-172 -445h-57v-256h-174v256h-56l-172 445h185l99 -264q14 -38 21.5 -81t7.5 -88h5q0 93 28 169z" />
    <glyph glyph-name="Z" unicode="Z" horiz-adv-x="590" 
d="M16 317l475 213v5h-467v165h542v-317l-475 -213v-5h482v-165h-557v317z" />
    <glyph glyph-name="bracketleft" unicode="[" horiz-adv-x="259" 
d="M16 700h226v-127h-51v-572h51v-127h-226v826z" />
    <glyph glyph-name="backslash" unicode="\" horiz-adv-x="457" 
d="M255 0l-239 700h185l239 -700h-185z" />
    <glyph glyph-name="bracketright" unicode="]" horiz-adv-x="259" 
d="M16 -126v127h51v572h-51v127h226v-826h-226z" />
    <glyph glyph-name="asciicircum" unicode="^" horiz-adv-x="555" 
d="M177 700h194l167 -417h-189l-54 140l-16 207h-5l-16 -207l-54 -140h-188z" />
    <glyph glyph-name="underscore" unicode="_" horiz-adv-x="510" 
d="M16 0h477v-160h-477v160z" />
    <glyph glyph-name="grave" unicode="`" horiz-adv-x="274" 
d="M26 708h163l68 -155h-114z" />
    <glyph glyph-name="a" unicode="a" horiz-adv-x="538" 
d="M173 -7q-73 0 -115 41.5t-42 108.5q0 41 16.5 76.5t48 63t77 46.5t102.5 26v5h-211v160h307q76 0 115.5 -39.5t39.5 -115.5v-365h-175v101h-5q-15 -51 -56.5 -79.5t-101.5 -28.5zM260 116q76 0 76 70v134q0 40 -40 40h-11q-20 -16 -39 -35.5t-34 -41t-24 -45.5t-9 -49
q0 -36 21 -54.5t60 -18.5z" />
    <glyph glyph-name="b" unicode="b" horiz-adv-x="546" 
d="M16 720h175v-311h6q17 64 57 90t90 26q91 0 138 -70t47 -194q0 -125 -47 -195.5t-139 -70.5q-50 0 -89 26t-57 90h-6v-111h-175v720zM266 126q23 0 39.5 6t27 21t16 41t5.5 66t-5 66t-16 41t-27.5 21t-39.5 6q-75 0 -75 -75v-118q0 -75 75 -75z" />
    <glyph glyph-name="c" unicode="c" horiz-adv-x="437" 
d="M276 0q-125 0 -192.5 69.5t-67.5 193.5t68 193t193 69q30 0 68.5 -5t74.5 -17v-164q-34 12 -59.5 16.5t-51.5 4.5q-65 0 -91.5 -23t-26.5 -74t26.5 -74.5t89.5 -23.5h113v-165h-144z" />
    <glyph glyph-name="d" unicode="d" horiz-adv-x="546" 
d="M354 111h-6q-18 -64 -57 -90t-89 -26q-92 0 -139 70.5t-47 195.5q0 124 47 194t138 70q50 0 90 -26t57 -90h6v311h175v-720h-175v111zM279 126q75 0 75 75v118q0 75 -75 75q-23 0 -39.5 -6t-27.5 -21t-16 -41t-5 -66t5.5 -66t16 -41t27.5 -21t39 -6z" />
    <glyph glyph-name="e" unicode="e" 
d="M287 0q-129 0 -200.5 69t-71.5 194q0 124 68 193t192 69q55 0 98 -13.5t73 -37.5t46 -57t16 -71q0 -39 -16.5 -77.5t-46.5 -59.5h-245q23 -44 114 -44h171v-165h-198zM195 223q33 6 59.5 17.5t45.5 25.5t29.5 29t10.5 29q0 15 -13 25.5t-43 10.5q-45 0 -69.5 -26
t-24.5 -75q0 -19 5 -36z" />
    <glyph glyph-name="f" unicode="f" horiz-adv-x="358" 
d="M180 520h163v-165h-77v-355h-175v355h-76v140q0 110 57.5 167.5t167.5 57.5h103v-165h-141q-22 0 -22 -23v-12z" />
    <glyph glyph-name="g" unicode="g" horiz-adv-x="583" 
d="M373 505v-8q38 -3 68 -17t51 -38t32.5 -57t11.5 -73q0 -97 -66 -151.5t-185 -54.5q-112 0 -178 49l-4 -10q0 -23 16 -35t53 -16l384 -37v-41q0 -140 -73.5 -213.5t-213.5 -73.5h-254l87 165h379v5l-322 30q-72 7 -108 40t-36 83l80 113q-62 54 -62 149q0 98 66 152
t186 54h48q43 0 51 39l14 78h180l-4 -45q-4 -41 -33 -64t-77 -23h-91zM283 266q43 0 62 11t19 37q0 24 -19 35t-62 11q-42 0 -60 -10.5t-18 -35.5q0 -26 18 -37t60 -11z" />
    <glyph glyph-name="h" unicode="h" horiz-adv-x="536" 
d="M26 720h175v-299h5q14 44 48 74t95 30q74 0 117 -49t43 -147v-329h-175v340q0 66 -67 66q-66 0 -66 -66v-340h-175v720z" />
    <glyph glyph-name="i" unicode="i" horiz-adv-x="228" 
d="M26 720h175v-167h-175v167zM26 520h175v-520h-175v520z" />
    <glyph glyph-name="j" unicode="j" horiz-adv-x="228" 
d="M26 720h175v-167h-175v167zM-113 -221v165h64q75 0 75 75v501h175v-495q0 -121 -62.5 -183.5t-183.5 -62.5h-68z" />
    <glyph glyph-name="k" unicode="k" horiz-adv-x="565" 
d="M550 0h-193l-150 250h-6v-250h-175v720h175v-450h6l150 250h193l-99 -170q-26 -44 -65.5 -65.5t-90.5 -21.5v-5q104 0 156 -88z" />
    <glyph glyph-name="l" unicode="l" horiz-adv-x="228" 
d="M26 720h175v-720h-175v720z" />
    <glyph glyph-name="m" unicode="m" horiz-adv-x="744" 
d="M284 366q0 40 -41 40q-42 0 -42 -40v-366h-175v520h175v-99h5q11 44 41.5 74t90.5 30q53 0 87 -26t34 -78h5q11 44 41 74t86 30q59 0 92.5 -37.5t33.5 -117.5v-370h-175v366q0 40 -41 40q-42 0 -42 -40v-366h-175v366z" />
    <glyph glyph-name="n" unicode="n" horiz-adv-x="536" 
d="M26 520h175v-99h5q14 44 48 74t95 30q74 0 117 -49t43 -147v-329h-175v340q0 66 -67 66q-66 0 -66 -66v-340h-175v520z" />
    <glyph glyph-name="o" unicode="o" horiz-adv-x="546" 
d="M272 -5q-121 0 -188.5 70.5t-67.5 195.5t67.5 194.5t188.5 69.5q60 0 108 -18t81 -52.5t50.5 -83t17.5 -110.5t-17.5 -111.5t-50.5 -84t-81 -52.5t-108 -18zM273 160q81 0 81 100q0 51 -19.5 75.5t-61.5 24.5q-43 0 -62.5 -24t-19.5 -76q0 -51 19.5 -75.5t62.5 -24.5z
" />
    <glyph glyph-name="p" unicode="p" horiz-adv-x="546" 
d="M344 -5q-50 0 -90 26t-57 90h-6v-311h-175v720h175v-111h6q18 65 57 90.5t89 25.5q92 0 139 -70.5t47 -195.5q0 -124 -47 -194t-138 -70zM266 126q23 0 39.5 6t27.5 21t16 41t5 66t-5.5 66t-16 41t-27 21t-39.5 6q-75 0 -75 -75v-118q0 -75 75 -75z" />
    <glyph glyph-name="q" unicode="q" horiz-adv-x="546" 
d="M201 -5q-89 0 -137 69t-48 197q0 125 67.5 194.5t188.5 69.5t189 -69.5t68 -194.5v-461h-175v311h-6q-32 -116 -147 -116zM273 126q81 0 81 75v65q0 54 -19.5 79t-61.5 25q-43 0 -62.5 -25t-19.5 -79q0 -74 16.5 -107t65.5 -33z" />
    <glyph glyph-name="r" unicode="r" horiz-adv-x="425" 
d="M26 0v520h175v-185h5q7 94 40 139.5t89 45.5h75v-165h-105q-104 0 -104 -110v-245h-175z" />
    <glyph glyph-name="s" unicode="s" horiz-adv-x="502" 
d="M26 165h296q10 0 10 10t-10 10l-166 9q-69 4 -104.5 42.5t-35.5 113.5q0 83 43 126.5t127 43.5h291v-165h-296q-10 0 -10 -10q0 -3 2.5 -6.5t7.5 -3.5l166 -9q69 -4 104.5 -42.5t35.5 -113.5q0 -83 -43 -126.5t-127 -43.5h-291v165z" />
    <glyph glyph-name="t" unicode="t" horiz-adv-x="349" 
d="M81 355h-66v165h67v112h175v-112h76v-165h-76v-161q0 -13 8 -21t21 -8h48v-165h-96q-74 0 -115.5 35t-41.5 104v216z" />
    <glyph glyph-name="u" unicode="u" 
d="M175 -5q-74 0 -117 49t-43 147v329h175v-340q0 -66 67 -66q66 0 66 66v340h175v-520h-175v99h-5q-14 -44 -48 -74t-95 -30z" />
    <glyph glyph-name="v" unicode="v" horiz-adv-x="544" 
d="M195 520l73 -384h6l75 384h180l-120 -520h-277l-117 520h180z" />
    <glyph glyph-name="w" unicode="w" horiz-adv-x="723" 
d="M26 520h175v-324q0 -36 37 -36q36 0 36 36v324h175v-324q0 -36 37 -36q36 0 36 36v324h175v-343q0 -89 -46.5 -135.5t-134.5 -46.5q-38 0 -66.5 13.5t-47 37t-28 55.5t-9.5 70h-5q0 -38 -9.5 -70t-29.5 -55.5t-51 -37t-74 -13.5q-84 0 -127 43t-43 127v355z" />
    <glyph glyph-name="x" unicode="x" horiz-adv-x="559" 
d="M177 259l-161 261h205l29 -47q15 -24 21 -51t6 -56h5q0 29 7 56t22 51l29 47h204l-162 -261l160 -259h-205l-27 44q-15 24 -21.5 51t-6.5 56h-5q0 -29 -6.5 -56t-21.5 -51l-27 -44h-206z" />
    <glyph glyph-name="y" unicode="y" horiz-adv-x="544" 
d="M15 520h175v-320q0 -40 43 -40q40 0 49 39l71 321h175l-133 -576q-20 -84 -74 -127.5t-140 -43.5h-166l37 165h128q40 0 49 39l41 168h-5l-53 -91q-34 -59 -104 -59q-45 0 -69 24t-24 69v432z" />
    <glyph glyph-name="z" unicode="z" horiz-adv-x="503" 
d="M16 15l193 334v6h-193v165h472v-15l-194 -333v-7h194v-165h-472v15z" />
    <glyph glyph-name="braceleft" unicode="{" horiz-adv-x="342" 
d="M16 340q31 0 50.5 19.5t19.5 49.5v113q0 39 14.5 72t40.5 56.5t62.5 36.5t80.5 13h41v-127h-13q-24 0 -37.5 -15.5t-13.5 -43.5v-111q0 -114 -175 -114v-4q175 0 175 -114v-111q0 -28 13.5 -43.5t37.5 -15.5h13v-127h-41q-44 0 -80.5 13t-62.5 36.5t-40.5 56.5t-14.5 72
v113q0 30 -19.5 49.5t-50.5 19.5v106z" />
    <glyph glyph-name="bar" unicode="|" horiz-adv-x="208" 
d="M16 738h175v-938h-175v938z" />
    <glyph glyph-name="braceright" unicode="}" horiz-adv-x="342" 
d="M80 171q0 114 175 114v4q-175 0 -175 114v111q0 28 -13.5 43.5t-37.5 15.5h-13v127h41q44 0 80.5 -13t62.5 -36.5t40.5 -56.5t14.5 -72v-113q0 -30 19.5 -49.5t50.5 -19.5v-106q-31 0 -50.5 -19.5t-19.5 -49.5v-113q0 -39 -14.5 -72t-40.5 -56.5t-62.5 -36.5t-80.5 -13
h-41v127h13q24 0 37.5 15.5t13.5 43.5v111z" />
    <glyph glyph-name="asciitilde" unicode="~" horiz-adv-x="510" 
d="M16 368q26 29 59.5 44.5t71.5 15.5q30 0 58 -9t51 -23q26 -16 51.5 -23t51.5 -7q40 0 75.5 15.5t58.5 44.5v-187q-27 -23 -60.5 -35.5t-67.5 -12.5q-32 0 -61.5 9.5t-53.5 23.5q-50 29 -100 29q-41 0 -76.5 -16t-57.5 -45v176z" />
    <glyph glyph-name="uni00A0" unicode="&#xa0;" horiz-adv-x="390" 
 />
    <glyph glyph-name="exclamdown" unicode="&#xa1;" horiz-adv-x="207" 
d="M191 345h-175v175h175v-175zM191 -180h-175l10 486h155z" />
    <glyph glyph-name="cent" unicode="&#xa2;" horiz-adv-x="517" 
d="M185 93q-81 23 -125 88.5t-44 167.5t44 167.5t125 88.5v95h175v-99q59 -22 95.5 -71.5t44.5 -121.5h-149q-9 27 -29 42.5t-46 15.5q-38 0 -61.5 -31.5t-23.5 -84.5q0 -54 23.5 -86t62.5 -32q26 0 46.5 15.5t28.5 42.5h148q-8 -72 -44.5 -121.5t-95.5 -71.5v-97h-175v93z
" />
    <glyph glyph-name="sterling" unicode="&#xa3;" horiz-adv-x="480" 
d="M132 165h331v-165h-447v165h3q35 0 46.5 18.5t11.5 46.5v81h-61v165h61v42q0 42 15 77t41.5 59.5t64 38.5t82.5 14q35 0 80 -10.5t89 -38.5l-51 -108q-44 30 -86 30q-26 0 -43 -14.5t-17 -47.5v-42h95v-165h-95v-24q0 -59 -32.5 -85.5t-87.5 -31.5v-5z" />
    <glyph glyph-name="currency" unicode="&#xa4;" horiz-adv-x="509" 
d="M252 145q-47 0 -88 22l-58 -58l-90 90l58 58q-11 21 -15.5 44t-5.5 46q-2 49 21 91l-58 58l90 90l58 -58q42 21 89 21q48 0 92 -22l57 57l89 -90l-57 -57q10 -21 15.5 -43.5t5.5 -46.5q0 -48 -21 -90l58 -57l-90 -90l-57 57q-41 -22 -93 -22zM254 285q26 0 43.5 18.5
t17.5 44.5t-17.5 43.5t-43.5 17.5q-27 0 -44 -17.5t-17 -43.5q0 -27 17 -45t44 -18z" />
    <glyph glyph-name="yen" unicode="&#xa5;" horiz-adv-x="664" 
d="M244 115h-135v140h135v20h-135v140h63l-156 285h197l118 -227l119 227h197l-157 -285h64v-140h-136v-20h136v-140h-136v-116h-174v116z" />
    <glyph glyph-name="brokenbar" unicode="&#xa6;" horiz-adv-x="218" 
d="M16 329v409h175v-409h-175zM191 209v-409h-175v409h175z" />
    <glyph glyph-name="section" unicode="&#xa7;" horiz-adv-x="490" 
d="M228 -7q-50 0 -106 7.5t-106 21.5v180q24 -9 55 -18t62.5 -15.5t61 -10.5t50.5 -4q71 0 71 12q0 6 -21.5 15.5t-81.5 20.5q-54 10 -91.5 22t-61 28t-34 36.5t-10.5 45.5l43 122q-23 23 -33 47t-10 50q0 75 64.5 114.5t181.5 39.5q50 0 106 -7.5t106 -21.5v-180
q-24 9 -55 18t-62.5 15.5t-61 10.5t-50.5 4q-71 0 -71 -12q0 -5 21.5 -14.5t80.5 -20.5q109 -19 153.5 -50.5t44.5 -82.5l-43 -122q23 -23 33 -47t10 -50q0 -75 -64.5 -114.5t-181.5 -39.5zM135 409q-2 -3 -2 -6.5v-6.5q0 -23 30.5 -41.5t96.5 -33.5q57 -14 95 -30
q2 3 2 6.5v6.5q0 23 -30.5 41.5t-96.5 33.5q-57 14 -95 30z" />
    <glyph glyph-name="dieresis" unicode="&#xa8;" horiz-adv-x="334" 
d="M16 720h140v-167h-140v167zM177 720h140v-167h-140v167z" />
    <glyph glyph-name="copyright" unicode="&#xa9;" horiz-adv-x="763" 
d="M381 -16q-80 0 -147 27t-115.5 75.5t-75.5 115.5t-27 147t27 147t75.5 115.5t115.5 75.5t147 27t147 -27t115.5 -75.5t75.5 -115.5t27 -147t-27 -147t-75.5 -115.5t-115.5 -75.5t-147 -27zM382 9q73 0 135 25.5t107 71t70 108t25 136.5q0 75 -25 137t-70 107t-106.5 70
t-135.5 25t-136 -25t-107 -70t-70.5 -107t-25.5 -137t25.5 -137.5t70.5 -107.5t107 -70.5t136 -25.5zM383 133q-99 0 -153.5 57t-54.5 160t54.5 160t152.5 57q85 0 138.5 -42.5t61.5 -116.5h-130q-7 26 -25.5 40.5t-44.5 14.5q-38 0 -59 -30t-21 -86q0 -110 79 -110
q58 0 72 55h130q-9 -75 -62 -117t-138 -42z" />
    <glyph glyph-name="ordfeminine" unicode="&#xaa;" horiz-adv-x="332" 
d="M107 425q-49 0 -70 24.5t-21 56.5q0 22 9 37.5t26.5 26.5t42.5 19t57 14l25 5q-16 15 -51 15q-15 0 -29 -3t-28 -8v89q41 9 80 9q78 0 122.5 -37t44.5 -106v-142h-120v56h-5q-20 -56 -83 -56zM161 549q-26 -6 -26 -29q0 -25 26 -25q20 0 27.5 15t6.5 47z" />
    <glyph glyph-name="guillemotleft" unicode="&#xab;" horiz-adv-x="528" 
d="M16 268l75 203h187l-75 -203l75 -203h-187zM249 268l75 203h187l-75 -203l75 -203h-187z" />
    <glyph glyph-name="logicalnot" unicode="&#xac;" horiz-adv-x="527" 
d="M16 375h494v-270h-127v95h-367v175z" />
    <glyph glyph-name="uni00AD" unicode="&#xad;" horiz-adv-x="510" 
d="M16 377h477v-175h-477v175z" />
    <glyph glyph-name="registered" unicode="&#xae;" horiz-adv-x="763" 
d="M382 -12q-79 0 -145.5 27t-114.5 75t-75 114.5t-27 145.5t27 145t75 114t114.5 75t145.5 27t145 -27t114 -75t75 -114t27 -145t-27 -145.5t-75 -114.5t-114 -75t-145 -27zM382 13q73 0 134 25t105.5 70t69.5 107t25 135q0 74 -25 135.5t-69.5 106t-105.5 69.5t-134 25
t-134.5 -25t-106 -69.5t-69.5 -106t-25 -135.5q0 -73 25 -135t69.5 -107t106 -70t134.5 -25zM340 292v-146h-110v407h174q66 0 101.5 -34.5t35.5 -97.5q0 -45 -18 -74.5t-52 -40.5v-4q24 0 38.5 -12.5t16.5 -36.5l8 -107h-110l-10 123q-2 23 -26 23h-48zM385 372q46 0 46 45
q0 46 -44 46h-47v-91h45z" />
    <glyph glyph-name="macron" unicode="&#xaf;" horiz-adv-x="336" 
d="M16 708h303v-155h-303v155z" />
    <glyph glyph-name="degree" unicode="&#xb0;" horiz-adv-x="325" 
d="M162 417q-30 0 -57 11.5t-46.5 31.5t-31 46.5t-11.5 57.5q0 30 11.5 57t31 46.5t46.5 31t57 11.5t57 -11.5t46.5 -31t31 -46.5t11.5 -57q0 -31 -11.5 -57.5t-31 -46.5t-46.5 -31.5t-57 -11.5zM162 519q19 0 32 12.5t13 32.5q0 19 -13 32t-32 13t-32 -13t-13 -32
q0 -20 13 -32.5t32 -12.5z" />
    <glyph glyph-name="plusminus" unicode="&#xb1;" horiz-adv-x="535" 
d="M17 449h163v104h175v-104h163v-160h-163v-104h-175v104h-163v160zM17 165h501v-165h-501v165z" />
    <glyph glyph-name="twosuperior" unicode="&#xb2;" horiz-adv-x="368" 
d="M138 585q30 7 40 13t10 11q0 8 -31 8q-38 0 -73 -8t-61 -22v151q40 9 80.5 14t75.5 5q172 0 172 -125q0 -54 -30.5 -90.5t-87.5 -52.5q-52 -15 -52 -40v-7h170v-150h-335v122q0 38 5 66.5t18.5 49t37 34t61.5 21.5z" />
    <glyph glyph-name="threesuperior" unicode="&#xb3;" horiz-adv-x="339" 
d="M16 447h96q37 0 37 16q0 7 -8.5 13t-24.5 6h-65v100h62q11 0 17.5 4t6.5 12q0 18 -39 18q-20 0 -39 -5t-36 -13v144q27 7 57.5 11t60.5 4q81 0 125.5 -31t44.5 -88q0 -49 -31.5 -71t-82.5 -24v-5q60 3 92.5 -24.5t32.5 -82.5q0 -65 -45.5 -101.5t-126.5 -36.5h-134v154z
" />
    <glyph glyph-name="acute" unicode="&#xb4;" horiz-adv-x="266" 
d="M84 708h163l-117 -155h-114z" />
    <glyph glyph-name="paragraph" unicode="&#xb6;" horiz-adv-x="511" 
d="M170 429q-69 0 -111.5 42.5t-42.5 111.5t42.5 111.5t111.5 42.5h324v-935h-139v808h-46v-808h-139v627z" />
    <glyph glyph-name="periodcentered" unicode="&#xb7;" horiz-adv-x="208" 
d="M191 263h-175v174h175v-174z" />
    <glyph glyph-name="cedilla" unicode="&#xb8;" horiz-adv-x="242" 
d="M93 5v-16q48 -4 75 -29.5t27 -68.5q0 -28 -11.5 -47.5t-32 -31.5t-47.5 -17t-58 -5v57h8q16 0 26 13t10 35t-10 35.5t-26 13.5h-8v61h47z" />
    <glyph glyph-name="onesuperior" unicode="&#xb9;" horiz-adv-x="290" 
d="M98 750h175v-458h-175v274h-5l-3 -12q-5 -20 -15.5 -34t-30.5 -16l-28 -3v164l44 10q20 5 29 19t9 34v22z" />
    <glyph glyph-name="ordmasculine" unicode="&#xba;" horiz-adv-x="330" 
d="M164 425q-69 0 -108.5 37t-39.5 106q0 68 39.5 105t108.5 37t109 -37t40 -105q0 -69 -40 -106t-109 -37zM164 494q14 0 23 20t9 54q0 33 -9 53t-23 20t-22.5 -19.5t-8.5 -53.5q0 -35 8.5 -54.5t22.5 -19.5z" />
    <glyph glyph-name="guillemotright" unicode="&#xbb;" horiz-adv-x="528" 
d="M249 65l75 203l-75 203h187l75 -203l-75 -203h-187zM16 65l75 203l-75 203h187l75 -203l-75 -203h-187z" />
    <glyph glyph-name="onequarter" unicode="&#xbc;" horiz-adv-x="966" 
d="M508 700h185l-319 -700h-185zM97 700h175v-458h-175v274h-5l-3 -12q-5 -20 -15.5 -34t-30.5 -16l-28 -3v164l44 10q20 5 29 19t9 34v22zM522 245l213 213h215l-251 -251v-5h18q26 0 38 -10t15 -33h5v98h175v-257h-175v17q0 40 -40 40h-213v188z" />
    <glyph glyph-name="onehalf" unicode="&#xbd;" horiz-adv-x="927" 
d="M498 700h185l-319 -700h-185zM97 700h175v-458h-175v274h-5l-3 -12q-5 -20 -15.5 -34t-30.5 -16l-28 -3v164l44 10q20 5 29 19t9 34v22zM693 244q35 17 45 28t10 22q0 26 -46 26q-29 0 -62 -8.5t-57 -21.5v151q36 8 76.5 13.5t78.5 5.5q85 0 129 -30t44 -93q0 -21 -5 -38
t-17 -32.5t-31 -30.5t-47 -30q-34 -19 -43.5 -29.5t-9.5 -19.5v-7h153v-150h-335v53q0 32 3 58t14.5 49t35 43.5t64.5 40.5z" />
    <glyph glyph-name="threequarters" unicode="&#xbe;" horiz-adv-x="966" 
d="M16 397h96q37 0 37 16q0 7 -8.5 13t-24.5 6h-65v100h62q11 0 17.5 4t6.5 12q0 18 -39 18q-20 0 -39 -5t-36 -13v144q27 7 57.5 11t60.5 4q81 0 125.5 -31t44.5 -88q0 -49 -31.5 -71t-82.5 -24v-5q60 3 92.5 -24.5t32.5 -82.5q0 -65 -45.5 -101.5t-126.5 -36.5h-134v154z
M510 700h185l-319 -700h-185zM775 17q0 40 -40 40h-213v188l213 213h215l-251 -251v-5h18q26 0 38 -10t15 -33h5v98h175v-257h-175v17z" />
    <glyph glyph-name="questiondown" unicode="&#xbf;" horiz-adv-x="527" 
d="M213 520h175v-175h-175v175zM16 9q0 69 33.5 120.5t105.5 96.5q28 17 48 36.5t20 42.5v10h155v-10q0 -32 -4 -59.5t-16.5 -52t-35.5 -47t-60 -45.5q-39 -24 -55 -43.5t-16 -37.5q0 -21 20.5 -29.5t63.5 -8.5q29 0 61 3.5t63.5 9.5t60 14.5t51.5 18.5v-174
q-55 -20 -116.5 -30.5t-122.5 -10.5q-125 0 -190.5 48t-65.5 148z" />
    <glyph glyph-name="Agrave" unicode="&#xc0;" horiz-adv-x="667" 
d="M208 888h163l68 -155h-114zM174 700h317l159 -700h-180l-30 141h-214l-30 -141h-180zM404 306l-69 319h-5l-68 -319h142z" />
    <glyph glyph-name="Aacute" unicode="&#xc1;" horiz-adv-x="667" 
d="M295 888h163l-117 -155h-114zM174 700h317l159 -700h-180l-30 141h-214l-30 -141h-180zM404 306l-69 319h-5l-68 -319h142z" />
    <glyph glyph-name="Acircumflex" unicode="&#xc2;" horiz-adv-x="667" 
d="M260 888h146l89 -155h-146l-14 142h-2l-14 -142h-148zM174 700h317l159 -700h-180l-30 141h-214l-30 -141h-180zM404 306l-69 319h-5l-68 -319h142z" />
    <glyph glyph-name="Atilde" unicode="&#xc3;" horiz-adv-x="667" 
d="M193 734q0 86 22 120.5t78 34.5q18 0 33.5 -3.5t29.5 -11.5q11 -6 23 -10t24 -4q17 0 28.5 8t11.5 21h52q0 -43 -5 -73t-16 -48t-28.5 -26t-43.5 -8q-39 0 -73 17q-11 5 -22 8.5t-22 3.5q-17 0 -28.5 -8t-11.5 -21h-52zM174 700h317l159 -700h-180l-30 141h-214l-30 -141
h-180zM404 306l-69 319h-5l-68 -319h142z" />
    <glyph glyph-name="Adieresis" unicode="&#xc4;" horiz-adv-x="667" 
d="M182 888h140v-155h-140v155zM343 888h140v-155h-140v155zM174 700h317l159 -700h-180l-30 141h-214l-30 -141h-180zM404 306l-69 319h-5l-68 -319h142z" />
    <glyph glyph-name="Aring" unicode="&#xc5;" horiz-adv-x="667" 
d="M333 709q-48 0 -81.5 25.5t-33.5 75.5t33.5 75.5t81.5 25.5t81.5 -25.5t33.5 -75.5t-33.5 -75.5t-81.5 -25.5zM333 776q19 0 31.5 9.5t12.5 24.5q0 14 -12.5 24t-31.5 10t-31.5 -10t-12.5 -24q0 -15 12.5 -24.5t31.5 -9.5zM174 700h317l159 -700h-180l-30 141h-214
l-30 -141h-180zM404 306l-69 319h-5l-68 -319h142z" />
    <glyph glyph-name="AE" unicode="&#xc6;" horiz-adv-x="904" 
d="M174 700h713v-165h-359l23 -97h316v-165h-279l25 -108h274v-165h-417l-30 141h-214l-30 -141h-180zM404 306l-69 319h-5l-68 -319h142z" />
    <glyph glyph-name="Ccedilla" unicode="&#xc7;" horiz-adv-x="681" 
d="M324 -153h8q16 0 26 13t10 35t-10 35.5t-26 13.5h-8v50q-150 7 -229 97.5t-79 258.5q0 174 85 265.5t246 91.5q146 0 227 -73.5t92 -213.5h-175q-9 63 -44 92.5t-100 29.5q-81 0 -118.5 -46t-37.5 -146t37.5 -146t118.5 -46q128 0 144 122h175q-12 -134 -86.5 -207
t-208.5 -79v-5q48 -4 75 -29.5t27 -68.5q0 -28 -11.5 -47.5t-32 -31.5t-47.5 -17t-58 -5v57z" />
    <glyph glyph-name="Egrave" unicode="&#xc8;" horiz-adv-x="530" 
d="M150 888h163l68 -155h-114zM26 700h487v-165h-312v-97h292v-165h-292v-108h312v-165h-487v700z" />
    <glyph glyph-name="Eacute" unicode="&#xc9;" horiz-adv-x="530" 
d="M218 888h163l-117 -155h-114zM26 700h487v-165h-312v-97h292v-165h-292v-108h312v-165h-487v700z" />
    <glyph glyph-name="Ecircumflex" unicode="&#xca;" horiz-adv-x="530" 
d="M192 888h146l89 -155h-146l-14 142h-2l-14 -142h-148zM26 700h487v-165h-312v-97h292v-165h-292v-108h312v-165h-487v700z" />
    <glyph glyph-name="Edieresis" unicode="&#xcb;" horiz-adv-x="530" 
d="M115 888h140v-155h-140v155zM276 888h140v-155h-140v155zM26 700h487v-165h-312v-97h292v-165h-292v-108h312v-165h-487v700z" />
    <glyph glyph-name="Igrave" unicode="&#xcc;" horiz-adv-x="238" 
d="M-10 888h163l68 -155h-114zM26 700h185v-700h-185v700z" />
    <glyph glyph-name="Iacute" unicode="&#xcd;" horiz-adv-x="238" 
d="M78 888h163l-117 -155h-114zM26 700h185v-700h-185v700z" />
    <glyph glyph-name="Icircumflex" unicode="&#xce;" horiz-adv-x="238" 
d="M43 888h146l89 -155h-146l-14 142h-2l-14 -142h-148zM26 700h185v-700h-185v700z" />
    <glyph glyph-name="Idieresis" unicode="&#xcf;" horiz-adv-x="238" 
d="M-35 888h140v-155h-140v155zM126 888h140v-155h-140v155zM26 700h185v-700h-185v700z" />
    <glyph glyph-name="Eth" unicode="&#xd0;" horiz-adv-x="610" 
d="M-4 427h30v273h242q75 0 135 -23.5t102 -68t65 -108t23 -144.5q0 -83 -23 -149t-65.5 -112t-102.5 -70.5t-134 -24.5h-242v252h-30v175zM268 165q69 0 109.5 49t40.5 139q0 91 -39.5 136.5t-110.5 45.5h-67v-108h30v-175h-30v-87h67z" />
    <glyph glyph-name="Ntilde" unicode="&#xd1;" horiz-adv-x="627" 
d="M172 734q0 86 22 120.5t78 34.5q18 0 33.5 -3.5t29.5 -11.5q11 -6 23 -10t24 -4q17 0 28.5 8t11.5 21h52q0 -43 -5 -73t-16 -48t-28.5 -26t-43.5 -8q-39 0 -73 17q-11 5 -22 8.5t-22 3.5q-17 0 -28.5 -8t-11.5 -21h-52zM26 700h333l61 -625h5v625h175v-700h-333l-61 625
h-5v-625h-175v700z" />
    <glyph glyph-name="Ograve" unicode="&#xd2;" horiz-adv-x="693" 
d="M228 888h163l68 -155h-114zM347 -7q-161 0 -246 91.5t-85 265.5t85 265.5t246 91.5t245 -91t84 -266t-84 -266t-245 -91zM347 158q81 0 117.5 46t36.5 146t-36.5 146t-117.5 46t-118.5 -46t-37.5 -146t37.5 -146t118.5 -46z" />
    <glyph glyph-name="Oacute" unicode="&#xd3;" horiz-adv-x="693" 
d="M316 888h163l-117 -155h-114zM347 -7q-161 0 -246 91.5t-85 265.5t85 265.5t246 91.5t245 -91t84 -266t-84 -266t-245 -91zM347 158q81 0 117.5 46t36.5 146t-36.5 146t-117.5 46t-118.5 -46t-37.5 -146t37.5 -146t118.5 -46z" />
    <glyph glyph-name="Ocircumflex" unicode="&#xd4;" horiz-adv-x="693" 
d="M281 888h146l89 -155h-146l-14 142h-2l-14 -142h-148zM347 -7q-161 0 -246 91.5t-85 265.5t85 265.5t246 91.5t245 -91t84 -266t-84 -266t-245 -91zM347 158q81 0 117.5 46t36.5 146t-36.5 146t-117.5 46t-118.5 -46t-37.5 -146t37.5 -146t118.5 -46z" />
    <glyph glyph-name="Otilde" unicode="&#xd5;" horiz-adv-x="693" 
d="M214 734q0 86 22 120.5t78 34.5q18 0 33.5 -3.5t29.5 -11.5q11 -6 23 -10t24 -4q17 0 28.5 8t11.5 21h52q0 -43 -5 -73t-16 -48t-28.5 -26t-43.5 -8q-39 0 -73 17q-11 5 -22 8.5t-22 3.5q-17 0 -28.5 -8t-11.5 -21h-52zM347 -7q-161 0 -246 91.5t-85 265.5t85 265.5
t246 91.5t245 -91t84 -266t-84 -266t-245 -91zM347 158q81 0 117.5 46t36.5 146t-36.5 146t-117.5 46t-118.5 -46t-37.5 -146t37.5 -146t118.5 -46z" />
    <glyph glyph-name="Odieresis" unicode="&#xd6;" horiz-adv-x="693" 
d="M203 888h140v-155h-140v155zM364 888h140v-155h-140v155zM347 -7q-161 0 -246 91.5t-85 265.5t85 265.5t246 91.5t245 -91t84 -266t-84 -266t-245 -91zM347 158q81 0 117.5 46t36.5 146t-36.5 146t-117.5 46t-118.5 -46t-37.5 -146t37.5 -146t118.5 -46z" />
    <glyph glyph-name="multiply" unicode="&#xd7;" horiz-adv-x="494" 
d="M16 183l106 107l-106 106l124 124l107 -106l106 106l124 -124l-106 -106l106 -107l-124 -124l-106 107l-107 -107z" />
    <glyph glyph-name="Oslash" unicode="&#xd8;" horiz-adv-x="703" 
d="M355 -7q-16 0 -31 1t-29 3l-8 -18h-185l35 83q-58 46 -89.5 119t-31.5 169q0 83 23.5 149t67.5 112t107 71t141 25q28 0 53 -3l7 16h185l-33 -79q58 -46 88.5 -119.5t30.5 -171.5q0 -84 -22.5 -150t-65.5 -112t-104.5 -70.5t-138.5 -24.5zM342 547q-38 -2 -66.5 -20
t-47 -46t-28 -62t-9.5 -69q0 -61 23 -107zM361 153q39 2 67 20t46.5 46t27.5 62t9 69q0 60 -22 107z" />
    <glyph glyph-name="Ugrave" unicode="&#xd9;" horiz-adv-x="581" 
d="M164 888h163l68 -155h-114zM191 700v-451q0 -38 25 -64.5t75 -26.5t74 26.5t24 64.5v451h175v-456q0 -51 -18 -97t-53 -80t-86 -54t-116 -20q-66 0 -117 20t-86 54.5t-53.5 80t-18.5 96.5v456h175z" />
    <glyph glyph-name="Uacute" unicode="&#xda;" horiz-adv-x="581" 
d="M252 888h163l-117 -155h-114zM191 700v-451q0 -38 25 -64.5t75 -26.5t74 26.5t24 64.5v451h175v-456q0 -51 -18 -97t-53 -80t-86 -54t-116 -20q-66 0 -117 20t-86 54.5t-53.5 80t-18.5 96.5v456h175z" />
    <glyph glyph-name="Ucircumflex" unicode="&#xdb;" horiz-adv-x="581" 
d="M217 888h146l89 -155h-146l-14 142h-2l-14 -142h-148zM191 700v-451q0 -38 25 -64.5t75 -26.5t74 26.5t24 64.5v451h175v-456q0 -51 -18 -97t-53 -80t-86 -54t-116 -20q-66 0 -117 20t-86 54.5t-53.5 80t-18.5 96.5v456h175z" />
    <glyph glyph-name="Udieresis" unicode="&#xdc;" horiz-adv-x="581" 
d="M139 888h140v-155h-140v155zM300 888h140v-155h-140v155zM191 700v-451q0 -38 25 -64.5t75 -26.5t74 26.5t24 64.5v451h175v-456q0 -51 -18 -97t-53 -80t-86 -54t-116 -20q-66 0 -117 20t-86 54.5t-53.5 80t-18.5 96.5v456h175z" />
    <glyph glyph-name="Yacute" unicode="&#xdd;" horiz-adv-x="661" 
d="M292 888h163l-117 -155h-114zM461 700h185l-172 -445h-57v-256h-174v256h-56l-172 445h185l99 -264q15 -40 22.5 -83t7.5 -86h2q0 43 7.5 86t22.5 83z" />
    <glyph glyph-name="Thorn" unicode="&#xde;" horiz-adv-x="556" 
d="M26 700h175v-113h97q53 0 97.5 -18t76.5 -50t49.5 -75t17.5 -93t-18 -93t-50 -75t-76 -50.5t-97 -18.5h-97v-114h-175v700zM281 274q37 0 60 21t23 56t-22.5 55.5t-60.5 20.5h-80v-153h80z" />
    <glyph glyph-name="germandbls" unicode="&#xdf;" horiz-adv-x="578" 
d="M16 520q0 91 56 140.5t161 49.5q100 0 158.5 -40t58.5 -111q0 -37 -18 -66.5t-59 -46.5q-19 -8 -28.5 -17.5t-9.5 -23.5q0 -18 17 -31.5t54 -26.5q42 -15 71.5 -32.5t48 -39t27 -49t8.5 -63.5q0 -89 -49.5 -130t-158.5 -41q-40 0 -77.5 5t-69.5 16v164q39 -17 76.5 -26
t68.5 -9q35 0 35 17q0 13 -14.5 26.5t-47.5 30.5q-61 32 -89.5 70t-28.5 87q0 42 19 69.5t55 48.5q46 27 46 53q0 16 -15.5 24.5t-43.5 8.5q-40 0 -58 -19t-18 -61v-497h-175v520z" />
    <glyph glyph-name="agrave" unicode="&#xe0;" horiz-adv-x="538" 
d="M149 708h163l68 -155h-114zM173 -7q-73 0 -115 41.5t-42 108.5q0 41 16.5 76.5t48 63t77 46.5t102.5 26v5h-211v160h307q76 0 115.5 -39.5t39.5 -115.5v-365h-175v101h-5q-15 -51 -56.5 -79.5t-101.5 -28.5zM260 116q76 0 76 70v134q0 40 -40 40h-11q-20 -16 -39 -35.5
t-34 -41t-24 -45.5t-9 -49q0 -36 21 -54.5t60 -18.5z" />
    <glyph glyph-name="aacute" unicode="&#xe1;" horiz-adv-x="538" 
d="M236 708h163l-117 -155h-114zM173 -7q-73 0 -115 41.5t-42 108.5q0 41 16.5 76.5t48 63t77 46.5t102.5 26v5h-211v160h307q76 0 115.5 -39.5t39.5 -115.5v-365h-175v101h-5q-15 -51 -56.5 -79.5t-101.5 -28.5zM260 116q76 0 76 70v134q0 40 -40 40h-11q-20 -16 -39 -35.5
t-34 -41t-24 -45.5t-9 -49q0 -36 21 -54.5t60 -18.5z" />
    <glyph glyph-name="acircumflex" unicode="&#xe2;" horiz-adv-x="538" 
d="M200 708h146l89 -155h-146l-14 142h-2l-14 -142h-148zM173 -7q-73 0 -115 41.5t-42 108.5q0 41 16.5 76.5t48 63t77 46.5t102.5 26v5h-211v160h307q76 0 115.5 -39.5t39.5 -115.5v-365h-175v101h-5q-15 -51 -56.5 -79.5t-101.5 -28.5zM260 116q76 0 76 70v134
q0 40 -40 40h-11q-20 -16 -39 -35.5t-34 -41t-24 -45.5t-9 -49q0 -36 21 -54.5t60 -18.5z" />
    <glyph glyph-name="atilde" unicode="&#xe3;" horiz-adv-x="538" 
d="M118 553q0 86 22 120.5t78 34.5q18 0 33.5 -3.5t29.5 -11.5q11 -6 23 -10t24 -4q17 0 28.5 8t11.5 21h52q0 -43 -5 -73t-16 -48t-28.5 -26t-43.5 -8q-39 0 -73 17q-11 5 -22 8.5t-22 3.5q-17 0 -28.5 -8t-11.5 -21h-52zM173 -7q-73 0 -115 41.5t-42 108.5q0 41 16.5 76.5
t48 63t77 46.5t102.5 26v5h-211v160h307q76 0 115.5 -39.5t39.5 -115.5v-365h-175v101h-5q-15 -51 -56.5 -79.5t-101.5 -28.5zM260 116q76 0 76 70v134q0 40 -40 40h-11q-20 -16 -39 -35.5t-34 -41t-24 -45.5t-9 -49q0 -36 21 -54.5t60 -18.5z" />
    <glyph glyph-name="adieresis" unicode="&#xe4;" horiz-adv-x="538" 
d="M124 720h140v-167h-140v167zM285 720h140v-167h-140v167zM173 -7q-73 0 -115 41.5t-42 108.5q0 41 16.5 76.5t48 63t77 46.5t102.5 26v5h-211v160h307q76 0 115.5 -39.5t39.5 -115.5v-365h-175v101h-5q-15 -51 -56.5 -79.5t-101.5 -28.5zM260 116q76 0 76 70v134
q0 40 -40 40h-11q-20 -16 -39 -35.5t-34 -41t-24 -45.5t-9 -49q0 -36 21 -54.5t60 -18.5z" />
    <glyph glyph-name="aring" unicode="&#xe5;" horiz-adv-x="538" 
d="M274 529q-48 0 -81.5 25.5t-33.5 75.5t33.5 75.5t81.5 25.5t81.5 -25.5t33.5 -75.5t-33.5 -75.5t-81.5 -25.5zM274 596q19 0 31.5 9.5t12.5 24.5q0 14 -12.5 24t-31.5 10t-31.5 -10t-12.5 -24q0 -15 12.5 -24.5t31.5 -9.5zM173 -7q-73 0 -115 41.5t-42 108.5
q0 41 16.5 76.5t48 63t77 46.5t102.5 26v5h-211v160h307q76 0 115.5 -39.5t39.5 -115.5v-365h-175v101h-5q-15 -51 -56.5 -79.5t-101.5 -28.5zM260 116q76 0 76 70v134q0 40 -40 40h-11q-20 -16 -39 -35.5t-34 -41t-24 -45.5t-9 -49q0 -36 21 -54.5t60 -18.5z" />
    <glyph glyph-name="ae" unicode="&#xe6;" horiz-adv-x="845" 
d="M169 -7q-70 0 -111.5 41.5t-41.5 108.5q0 41 16.5 76.5t48 63t77 46.5t102.5 26v5h-211v160h307q63 0 100 -27q59 32 141 32q55 0 98 -13.5t73 -37.5t46 -57t16 -71q0 -39 -16.5 -77.5t-46.5 -59.5h-245q23 -44 114 -44h171v-165h-198q-85 0 -145 30t-92 87
q-46 -60 -94.5 -92t-108.5 -32zM517 223q33 6 59.5 17.5t45.5 25.5t29.5 29t10.5 29q0 15 -13 25.5t-43 10.5q-45 0 -69.5 -26t-24.5 -75q0 -19 5 -36zM260 116q76 0 76 70v134q0 40 -40 40h-11q-20 -16 -39 -35.5t-34 -41t-24 -45.5t-9 -49q0 -36 21 -54.5t60 -18.5z" />
    <glyph glyph-name="ccedilla" unicode="&#xe7;" horiz-adv-x="437" 
d="M245 -153h8q16 0 26 13t10 35t-10 35.5t-26 13.5h-8v57q-110 9 -169.5 78t-59.5 184q0 124 68 193t193 69q30 0 68.5 -5t74.5 -17v-164q-34 12 -59.5 16.5t-51.5 4.5q-65 0 -91.5 -23t-26.5 -74t26.5 -74.5t89.5 -23.5h113v-165h-128v-11q48 -4 75 -29.5t27 -68.5
q0 -28 -11.5 -47.5t-32 -31.5t-47.5 -17t-58 -5v57z" />
    <glyph glyph-name="egrave" unicode="&#xe8;" 
d="M140 708h163l68 -155h-114zM287 0q-129 0 -200.5 69t-71.5 194q0 124 68 193t192 69q55 0 98 -13.5t73 -37.5t46 -57t16 -71q0 -39 -16.5 -77.5t-46.5 -59.5h-245q23 -44 114 -44h171v-165h-198zM195 223q33 6 59.5 17.5t45.5 25.5t29.5 29t10.5 29q0 15 -13 25.5
t-43 10.5q-45 0 -69.5 -26t-24.5 -75q0 -19 5 -36z" />
    <glyph glyph-name="eacute" unicode="&#xe9;" 
d="M227 708h163l-117 -155h-114zM287 0q-129 0 -200.5 69t-71.5 194q0 124 68 193t192 69q55 0 98 -13.5t73 -37.5t46 -57t16 -71q0 -39 -16.5 -77.5t-46.5 -59.5h-245q23 -44 114 -44h171v-165h-198zM195 223q33 6 59.5 17.5t45.5 25.5t29.5 29t10.5 29q0 15 -13 25.5
t-43 10.5q-45 0 -69.5 -26t-24.5 -75q0 -19 5 -36z" />
    <glyph glyph-name="ecircumflex" unicode="&#xea;" 
d="M191 708h146l89 -155h-146l-14 142h-2l-14 -142h-148zM287 0q-129 0 -200.5 69t-71.5 194q0 124 68 193t192 69q55 0 98 -13.5t73 -37.5t46 -57t16 -71q0 -39 -16.5 -77.5t-46.5 -59.5h-245q23 -44 114 -44h171v-165h-198zM195 223q33 6 59.5 17.5t45.5 25.5t29.5 29
t10.5 29q0 15 -13 25.5t-43 10.5q-45 0 -69.5 -26t-24.5 -75q0 -19 5 -36z" />
    <glyph glyph-name="edieresis" unicode="&#xeb;" 
d="M115 720h140v-167h-140v167zM276 720h140v-167h-140v167zM287 0q-129 0 -200.5 69t-71.5 194q0 124 68 193t192 69q55 0 98 -13.5t73 -37.5t46 -57t16 -71q0 -39 -16.5 -77.5t-46.5 -59.5h-245q23 -44 114 -44h171v-165h-198zM195 223q33 6 59.5 17.5t45.5 25.5t29.5 29
t10.5 29q0 15 -13 25.5t-43 10.5q-45 0 -69.5 -26t-24.5 -75q0 -19 5 -36z" />
    <glyph glyph-name="igrave" unicode="&#xec;" horiz-adv-x="208" 
d="M-22 708h163l68 -155h-114zM16 520h175v-520h-175v520z" />
    <glyph glyph-name="iacute" unicode="&#xed;" horiz-adv-x="208" 
d="M65 708h163l-117 -155h-114zM16 520h175v-520h-175v520z" />
    <glyph glyph-name="icircumflex" unicode="&#xee;" horiz-adv-x="208" 
d="M29 708h146l89 -155h-146l-14 142h-2l-14 -142h-148zM16 520h175v-520h-175v520z" />
    <glyph glyph-name="idieresis" unicode="&#xef;" horiz-adv-x="208" 
d="M-47 720h140v-167h-140v167zM114 720h140v-167h-140v167zM16 520h175v-520h-175v520z" />
    <glyph glyph-name="eth" unicode="&#xf0;" horiz-adv-x="544" 
d="M271 -7q-125 0 -190 68t-65 198q0 106 45.5 162t130.5 56q66 0 109.5 -32.5t56.5 -92.5h5q-2 48 -24 93t-56 84l-92 -34l-43 106l42 15q-35 26 -69.5 47.5t-64.5 36.5h252q11 -6 21 -12t21 -14l86 31l43 -106l-37 -13q38 -50 62 -121t24 -173q0 -73 -14.5 -128.5
t-45.5 -93.5t-80 -57.5t-117 -19.5zM272 153q23 0 38.5 5.5t24.5 18t13 34t4 53.5q0 62 -16.5 84.5t-63.5 22.5q-46 0 -63.5 -23.5t-17.5 -85.5q0 -63 17.5 -86t63.5 -23z" />
    <glyph glyph-name="ntilde" unicode="&#xf1;" horiz-adv-x="536" 
d="M117 554q0 86 22 120.5t78 34.5q18 0 33.5 -3.5t29.5 -11.5q11 -6 23 -10t24 -4q17 0 28.5 8t11.5 21h52q0 -43 -5 -73t-16 -48t-28.5 -26t-43.5 -8q-39 0 -73 17q-11 5 -22 8.5t-22 3.5q-17 0 -28.5 -8t-11.5 -21h-52zM26 520h175v-99h5q14 44 48 74t95 30q74 0 117 -49
t43 -147v-329h-175v340q0 66 -67 66q-66 0 -66 -66v-340h-175v520z" />
    <glyph glyph-name="ograve" unicode="&#xf2;" horiz-adv-x="546" 
d="M152 708h163l68 -155h-114zM272 -5q-121 0 -188.5 70.5t-67.5 195.5t67.5 194.5t188.5 69.5q60 0 108 -18t81 -52.5t50.5 -83t17.5 -110.5t-17.5 -111.5t-50.5 -84t-81 -52.5t-108 -18zM273 160q81 0 81 100q0 51 -19.5 75.5t-61.5 24.5q-43 0 -62.5 -24t-19.5 -76
q0 -51 19.5 -75.5t62.5 -24.5z" />
    <glyph glyph-name="oacute" unicode="&#xf3;" horiz-adv-x="546" 
d="M239 708h163l-117 -155h-114zM272 -5q-121 0 -188.5 70.5t-67.5 195.5t67.5 194.5t188.5 69.5q60 0 108 -18t81 -52.5t50.5 -83t17.5 -110.5t-17.5 -111.5t-50.5 -84t-81 -52.5t-108 -18zM273 160q81 0 81 100q0 51 -19.5 75.5t-61.5 24.5q-43 0 -62.5 -24t-19.5 -76
q0 -51 19.5 -75.5t62.5 -24.5z" />
    <glyph glyph-name="ocircumflex" unicode="&#xf4;" horiz-adv-x="546" 
d="M203 708h146l89 -155h-146l-14 142h-2l-14 -142h-148zM272 -5q-121 0 -188.5 70.5t-67.5 195.5t67.5 194.5t188.5 69.5q60 0 108 -18t81 -52.5t50.5 -83t17.5 -110.5t-17.5 -111.5t-50.5 -84t-81 -52.5t-108 -18zM273 160q81 0 81 100q0 51 -19.5 75.5t-61.5 24.5
q-43 0 -62.5 -24t-19.5 -76q0 -51 19.5 -75.5t62.5 -24.5z" />
    <glyph glyph-name="otilde" unicode="&#xf5;" horiz-adv-x="546" 
d="M121 553q0 86 22 120.5t78 34.5q18 0 33.5 -3.5t29.5 -11.5q11 -6 23 -10t24 -4q17 0 28.5 8t11.5 21h52q0 -43 -5 -73t-16 -48t-28.5 -26t-43.5 -8q-39 0 -73 17q-11 5 -22 8.5t-22 3.5q-17 0 -28.5 -8t-11.5 -21h-52zM272 -5q-121 0 -188.5 70.5t-67.5 195.5
t67.5 194.5t188.5 69.5q60 0 108 -18t81 -52.5t50.5 -83t17.5 -110.5t-17.5 -111.5t-50.5 -84t-81 -52.5t-108 -18zM273 160q81 0 81 100q0 51 -19.5 75.5t-61.5 24.5q-43 0 -62.5 -24t-19.5 -76q0 -51 19.5 -75.5t62.5 -24.5z" />
    <glyph glyph-name="odieresis" unicode="&#xf6;" horiz-adv-x="546" 
d="M127 720h140v-167h-140v167zM288 720h140v-167h-140v167zM272 -5q-121 0 -188.5 70.5t-67.5 195.5t67.5 194.5t188.5 69.5q60 0 108 -18t81 -52.5t50.5 -83t17.5 -110.5t-17.5 -111.5t-50.5 -84t-81 -52.5t-108 -18zM273 160q81 0 81 100q0 51 -19.5 75.5t-61.5 24.5
q-43 0 -62.5 -24t-19.5 -76q0 -51 19.5 -75.5t62.5 -24.5z" />
    <glyph glyph-name="divide" unicode="&#xf7;" horiz-adv-x="535" 
d="M355 548v-151h-175v151h175zM17 377h502v-175h-502v175zM355 182v-151h-175v151h175z" />
    <glyph glyph-name="oslash" unicode="&#xf8;" horiz-adv-x="556" 
d="M277 -7q-26 0 -50 3l-8 -16h-133l27 60q-47 34 -72 89.5t-25 131.5q0 127 69.5 196.5t191.5 69.5q15 0 29 -1t28 -3l8 17h133l-29 -63q45 -34 69 -88.5t24 -127.5q0 -128 -70 -198t-192 -70zM267 377q-49 -5 -72.5 -36.5t-23.5 -79.5q0 -36 14 -64zM294 144
q45 6 67.5 40.5t22.5 76.5q0 31 -11 56z" />
    <glyph glyph-name="ugrave" unicode="&#xf9;" 
d="M132 708h163l68 -155h-114zM175 -5q-74 0 -117 49t-43 147v329h175v-340q0 -66 67 -66q66 0 66 66v340h175v-520h-175v99h-5q-14 -44 -48 -74t-95 -30z" />
    <glyph glyph-name="uacute" unicode="&#xfa;" 
d="M219 708h163l-117 -155h-114zM175 -5q-74 0 -117 49t-43 147v329h175v-340q0 -66 67 -66q66 0 66 66v340h175v-520h-175v99h-5q-14 -44 -48 -74t-95 -30z" />
    <glyph glyph-name="ucircumflex" unicode="&#xfb;" 
d="M183 708h146l89 -155h-146l-14 142h-2l-14 -142h-148zM175 -5q-74 0 -117 49t-43 147v329h175v-340q0 -66 67 -66q66 0 66 66v340h175v-520h-175v99h-5q-14 -44 -48 -74t-95 -30z" />
    <glyph glyph-name="udieresis" unicode="&#xfc;" 
d="M107 720h140v-167h-140v167zM268 720h140v-167h-140v167zM175 -5q-74 0 -117 49t-43 147v329h175v-340q0 -66 67 -66q66 0 66 66v340h175v-520h-175v99h-5q-14 -44 -48 -74t-95 -30z" />
    <glyph glyph-name="yacute" unicode="&#xfd;" horiz-adv-x="544" 
d="M219 708h163l-117 -155h-114zM15 520h175v-320q0 -40 43 -40q40 0 49 39l71 321h175l-133 -576q-20 -84 -74 -127.5t-140 -43.5h-166l37 165h128q40 0 49 39l41 168h-5l-53 -91q-34 -59 -104 -59q-45 0 -69 24t-24 69v432z" />
    <glyph glyph-name="thorn" unicode="&#xfe;" horiz-adv-x="546" 
d="M16 720h175v-311h6q17 64 57 90t90 26q91 0 138 -70t47 -194q0 -125 -47 -195.5t-139 -70.5q-50 0 -89 26t-57 90h-6v-311h-175v920zM266 126q23 0 39.5 6t27 21t16 41t5.5 66t-5 66t-16 41t-27.5 21t-39.5 6q-75 0 -75 -75v-118q0 -75 75 -75z" />
    <glyph glyph-name="ydieresis" unicode="&#xff;" horiz-adv-x="544" 
d="M107 720h140v-167h-140v167zM268 720h140v-167h-140v167zM15 520h175v-320q0 -40 43 -40q40 0 49 39l71 321h175l-133 -576q-20 -84 -74 -127.5t-140 -43.5h-166l37 165h128q40 0 49 39l41 168h-5l-53 -91q-34 -59 -104 -59q-45 0 -69 24t-24 69v432z" />
    <glyph glyph-name="Amacron" unicode="&#x100;" horiz-adv-x="667" 
d="M181 888h303v-155h-303v155zM174 700h317l159 -700h-180l-30 141h-214l-30 -141h-180zM404 306l-69 319h-5l-68 -319h142z" />
    <glyph glyph-name="amacron" unicode="&#x101;" horiz-adv-x="538" 
d="M122 708h303v-155h-303v155zM173 -7q-73 0 -115 41.5t-42 108.5q0 41 16.5 76.5t48 63t77 46.5t102.5 26v5h-211v160h307q76 0 115.5 -39.5t39.5 -115.5v-365h-175v101h-5q-15 -51 -56.5 -79.5t-101.5 -28.5zM260 116q76 0 76 70v134q0 40 -40 40h-11q-20 -16 -39 -35.5
t-34 -41t-24 -45.5t-9 -49q0 -36 21 -54.5t60 -18.5z" />
    <glyph glyph-name="Abreve" unicode="&#x102;" horiz-adv-x="667" 
d="M333 726q-37 0 -63.5 12.5t-42.5 34.5t-23.5 51.5t-7.5 63.5h81q0 -29 12 -47.5t44 -18.5t44 18.5t12 47.5h81q0 -34 -7.5 -63.5t-23.5 -51.5t-42 -34.5t-64 -12.5zM174 700h317l159 -700h-180l-30 141h-214l-30 -141h-180zM404 306l-69 319h-5l-68 -319h142z" />
    <glyph glyph-name="abreve" unicode="&#x103;" horiz-adv-x="538" 
d="M274 546q-37 0 -63.5 12.5t-42.5 34.5t-23.5 51.5t-7.5 63.5h81q0 -29 12 -47.5t44 -18.5t44 18.5t12 47.5h81q0 -34 -7.5 -63.5t-23.5 -51.5t-42 -34.5t-64 -12.5zM173 -7q-73 0 -115 41.5t-42 108.5q0 41 16.5 76.5t48 63t77 46.5t102.5 26v5h-211v160h307
q76 0 115.5 -39.5t39.5 -115.5v-365h-175v101h-5q-15 -51 -56.5 -79.5t-101.5 -28.5zM260 116q76 0 76 70v134q0 40 -40 40h-11q-20 -16 -39 -35.5t-34 -41t-24 -45.5t-9 -49q0 -36 21 -54.5t60 -18.5z" />
    <glyph glyph-name="Aogonek" unicode="&#x104;" horiz-adv-x="667" 
d="M174 700h317l159 -700h-57q-38 -35 -38 -75q0 -23 12 -36.5t32 -15.5v-83q-69 0 -108.5 27.5t-39.5 75.5q0 59 56 107h-37l-30 141h-214l-30 -141h-180zM404 306l-69 319h-5l-68 -319h142z" />
    <glyph glyph-name="aogonek" unicode="&#x105;" horiz-adv-x="538" 
d="M173 -7q-73 0 -115 41.5t-42 108.5q0 41 16.5 76.5t48 63t77 46.5t102.5 26v5h-211v160h307q76 0 115.5 -39.5t39.5 -115.5v-365h-45q-38 -35 -38 -75q0 -23 12 -36.5t32 -15.5v-83q-69 0 -108.5 27.5t-39.5 75.5q0 59 56 107h-44v101h-5q-15 -51 -56.5 -79.5
t-101.5 -28.5zM260 116q76 0 76 70v134q0 40 -40 40h-11q-20 -16 -39 -35.5t-34 -41t-24 -45.5t-9 -49q0 -36 21 -54.5t60 -18.5z" />
    <glyph glyph-name="Cacute" unicode="&#x106;" horiz-adv-x="681" 
d="M309 888h163l-117 -155h-114zM347 -7q-161 0 -246 91.5t-85 265.5t85 265.5t246 91.5q146 0 227 -73.5t92 -213.5h-175q-9 63 -44 92.5t-100 29.5q-81 0 -118.5 -46t-37.5 -146t37.5 -146t118.5 -46q128 0 144 122h175q-13 -140 -93.5 -213.5t-225.5 -73.5z" />
    <glyph glyph-name="cacute" unicode="&#x107;" horiz-adv-x="437" 
d="M238 708h163l-117 -155h-114zM276 0q-125 0 -192.5 69.5t-67.5 193.5t68 193t193 69q30 0 68.5 -5t74.5 -17v-164q-34 12 -59.5 16.5t-51.5 4.5q-65 0 -91.5 -23t-26.5 -74t26.5 -74.5t89.5 -23.5h113v-165h-144z" />
    <glyph glyph-name="Ccircumflex" unicode="&#x108;" horiz-adv-x="681" 
d="M274 888h146l89 -155h-146l-14 142h-2l-14 -142h-148zM347 -7q-161 0 -246 91.5t-85 265.5t85 265.5t246 91.5q146 0 227 -73.5t92 -213.5h-175q-9 63 -44 92.5t-100 29.5q-81 0 -118.5 -46t-37.5 -146t37.5 -146t118.5 -46q128 0 144 122h175q-13 -140 -93.5 -213.5
t-225.5 -73.5z" />
    <glyph glyph-name="ccircumflex" unicode="&#x109;" horiz-adv-x="437" 
d="M202 708h146l89 -155h-146l-14 142h-2l-14 -142h-148zM276 0q-125 0 -192.5 69.5t-67.5 193.5t68 193t193 69q30 0 68.5 -5t74.5 -17v-164q-34 12 -59.5 16.5t-51.5 4.5q-65 0 -91.5 -23t-26.5 -74t26.5 -74.5t89.5 -23.5h113v-165h-144z" />
    <glyph glyph-name="Cdotaccent" unicode="&#x10a;" horiz-adv-x="681" 
d="M259 888h175v-155h-175v155zM347 -7q-161 0 -246 91.5t-85 265.5t85 265.5t246 91.5q146 0 227 -73.5t92 -213.5h-175q-9 63 -44 92.5t-100 29.5q-81 0 -118.5 -46t-37.5 -146t37.5 -146t118.5 -46q128 0 144 122h175q-13 -140 -93.5 -213.5t-225.5 -73.5z" />
    <glyph glyph-name="cdotaccent" unicode="&#x10b;" horiz-adv-x="437" 
d="M188 720h175v-167h-175v167zM276 0q-125 0 -192.5 69.5t-67.5 193.5t68 193t193 69q30 0 68.5 -5t74.5 -17v-164q-34 12 -59.5 16.5t-51.5 4.5q-65 0 -91.5 -23t-26.5 -74t26.5 -74.5t89.5 -23.5h113v-165h-144z" />
    <glyph glyph-name="Ccaron" unicode="&#x10c;" horiz-adv-x="681" 
d="M191 888h148l14 -142h2l14 142h146l-89 -155h-146zM347 -7q-161 0 -246 91.5t-85 265.5t85 265.5t246 91.5q146 0 227 -73.5t92 -213.5h-175q-9 63 -44 92.5t-100 29.5q-81 0 -118.5 -46t-37.5 -146t37.5 -146t118.5 -46q128 0 144 122h175q-13 -140 -93.5 -213.5
t-225.5 -73.5z" />
    <glyph glyph-name="ccaron" unicode="&#x10d;" horiz-adv-x="437" 
d="M114 701h148l14 -142h2l14 142h146l-89 -155h-146zM276 0q-125 0 -192.5 69.5t-67.5 193.5t68 193t193 69q30 0 68.5 -5t74.5 -17v-164q-34 12 -59.5 16.5t-51.5 4.5q-65 0 -91.5 -23t-26.5 -74t26.5 -74.5t89.5 -23.5h113v-165h-144z" />
    <glyph glyph-name="Dcaron" unicode="&#x10e;" horiz-adv-x="610" 
d="M144 888h148l14 -142h2l14 142h146l-89 -155h-146zM26 700h242q75 0 135 -23.5t102 -68t65 -108t23 -144.5q0 -83 -23 -149t-65.5 -112t-102.5 -70.5t-134 -24.5h-242v700zM268 165q69 0 109.5 49t40.5 139q0 91 -39.5 136.5t-110.5 45.5h-67v-370h67z" />
    <glyph glyph-name="dcaron" unicode="&#x10f;" horiz-adv-x="758" 
d="M354 111h-6q-18 -64 -57 -90t-89 -26q-92 0 -139 70.5t-47 195.5q0 124 47 194t138 70q50 0 90 -26t57 -90h6v311h175v-720h-175v111zM573 554v146h175v-145l-60 -142h-145zM279 126q75 0 75 75v118q0 75 -75 75q-23 0 -39.5 -6t-27.5 -21t-16 -41t-5 -66t5.5 -66t16 -41
t27.5 -21t39 -6z" />
    <glyph glyph-name="Dcroat" unicode="&#x110;" horiz-adv-x="610" 
d="M-4 427h30v273h242q75 0 135 -23.5t102 -68t65 -108t23 -144.5q0 -83 -23 -149t-65.5 -112t-102.5 -70.5t-134 -24.5h-242v252h-30v175zM268 165q69 0 109.5 49t40.5 139q0 91 -39.5 136.5t-110.5 45.5h-67v-108h30v-175h-30v-87h67z" />
    <glyph glyph-name="dcroat" unicode="&#x111;" horiz-adv-x="546" 
d="M266 698h88v22h175v-22h20v-155h-20v-543h-175v111h-6q-18 -64 -57 -90t-89 -26q-92 0 -139 70.5t-47 195.5q0 124 47 194t138 70q50 0 90 -26t57 -90h6v134h-88v155zM279 126q75 0 75 75v118q0 75 -75 75q-23 0 -39.5 -6t-27.5 -21t-16 -41t-5 -66t5.5 -66t16 -41
t27.5 -21t39 -6z" />
    <glyph glyph-name="Emacron" unicode="&#x112;" horiz-adv-x="530" 
d="M114 888h303v-155h-303v155zM26 700h487v-165h-312v-97h292v-165h-292v-108h312v-165h-487v700z" />
    <glyph glyph-name="emacron" unicode="&#x113;" 
d="M113 708h303v-155h-303v155zM287 0q-129 0 -200.5 69t-71.5 194q0 124 68 193t192 69q55 0 98 -13.5t73 -37.5t46 -57t16 -71q0 -39 -16.5 -77.5t-46.5 -59.5h-245q23 -44 114 -44h171v-165h-198zM195 223q33 6 59.5 17.5t45.5 25.5t29.5 29t10.5 29q0 15 -13 25.5
t-43 10.5q-45 0 -69.5 -26t-24.5 -75q0 -19 5 -36z" />
    <glyph glyph-name="Ebreve" unicode="&#x114;" horiz-adv-x="530" 
d="M265 726q-37 0 -63.5 12.5t-42.5 34.5t-23.5 51.5t-7.5 63.5h81q0 -29 12 -47.5t44 -18.5t44 18.5t12 47.5h81q0 -34 -7.5 -63.5t-23.5 -51.5t-42 -34.5t-64 -12.5zM26 700h487v-165h-312v-97h292v-165h-292v-108h312v-165h-487v700z" />
    <glyph glyph-name="ebreve" unicode="&#x115;" 
d="M265 546q-37 0 -63.5 12.5t-42.5 34.5t-23.5 51.5t-7.5 63.5h81q0 -29 12 -47.5t44 -18.5t44 18.5t12 47.5h81q0 -34 -7.5 -63.5t-23.5 -51.5t-42 -34.5t-64 -12.5zM287 0q-129 0 -200.5 69t-71.5 194q0 124 68 193t192 69q55 0 98 -13.5t73 -37.5t46 -57t16 -71
q0 -39 -16.5 -77.5t-46.5 -59.5h-245q23 -44 114 -44h171v-165h-198zM195 223q33 6 59.5 17.5t45.5 25.5t29.5 29t10.5 29q0 15 -13 25.5t-43 10.5q-45 0 -69.5 -26t-24.5 -75q0 -19 5 -36z" />
    <glyph glyph-name="Edotaccent" unicode="&#x116;" horiz-adv-x="530" 
d="M178 888h175v-155h-175v155zM26 700h487v-165h-312v-97h292v-165h-292v-108h312v-165h-487v700z" />
    <glyph glyph-name="edotaccent" unicode="&#x117;" 
d="M177 720h175v-167h-175v167zM287 0q-129 0 -200.5 69t-71.5 194q0 124 68 193t192 69q55 0 98 -13.5t73 -37.5t46 -57t16 -71q0 -39 -16.5 -77.5t-46.5 -59.5h-245q23 -44 114 -44h171v-165h-198zM195 223q33 6 59.5 17.5t45.5 25.5t29.5 29t10.5 29q0 15 -13 25.5
t-43 10.5q-45 0 -69.5 -26t-24.5 -75q0 -19 5 -36z" />
    <glyph glyph-name="Eogonek" unicode="&#x118;" horiz-adv-x="530" 
d="M26 700h487v-165h-312v-97h292v-165h-292v-108h312v-165h-53q-38 -35 -38 -75q0 -23 12 -36.5t32 -15.5v-83q-69 0 -108.5 27.5t-39.5 75.5q0 59 56 107h-348v700z" />
    <glyph glyph-name="eogonek" unicode="&#x119;" 
d="M229 4q-103 15 -158.5 82t-55.5 177q0 124 68 193t192 69q55 0 98 -13.5t73 -37.5t46 -57t16 -71q0 -39 -16.5 -77.5t-46.5 -59.5h-245q23 -44 114 -44h171v-165h-175q-38 -35 -38 -75q0 -23 12 -36.5t32 -15.5v-83q-69 0 -108.5 27.5t-39.5 75.5q0 30 16 58.5t45 52.5z
M195 223q33 6 59.5 17.5t45.5 25.5t29.5 29t10.5 29q0 15 -13 25.5t-43 10.5q-45 0 -69.5 -26t-24.5 -75q0 -19 5 -36z" />
    <glyph glyph-name="Ecaron" unicode="&#x11a;" horiz-adv-x="530" 
d="M103 888h148l14 -142h2l14 142h146l-89 -155h-146zM26 700h487v-165h-312v-97h292v-165h-292v-108h312v-165h-487v700z" />
    <glyph glyph-name="ecaron" unicode="&#x11b;" 
d="M103 701h148l14 -142h2l14 142h146l-89 -155h-146zM287 0q-129 0 -200.5 69t-71.5 194q0 124 68 193t192 69q55 0 98 -13.5t73 -37.5t46 -57t16 -71q0 -39 -16.5 -77.5t-46.5 -59.5h-245q23 -44 114 -44h171v-165h-198zM195 223q33 6 59.5 17.5t45.5 25.5t29.5 29
t10.5 29q0 15 -13 25.5t-43 10.5q-45 0 -69.5 -26t-24.5 -75q0 -19 5 -36z" />
    <glyph glyph-name="Gcircumflex" unicode="&#x11c;" horiz-adv-x="686" 
d="M272 888h146l89 -155h-146l-14 142h-2l-14 -142h-148zM669 0h-170v208h-5l-31 -169q-7 -39 -47 -39h-69q-161 0 -246 90.5t-85 263.5q0 172 85 262.5t246 90.5q151 0 234 -79t88 -228h-176q-5 73 -40.5 107.5t-105.5 34.5q-81 0 -118.5 -45t-37.5 -143t37 -143.5
t118 -45.5h8q19 0 31 7t17 26l3 10h-78v160h197q145 0 145 -145v-223z" />
    <glyph glyph-name="gcircumflex" unicode="&#x11d;" horiz-adv-x="583" 
d="M190 708h132l80 -155h-132l-13 142h-1l-13 -142h-134zM373 505v-8q38 -3 68 -17t51 -38t32.5 -57t11.5 -73q0 -97 -66 -151.5t-185 -54.5q-112 0 -178 49l-4 -10q0 -23 16 -35t53 -16l384 -37v-41q0 -140 -73.5 -213.5t-213.5 -73.5h-254l87 165h379v5l-322 30
q-72 7 -108 40t-36 83l80 113q-62 54 -62 149q0 98 66 152t186 54h78q43 0 51 39l14 78h150l-4 -45q-4 -41 -33 -64t-77 -23h-91zM283 266q43 0 62 11t19 37q0 24 -19 35t-62 11q-42 0 -60 -10.5t-18 -35.5q0 -26 18 -37t60 -11z" />
    <glyph glyph-name="Gbreve" unicode="&#x11e;" horiz-adv-x="686" 
d="M345 726q-37 0 -63.5 12.5t-42.5 34.5t-23.5 51.5t-7.5 63.5h81q0 -29 12 -47.5t44 -18.5t44 18.5t12 47.5h81q0 -34 -7.5 -63.5t-23.5 -51.5t-42 -34.5t-64 -12.5zM669 0h-170v208h-5l-31 -169q-7 -39 -47 -39h-69q-161 0 -246 90.5t-85 263.5q0 172 85 262.5t246 90.5
q151 0 234 -79t88 -228h-176q-5 73 -40.5 107.5t-105.5 34.5q-81 0 -118.5 -45t-37.5 -143t37 -143.5t118 -45.5h8q19 0 31 7t17 26l3 10h-78v160h197q145 0 145 -145v-223z" />
    <glyph glyph-name="gbreve" unicode="&#x11f;" horiz-adv-x="583" 
d="M273 546q-37 0 -63.5 12.5t-42.5 34.5t-23.5 51.5t-7.5 63.5h81q0 -29 12 -47.5t44 -18.5t44 18.5t12 47.5h81q0 -34 -7.5 -63.5t-23.5 -51.5t-42 -34.5t-64 -12.5zM373 505v-8q38 -3 68 -17t51 -38t32.5 -57t11.5 -73q0 -97 -66 -151.5t-185 -54.5q-112 0 -178 49
l-4 -10q0 -23 16 -35t53 -16l384 -37v-41q0 -140 -73.5 -213.5t-213.5 -73.5h-254l87 165h379v5l-322 30q-72 7 -108 40t-36 83l80 113q-62 54 -62 149q0 98 66 152t186 54h58q43 0 51 39l14 78h170l-4 -45q-4 -41 -33 -64t-77 -23h-91zM283 266q43 0 62 11t19 37
q0 24 -19 35t-62 11q-42 0 -60 -10.5t-18 -35.5q0 -26 18 -37t60 -11z" />
    <glyph glyph-name="Gdotaccent" unicode="&#x120;" horiz-adv-x="686" 
d="M257 888h175v-155h-175v155zM669 0h-170v208h-5l-31 -169q-7 -39 -47 -39h-69q-161 0 -246 90.5t-85 263.5q0 172 85 262.5t246 90.5q151 0 234 -79t88 -228h-176q-5 73 -40.5 107.5t-105.5 34.5q-81 0 -118.5 -45t-37.5 -143t37 -143.5t118 -45.5h8q19 0 31 7t17 26
l3 10h-78v160h197q145 0 145 -145v-223z" />
    <glyph glyph-name="gdotaccent" unicode="&#x121;" horiz-adv-x="583" 
d="M195 720h175v-167h-175v167zM373 505v-8q38 -3 68 -17t51 -38t32.5 -57t11.5 -73q0 -97 -66 -151.5t-185 -54.5q-112 0 -178 49l-4 -10q0 -23 16 -35t53 -16l384 -37v-41q0 -140 -73.5 -213.5t-213.5 -73.5h-254l87 165h379v5l-322 30q-72 7 -108 40t-36 83l80 113
q-62 54 -62 149q0 98 66 152t186 54h48q43 0 51 39l14 78h180l-4 -45q-4 -41 -33 -64t-77 -23h-91zM283 266q43 0 62 11t19 37q0 24 -19 35t-62 11q-42 0 -60 -10.5t-18 -35.5q0 -26 18 -37t60 -11z" />
    <glyph glyph-name="uni0122" unicode="&#x122;" horiz-adv-x="686" 
d="M669 0h-170v208h-5l-31 -169q-7 -39 -47 -39h-69q-161 0 -246 90.5t-85 263.5q0 172 85 262.5t246 90.5q151 0 234 -79t88 -228h-176q-5 73 -40.5 107.5t-105.5 34.5q-81 0 -118.5 -45t-37.5 -143t37 -143.5t118 -45.5h8q19 0 31 7t17 26l3 10h-78v160h197
q145 0 145 -145v-223zM257 -122v102h175v-101l-60 -99h-145z" />
    <glyph glyph-name="uni0123" unicode="&#x123;" horiz-adv-x="583" 
d="M349 641v-102h-175v101l60 99h145zM373 505v-8q38 -3 68 -17t51 -38t32.5 -57t11.5 -73q0 -97 -66 -151.5t-185 -54.5q-112 0 -178 49l-4 -10q0 -23 16 -35t53 -16l384 -37v-41q0 -140 -73.5 -213.5t-213.5 -73.5h-254l87 165h379v5l-322 30q-72 7 -108 40t-36 83l80 113
q-62 54 -62 149q0 98 66 152t186 54h48q43 0 51 39l14 78h180l-4 -45q-4 -41 -33 -64t-77 -23h-91zM283 266q43 0 62 11t19 37q0 24 -19 35t-62 11q-42 0 -60 -10.5t-18 -35.5q0 -26 18 -37t60 -11z" />
    <glyph glyph-name="Hcircumflex" unicode="&#x124;" horiz-adv-x="624" 
d="M239 888h146l89 -155h-146l-14 142h-2l-14 -142h-148zM26 700h175v-280h221v280h175v-700h-175v255h-221v-255h-175v700z" />
    <glyph glyph-name="hcircumflex" unicode="&#x125;" horiz-adv-x="536" 
d="M47 888h146l89 -155h-146l-14 142h-2l-14 -142h-148zM26 720h175v-299h5q14 44 48 74t95 30q74 0 117 -49t43 -147v-329h-175v340q0 66 -67 66q-66 0 -66 -66v-340h-175v720z" />
    <glyph glyph-name="Hbar" unicode="&#x126;" horiz-adv-x="624" 
d="M26 484h-16v155h16v61h175v-61h221v61h175v-61h16v-155h-16v-484h-175v255h-221v-255h-175v484zM422 420v64h-221v-64h221z" />
    <glyph glyph-name="hbar" unicode="&#x127;" horiz-adv-x="536" 
d="M26 537h-17v155h17v28h175v-28h71v-155h-71v-116h5q14 44 48 74t95 30q74 0 117 -49t43 -147v-329h-175v340q0 66 -67 66q-66 0 -66 -66v-340h-175v537z" />
    <glyph glyph-name="Itilde" unicode="&#x128;" horiz-adv-x="238" 
d="M-24 734q0 86 22 120.5t78 34.5q18 0 33.5 -3.5t29.5 -11.5q11 -6 23 -10t24 -4q17 0 28.5 8t11.5 21h52q0 -43 -5 -73t-16 -48t-28.5 -26t-43.5 -8q-39 0 -73 17q-11 5 -22 8.5t-22 3.5q-17 0 -28.5 -8t-11.5 -21h-52zM26 700h185v-700h-185v700z" />
    <glyph glyph-name="itilde" unicode="&#x129;" horiz-adv-x="208" 
d="M-53 553q0 86 22 120.5t78 34.5q18 0 33.5 -3.5t29.5 -11.5q11 -6 23 -10t24 -4q17 0 28.5 8t11.5 21h52q0 -43 -5 -73t-16 -48t-28.5 -26t-43.5 -8q-39 0 -73 17q-11 5 -22 8.5t-22 3.5q-17 0 -28.5 -8t-11.5 -21h-52zM16 520h175v-520h-175v520z" />
    <glyph glyph-name="Imacron" unicode="&#x12a;" horiz-adv-x="238" 
d="M-36 888h303v-155h-303v155zM26 700h185v-700h-185v700z" />
    <glyph glyph-name="imacron" unicode="&#x12b;" horiz-adv-x="208" 
d="M-49 708h303v-155h-303v155zM16 520h175v-520h-175v520z" />
    <glyph glyph-name="Ibreve" unicode="&#x12c;" horiz-adv-x="238" 
d="M116 726q-37 0 -63.5 12.5t-42.5 34.5t-23.5 51.5t-7.5 63.5h81q0 -29 12 -47.5t44 -18.5t44 18.5t12 47.5h81q0 -34 -7.5 -63.5t-23.5 -51.5t-42 -34.5t-64 -12.5zM26 700h185v-700h-185v700z" />
    <glyph glyph-name="ibreve" unicode="&#x12d;" horiz-adv-x="208" 
d="M103 546q-37 0 -63.5 12.5t-42.5 34.5t-23.5 51.5t-7.5 63.5h81q0 -29 12 -47.5t44 -18.5t44 18.5t12 47.5h81q0 -34 -7.5 -63.5t-23.5 -51.5t-42 -34.5t-64 -12.5zM16 520h175v-520h-175v520z" />
    <glyph glyph-name="Iogonek" unicode="&#x12e;" horiz-adv-x="238" 
d="M26 700h185v-700h-49q-38 -35 -38 -75q0 -23 12 -36.5t32 -15.5v-83q-69 0 -108.5 27.5t-39.5 75.5q0 59 56 107h-50v700z" />
    <glyph glyph-name="iogonek" unicode="&#x12f;" horiz-adv-x="228" 
d="M26 720h175v-167h-175v167zM26 520h175v-520h-42q-38 -35 -38 -75q0 -23 12 -36.5t32 -15.5v-83q-69 0 -108.5 27.5t-39.5 75.5q0 59 56 107h-47v520z" />
    <glyph glyph-name="Idotaccent" unicode="&#x130;" horiz-adv-x="238" 
d="M28 888h175v-155h-175v155zM26 700h185v-700h-185v700z" />
    <glyph glyph-name="dotlessi" unicode="&#x131;" horiz-adv-x="208" 
d="M16 520h175v-520h-175v520z" />
    <glyph glyph-name="IJ" unicode="&#x132;" horiz-adv-x="565" 
d="M26 700h185v-700h-185v700zM254 0v160h73q36 0 36 36v338h-109v166h284v-512q0 -92 -48 -140t-140 -48h-96z" />
    <glyph glyph-name="ij" unicode="&#x133;" horiz-adv-x="456" 
d="M26 720h175v-167h-175v167zM254 720h175v-167h-175v167zM26 520h175v-520h-175v520zM115 -221v165h64q75 0 75 75v501h175v-495q0 -121 -62.5 -183.5t-183.5 -62.5h-68z" />
    <glyph glyph-name="Jcircumflex" unicode="&#x134;" horiz-adv-x="327" 
d="M85 888h146l89 -155h-146l-14 142h-2l-14 -142h-148zM16 0v160h73q36 0 36 36v338h-109v166h284v-512q0 -92 -48 -140t-140 -48h-96z" />
    <glyph glyph-name="jcircumflex" unicode="&#x135;" horiz-adv-x="228" 
d="M41 708h146l89 -155h-146l-14 142h-2l-14 -142h-148zM-113 -221v165h64q75 0 75 75v501h175v-495q0 -121 -62.5 -183.5t-183.5 -62.5h-68z" />
    <glyph glyph-name="uni0136" unicode="&#x136;" horiz-adv-x="620" 
d="M603 0h-193l-205 343h-4v-343h-175v700h175v-342h5l204 342h193l-152 -260q-52 -89 -156 -89v-2q104 0 156 -89zM183 -122v102h175v-101l-60 -99h-145z" />
    <glyph glyph-name="uni0137" unicode="&#x137;" horiz-adv-x="565" 
d="M550 0h-193l-150 250h-6v-250h-175v720h175v-450h6l150 250h193l-99 -170q-52 -89 -156 -89v-2q104 0 156 -89zM164 -122v102h175v-101l-60 -99h-145z" />
    <glyph glyph-name="kgreenlandic" unicode="&#x138;" horiz-adv-x="565" 
d="M550 0h-193l-150 250h-6v-250h-175v520h175v-250h6l150 250h193l-99 -170q-51 -87 -156 -87v-5q104 0 156 -88z" />
    <glyph glyph-name="Lacute" unicode="&#x139;" horiz-adv-x="530" 
d="M77 888h163l-117 -155h-114zM26 700h175v-540h312v-160h-487v700z" />
    <glyph glyph-name="lacute" unicode="&#x13a;" horiz-adv-x="228" 
d="M74 888h163l-117 -155h-114zM26 720h175v-720h-175v720z" />
    <glyph glyph-name="uni013B" unicode="&#x13b;" horiz-adv-x="530" 
d="M26 700h175v-540h312v-160h-487v700zM184 -122v102h175v-101l-60 -99h-145z" />
    <glyph glyph-name="uni013C" unicode="&#x13c;" horiz-adv-x="228" 
d="M26 720h175v-720h-175v720zM31 -122v102h175v-101l-60 -99h-145z" />
    <glyph glyph-name="Lcaron" unicode="&#x13d;" horiz-adv-x="530" 
d="M26 700h175v-540h312v-160h-487v700zM273 554v146h175v-145l-60 -142h-145z" />
    <glyph glyph-name="lcaron" unicode="&#x13e;" horiz-adv-x="470" 
d="M26 720h175v-720h-175v720zM247 554v146h175v-145l-60 -142h-145z" />
    <glyph glyph-name="Ldot" unicode="&#x13f;" horiz-adv-x="530" 
d="M26 700h175v-540h312v-160h-487v700zM263 437h175v-174h-175v174z" />
    <glyph glyph-name="ldot" unicode="&#x140;" horiz-adv-x="416" 
d="M26 720h175v-720h-175v720zM224 437h175v-174h-175v174z" />
    <glyph glyph-name="Lslash" unicode="&#x141;" horiz-adv-x="530" 
d="M26 222l-31 -20v175l31 20v303h175v-188l100 66v-175l-100 -66v-177h312v-160h-487v222z" />
    <glyph glyph-name="lslash" unicode="&#x142;" horiz-adv-x="228" 
d="M26 222l-31 -20v175l31 20v323h175v-207l31 20v-175l-31 -20v-338h-175v222z" />
    <glyph glyph-name="Nacute" unicode="&#x143;" horiz-adv-x="627" 
d="M274 888h163l-117 -155h-114zM26 700h333l61 -625h5v625h175v-700h-333l-61 625h-5v-625h-175v700z" />
    <glyph glyph-name="nacute" unicode="&#x144;" horiz-adv-x="536" 
d="M235 709h163l-117 -155h-114zM26 520h175v-99h5q14 44 48 74t95 30q74 0 117 -49t43 -147v-329h-175v340q0 66 -67 66q-66 0 -66 -66v-340h-175v520z" />
    <glyph glyph-name="uni0145" unicode="&#x145;" horiz-adv-x="627" 
d="M26 700h333l61 -625h5v625h175v-700h-333l-61 625h-5v-625h-175v700zM226 -122v102h175v-101l-60 -99h-145z" />
    <glyph glyph-name="uni0146" unicode="&#x146;" horiz-adv-x="536" 
d="M26 520h175v-99h5q14 44 48 74t95 30q74 0 117 -49t43 -147v-329h-175v340q0 66 -67 66q-66 0 -66 -66v-340h-175v520zM182 -122v102h175v-101l-60 -99h-145z" />
    <glyph glyph-name="Ncaron" unicode="&#x147;" horiz-adv-x="627" 
d="M156 888h148l14 -142h2l14 142h146l-89 -155h-146zM26 700h333l61 -625h5v625h175v-700h-333l-61 625h-5v-625h-175v700z" />
    <glyph glyph-name="ncaron" unicode="&#x148;" horiz-adv-x="536" 
d="M111 702h148l14 -142h2l14 142h146l-89 -155h-146zM26 520h175v-99h5q14 44 48 74t95 30q74 0 117 -49t43 -147v-329h-175v340q0 66 -67 66q-66 0 -66 -66v-340h-175v520z" />
    <glyph glyph-name="napostrophe" unicode="&#x149;" horiz-adv-x="741" 
d="M231 520h175v-99h5q14 44 48 74t95 30q74 0 117 -49t43 -147v-329h-175v340q0 66 -67 66q-66 0 -66 -66v-340h-175v520zM40 374v146h175v-145l-60 -142h-145z" />
    <glyph glyph-name="Eng" unicode="&#x14a;" horiz-adv-x="627" 
d="M26 700h333l61 -625h5v625h175v-700q0 -102 -62.5 -161.5t-183.5 -59.5h-38v165h34q30 0 51.5 12t21.5 39v5h-156l-61 625h-5v-625h-175v700z" />
    <glyph glyph-name="eng" unicode="&#x14b;" horiz-adv-x="536" 
d="M26 520h175v-99h5q14 44 48 74t95 30q74 0 117 -49t43 -147v-330q0 -101 -62.5 -160.5t-183.5 -59.5h-38v165h34q75 0 75 75v321q0 66 -67 66q-66 0 -66 -66v-340h-175v520z" />
    <glyph glyph-name="Omacron" unicode="&#x14c;" horiz-adv-x="693" 
d="M202 888h303v-155h-303v155zM347 -7q-161 0 -246 91.5t-85 265.5t85 265.5t246 91.5t245 -91t84 -266t-84 -266t-245 -91zM347 158q81 0 117.5 46t36.5 146t-36.5 146t-117.5 46t-118.5 -46t-37.5 -146t37.5 -146t118.5 -46z" />
    <glyph glyph-name="omacron" unicode="&#x14d;" horiz-adv-x="546" 
d="M125 708h303v-155h-303v155zM272 -5q-121 0 -188.5 70.5t-67.5 195.5t67.5 194.5t188.5 69.5q60 0 108 -18t81 -52.5t50.5 -83t17.5 -110.5t-17.5 -111.5t-50.5 -84t-81 -52.5t-108 -18zM273 160q81 0 81 100q0 51 -19.5 75.5t-61.5 24.5q-43 0 -62.5 -24t-19.5 -76
q0 -51 19.5 -75.5t62.5 -24.5z" />
    <glyph glyph-name="Obreve" unicode="&#x14e;" horiz-adv-x="693" 
d="M354 726q-37 0 -63.5 12.5t-42.5 34.5t-23.5 51.5t-7.5 63.5h81q0 -29 12 -47.5t44 -18.5t44 18.5t12 47.5h81q0 -34 -7.5 -63.5t-23.5 -51.5t-42 -34.5t-64 -12.5zM347 -7q-161 0 -246 91.5t-85 265.5t85 265.5t246 91.5t245 -91t84 -266t-84 -266t-245 -91zM347 158
q81 0 117.5 46t36.5 146t-36.5 146t-117.5 46t-118.5 -46t-37.5 -146t37.5 -146t118.5 -46z" />
    <glyph glyph-name="obreve" unicode="&#x14f;" horiz-adv-x="546" 
d="M277 546q-37 0 -63.5 12.5t-42.5 34.5t-23.5 51.5t-7.5 63.5h81q0 -29 12 -47.5t44 -18.5t44 18.5t12 47.5h81q0 -34 -7.5 -63.5t-23.5 -51.5t-42 -34.5t-64 -12.5zM272 -5q-121 0 -188.5 70.5t-67.5 195.5t67.5 194.5t188.5 69.5q60 0 108 -18t81 -52.5t50.5 -83
t17.5 -110.5t-17.5 -111.5t-50.5 -84t-81 -52.5t-108 -18zM273 160q81 0 81 100q0 51 -19.5 75.5t-61.5 24.5q-43 0 -62.5 -24t-19.5 -76q0 -51 19.5 -75.5t62.5 -24.5z" />
    <glyph glyph-name="Ohungarumlaut" unicode="&#x150;" horiz-adv-x="693" 
d="M254 888h128l-117 -155h-79zM394 888h128l-117 -155h-79zM347 -7q-161 0 -246 91.5t-85 265.5t85 265.5t246 91.5t245 -91t84 -266t-84 -266t-245 -91zM347 158q81 0 117.5 46t36.5 146t-36.5 146t-117.5 46t-118.5 -46t-37.5 -146t37.5 -146t118.5 -46z" />
    <glyph glyph-name="ohungarumlaut" unicode="&#x151;" horiz-adv-x="546" 
d="M191 708h128l-117 -155h-79zM331 708h128l-117 -155h-79zM272 -5q-121 0 -188.5 70.5t-67.5 195.5t67.5 194.5t188.5 69.5q60 0 108 -18t81 -52.5t50.5 -83t17.5 -110.5t-17.5 -111.5t-50.5 -84t-81 -52.5t-108 -18zM273 160q81 0 81 100q0 51 -19.5 75.5t-61.5 24.5
q-43 0 -62.5 -24t-19.5 -76q0 -51 19.5 -75.5t62.5 -24.5z" />
    <glyph glyph-name="OE" unicode="&#x152;" horiz-adv-x="950" 
d="M355 0q-78 0 -141 24.5t-107 70t-67.5 110t-23.5 145.5t23.5 145.5t67.5 110t107 70t141 24.5h578v-175h-281q17 -39 26 -83h235v-160h-231q-4 -29 -11.5 -56t-18.5 -51h281v-175h-578zM352 160q35 0 64.5 14t50.5 39t32.5 60t11.5 77t-11.5 77t-32.5 60t-50.5 39
t-64.5 14q-36 0 -65.5 -14t-50.5 -39.5t-33 -60t-12 -76.5t12 -76.5t33 -60t50.5 -39.5t65.5 -14z" />
    <glyph glyph-name="oe" unicode="&#x153;" horiz-adv-x="864" 
d="M272 -5q-121 0 -188.5 70.5t-67.5 195.5t67.5 194.5t188.5 69.5q105 0 170 -53q65 53 174 53q55 0 98 -13.5t73 -37.5t46 -57t16 -71q0 -39 -16.5 -77.5t-46.5 -59.5h-245q23 -44 114 -44h171v-165h-198q-56 0 -101.5 13.5t-79.5 39.5q-32 -28 -76 -43t-99 -15zM536 223
q33 6 59.5 17.5t45.5 25.5t29.5 29t10.5 29q0 15 -13 25.5t-43 10.5q-45 0 -69.5 -26t-24.5 -75q0 -19 5 -36zM273 160q81 0 81 100q0 51 -19.5 75.5t-61.5 24.5q-43 0 -62.5 -24t-19.5 -76q0 -51 19.5 -75.5t62.5 -24.5z" />
    <glyph glyph-name="Racute" unicode="&#x154;" horiz-adv-x="608" 
d="M257 888h163l-117 -155h-114zM201 217v-217h-175v700h323q107 0 168.5 -54.5t61.5 -149.5q0 -91 -56.5 -141t-159.5 -50v-5q168 0 192 -115l38 -185h-178l-38 178q-8 39 -48 39h-128zM357 382q28 0 44.5 21t16.5 56t-16.5 55.5t-44.5 20.5h-156v-153h156z" />
    <glyph glyph-name="racute" unicode="&#x155;" horiz-adv-x="425" 
d="M183 708h163l-117 -155h-114zM26 0v520h175v-185h5q7 94 40 139.5t89 45.5h75v-165h-105q-104 0 -104 -110v-245h-175z" />
    <glyph glyph-name="uni0156" unicode="&#x156;" horiz-adv-x="608" 
d="M201 217v-217h-175v700h323q107 0 168.5 -54.5t61.5 -149.5q0 -91 -56.5 -141t-159.5 -50v-5q168 0 192 -115l38 -185h-178l-38 178q-8 39 -48 39h-128zM357 382q28 0 44.5 21t16.5 56t-16.5 55.5t-44.5 20.5h-156v-153h156zM209 -122v102h175v-101l-60 -99h-145z" />
    <glyph glyph-name="uni0157" unicode="&#x157;" horiz-adv-x="425" 
d="M26 0v520h175v-185h5q7 94 40 139.5t89 45.5h75v-165h-105q-104 0 -104 -110v-245h-175zM27 -122v102h175v-101l-60 -99h-145z" />
    <glyph glyph-name="Rcaron" unicode="&#x158;" horiz-adv-x="608" 
d="M139 888h148l14 -142h2l14 142h146l-89 -155h-146zM201 217v-217h-175v700h323q107 0 168.5 -54.5t61.5 -149.5q0 -91 -56.5 -141t-159.5 -50v-5q168 0 192 -115l38 -185h-178l-38 178q-8 39 -48 39h-128zM357 382q28 0 44.5 21t16.5 56t-16.5 55.5t-44.5 20.5h-156v-153
h156z" />
    <glyph glyph-name="rcaron" unicode="&#x159;" horiz-adv-x="425" 
d="M59 701h148l14 -142h2l14 142h146l-89 -155h-146zM26 0v520h175v-185h5q7 94 40 139.5t89 45.5h75v-165h-105q-104 0 -104 -110v-245h-175z" />
    <glyph glyph-name="Sacute" unicode="&#x15a;" horiz-adv-x="600" 
d="M268 888h163l-117 -155h-114zM324 429q134 -24 196.5 -77.5t62.5 -144.5q0 -107 -71.5 -160.5t-225.5 -53.5q-31 0 -66.5 2t-71.5 6t-70 9.5t-63 11.5v180q68 -21 140 -32.5t134 -11.5q119 0 119 45q0 23 -33 39.5t-107 30.5q-131 24 -192 77t-61 143q0 107 69.5 160.5
t220.5 53.5q61 0 133 -8.5t135 -23.5v-180q-60 22 -131.5 34.5t-137.5 12.5q-59 0 -86.5 -10.5t-27.5 -33.5t31.5 -39.5t102.5 -29.5z" />
    <glyph glyph-name="sacute" unicode="&#x15b;" horiz-adv-x="502" 
d="M213 708h163l-117 -155h-114zM26 165h296q10 0 10 10t-10 10l-166 9q-69 4 -104.5 42.5t-35.5 113.5q0 83 43 126.5t127 43.5h291v-165h-296q-10 0 -10 -10q0 -8 10 -10l166 -9q69 -4 104.5 -42.5t35.5 -113.5q0 -83 -43 -126.5t-127 -43.5h-291v165z" />
    <glyph glyph-name="Scircumflex" unicode="&#x15c;" horiz-adv-x="600" 
d="M233 888h146l89 -155h-146l-14 142h-2l-14 -142h-148zM324 429q134 -24 196.5 -77.5t62.5 -144.5q0 -107 -71.5 -160.5t-225.5 -53.5q-31 0 -66.5 2t-71.5 6t-70 9.5t-63 11.5v180q68 -21 140 -32.5t134 -11.5q119 0 119 45q0 23 -33 39.5t-107 30.5q-131 24 -192 77
t-61 143q0 107 69.5 160.5t220.5 53.5q61 0 133 -8.5t135 -23.5v-180q-60 22 -131.5 34.5t-137.5 12.5q-59 0 -86.5 -10.5t-27.5 -33.5t31.5 -39.5t102.5 -29.5z" />
    <glyph glyph-name="scircumflex" unicode="&#x15d;" horiz-adv-x="502" 
d="M177 708h146l89 -155h-146l-14 142h-2l-14 -142h-148zM26 165h296q10 0 10 10t-10 10l-166 9q-69 4 -104.5 42.5t-35.5 113.5q0 83 43 126.5t127 43.5h291v-165h-296q-10 0 -10 -10q0 -8 10 -10l166 -9q69 -4 104.5 -42.5t35.5 -113.5q0 -83 -43 -126.5t-127 -43.5h-291
v165z" />
    <glyph glyph-name="Scedilla" unicode="&#x15e;" horiz-adv-x="600" 
d="M324 429q134 -24 196.5 -77.5t62.5 -144.5q0 -100 -63 -153.5t-197 -59.5v-5q48 -4 75 -29.5t27 -68.5q0 -28 -11.5 -47.5t-32 -31.5t-47.5 -17t-58 -5v57h8q16 0 26 13t10 35t-10 35.5t-26 13.5h-8v49q-31 0 -65 2.5t-68.5 6.5t-67.5 9t-60 11v180q68 -21 140 -32.5
t134 -11.5q119 0 119 45q0 23 -33 39.5t-107 30.5q-131 24 -192 77t-61 143q0 107 69.5 160.5t220.5 53.5q61 0 133 -8.5t135 -23.5v-180q-60 22 -131.5 34.5t-137.5 12.5q-59 0 -86.5 -10.5t-27.5 -33.5t31.5 -39.5t102.5 -29.5z" />
    <glyph glyph-name="scedilla" unicode="&#x15f;" horiz-adv-x="502" 
d="M26 165h296q10 0 10 10t-10 10l-166 9q-69 4 -104.5 42.5t-35.5 113.5q0 83 43 126.5t127 43.5h291v-165h-296q-10 0 -10 -10q0 -8 10 -10l166 -9q69 -4 104.5 -42.5t35.5 -113.5q0 -83 -43 -126.5t-127 -43.5h-93v-11q48 -4 75 -29.5t27 -68.5q0 -28 -11.5 -47.5
t-32 -31.5t-47.5 -17t-58 -5v57h8q16 0 26 13t10 35t-10 35.5t-26 13.5h-8v56h-151v165z" />
    <glyph glyph-name="Scaron" unicode="&#x160;" horiz-adv-x="600" 
d="M150 888h148l14 -142h2l14 142h146l-89 -155h-146zM324 429q134 -24 196.5 -77.5t62.5 -144.5q0 -107 -71.5 -160.5t-225.5 -53.5q-31 0 -66.5 2t-71.5 6t-70 9.5t-63 11.5v180q68 -21 140 -32.5t134 -11.5q119 0 119 45q0 23 -33 39.5t-107 30.5q-131 24 -192 77
t-61 143q0 107 69.5 160.5t220.5 53.5q61 0 133 -8.5t135 -23.5v-180q-60 22 -131.5 34.5t-137.5 12.5q-59 0 -86.5 -10.5t-27.5 -33.5t31.5 -39.5t102.5 -29.5z" />
    <glyph glyph-name="scaron" unicode="&#x161;" horiz-adv-x="502" 
d="M89 701h148l14 -142h2l14 142h146l-89 -155h-146zM26 165h296q10 0 10 10t-10 10l-166 9q-69 4 -104.5 42.5t-35.5 113.5q0 83 43 126.5t127 43.5h291v-165h-296q-10 0 -10 -10q0 -8 10 -10l166 -9q69 -4 104.5 -42.5t35.5 -113.5q0 -83 -43 -126.5t-127 -43.5h-291v165z
" />
    <glyph glyph-name="uni0162" unicode="&#x162;" horiz-adv-x="600" 
d="M212 535h-196v165h568v-165h-197v-535h-63v-11q48 -4 75 -29.5t27 -68.5q0 -28 -11.5 -47.5t-32 -31.5t-47.5 -17t-58 -5v57h8q16 0 26 13t10 35t-10 35.5t-26 13.5h-8v56h-65v535z" />
    <glyph glyph-name="uni0163" unicode="&#x163;" horiz-adv-x="349" 
d="M81 355h-66v165h67v112h175v-112h76v-165h-76v-157q0 -33 32 -33h45v-165h-84v-11q48 -4 75 -29.5t27 -68.5q0 -28 -11.5 -47.5t-32 -31.5t-47.5 -17t-58 -5v57h8q16 0 26 13t10 35t-10 35.5t-26 13.5h-8v58q-58 8 -90 42.5t-32 94.5v216z" />
    <glyph glyph-name="Tcaron" unicode="&#x164;" horiz-adv-x="600" 
d="M144 888h148l14 -142h2l14 142h146l-89 -155h-146zM212 535h-196v165h568v-165h-197v-535h-175v535z" />
    <glyph glyph-name="tcaron" unicode="&#x165;" horiz-adv-x="591" 
d="M379 554v146h175v-145l-60 -142h-145zM81 355h-66v165h67v112h175v-112h76v-165h-76v-157q0 -33 32 -33h45v-165h-96q-74 0 -115.5 35t-41.5 104v216z" />
    <glyph glyph-name="Tbar" unicode="&#x166;" horiz-adv-x="532" 
d="M178 238h-63v155h63v132h-162v175h499v-175h-162v-132h65v-155h-65v-238h-175v238z" />
    <glyph glyph-name="tbar" unicode="&#x167;" horiz-adv-x="341" 
d="M219 0q-74 0 -115.5 35t-41.5 104v81h-44v155h44v15h-46v130h47v112h175v-112h86v-130h-86v-15h83v-155h-83v-12q0 -33 32 -33h55v-175h-106z" />
    <glyph glyph-name="Utilde" unicode="&#x168;" horiz-adv-x="581" 
d="M150 734q0 86 22 120.5t78 34.5q18 0 33.5 -3.5t29.5 -11.5q11 -6 23 -10t24 -4q17 0 28.5 8t11.5 21h52q0 -43 -5 -73t-16 -48t-28.5 -26t-43.5 -8q-39 0 -73 17q-11 5 -22 8.5t-22 3.5q-17 0 -28.5 -8t-11.5 -21h-52zM191 700v-451q0 -38 25 -64.5t75 -26.5t74 26.5
t24 64.5v451h175v-456q0 -51 -18 -97t-53 -80t-86 -54t-116 -20q-66 0 -117 20t-86 54.5t-53.5 80t-18.5 96.5v456h175z" />
    <glyph glyph-name="utilde" unicode="&#x169;" 
d="M101 553q0 86 22 120.5t78 34.5q18 0 33.5 -3.5t29.5 -11.5q11 -6 23 -10t24 -4q17 0 28.5 8t11.5 21h52q0 -43 -5 -73t-16 -48t-28.5 -26t-43.5 -8q-39 0 -73 17q-11 5 -22 8.5t-22 3.5q-17 0 -28.5 -8t-11.5 -21h-52zM175 -5q-74 0 -117 49t-43 147v329h175v-340
q0 -66 67 -66q66 0 66 66v340h175v-520h-175v99h-5q-14 -44 -48 -74t-95 -30z" />
    <glyph glyph-name="Umacron" unicode="&#x16a;" horiz-adv-x="581" 
d="M138 888h303v-155h-303v155zM191 700v-451q0 -38 25 -64.5t75 -26.5t74 26.5t24 64.5v451h175v-456q0 -51 -18 -97t-53 -80t-86 -54t-116 -20q-66 0 -117 20t-86 54.5t-53.5 80t-18.5 96.5v456h175z" />
    <glyph glyph-name="umacron" unicode="&#x16b;" 
d="M105 708h303v-155h-303v155zM175 -5q-74 0 -117 49t-43 147v329h175v-340q0 -66 67 -66q66 0 66 66v340h175v-520h-175v99h-5q-14 -44 -48 -74t-95 -30z" />
    <glyph glyph-name="Ubreve" unicode="&#x16c;" horiz-adv-x="581" 
d="M290 726q-37 0 -63.5 12.5t-42.5 34.5t-23.5 51.5t-7.5 63.5h81q0 -29 12 -47.5t44 -18.5t44 18.5t12 47.5h81q0 -34 -7.5 -63.5t-23.5 -51.5t-42 -34.5t-64 -12.5zM191 700v-451q0 -38 25 -64.5t75 -26.5t74 26.5t24 64.5v451h175v-456q0 -51 -18 -97t-53 -80t-86 -54
t-116 -20q-66 0 -117 20t-86 54.5t-53.5 80t-18.5 96.5v456h175z" />
    <glyph glyph-name="ubreve" unicode="&#x16d;" 
d="M257 546q-37 0 -63.5 12.5t-42.5 34.5t-23.5 51.5t-7.5 63.5h81q0 -29 12 -47.5t44 -18.5t44 18.5t12 47.5h81q0 -34 -7.5 -63.5t-23.5 -51.5t-42 -34.5t-64 -12.5zM175 -5q-74 0 -117 49t-43 147v329h175v-340q0 -66 67 -66q66 0 66 66v340h175v-520h-175v99h-5
q-14 -44 -48 -74t-95 -30z" />
    <glyph glyph-name="Uring" unicode="&#x16e;" horiz-adv-x="581" 
d="M290 709q-48 0 -81.5 25.5t-33.5 75.5t33.5 75.5t81.5 25.5t81.5 -25.5t33.5 -75.5t-33.5 -75.5t-81.5 -25.5zM290 776q19 0 31.5 9.5t12.5 24.5q0 14 -12.5 24t-31.5 10t-31.5 -10t-12.5 -24q0 -15 12.5 -24.5t31.5 -9.5zM191 700v-451q0 -38 25 -64.5t75 -26.5t74 26.5
t24 64.5v451h175v-456q0 -51 -18 -97t-53 -80t-86 -54t-116 -20q-66 0 -117 20t-86 54.5t-53.5 80t-18.5 96.5v456h175z" />
    <glyph glyph-name="uring" unicode="&#x16f;" 
d="M257 529q-48 0 -81.5 25.5t-33.5 75.5t33.5 75.5t81.5 25.5t81.5 -25.5t33.5 -75.5t-33.5 -75.5t-81.5 -25.5zM257 596q19 0 31.5 9.5t12.5 24.5q0 14 -12.5 24t-31.5 10t-31.5 -10t-12.5 -24q0 -15 12.5 -24.5t31.5 -9.5zM175 -5q-74 0 -117 49t-43 147v329h175v-340
q0 -66 67 -66q66 0 66 66v340h175v-520h-175v99h-5q-14 -44 -48 -74t-95 -30z" />
    <glyph glyph-name="Uhungarumlaut" unicode="&#x170;" horiz-adv-x="581" 
d="M190 888h128l-117 -155h-79zM330 888h128l-117 -155h-79zM191 700v-451q0 -38 25 -64.5t75 -26.5t74 26.5t24 64.5v451h175v-456q0 -51 -18 -97t-53 -80t-86 -54t-116 -20q-66 0 -117 20t-86 54.5t-53.5 80t-18.5 96.5v456h175z" />
    <glyph glyph-name="uhungarumlaut" unicode="&#x171;" 
d="M171 708h128l-117 -155h-79zM311 708h128l-117 -155h-79zM175 -5q-74 0 -117 49t-43 147v329h175v-340q0 -66 67 -66q66 0 66 66v340h175v-520h-175v99h-5q-14 -44 -48 -74t-95 -30z" />
    <glyph glyph-name="Uogonek" unicode="&#x172;" horiz-adv-x="581" 
d="M191 700v-451q0 -38 25 -64.5t75 -26.5t74 26.5t24 64.5v451h175v-456q0 -48 -15.5 -90.5t-45.5 -76t-74 -55t-101 -27.5q-33 -32 -33 -70q0 -23 12 -36.5t32 -15.5v-83q-69 0 -108.5 27.5t-39.5 75.5q0 27 13.5 53.5t38.5 49.5q-54 7 -96.5 29.5t-71.5 56t-44 75
t-15 87.5v456h175z" />
    <glyph glyph-name="uogonek" unicode="&#x173;" 
d="M175 -5q-74 0 -117 49t-43 147v329h175v-340q0 -66 67 -66q66 0 66 66v340h175v-520h-38q-38 -35 -38 -75q0 -23 12 -36.5t32 -15.5v-83q-69 0 -108.5 27.5t-39.5 75.5q0 59 56 107h-51v99h-5q-14 -44 -48 -74t-95 -30z" />
    <glyph glyph-name="Wcircumflex" unicode="&#x174;" horiz-adv-x="901" 
d="M380 888h146l89 -155h-146l-14 142h-2l-14 -142h-148zM16 700h180l79 -397h5l13 397h314l13 -397h5l78 394l181 3l-159 -700h-245l-27 625h-6l-28 -625h-245z" />
    <glyph glyph-name="wcircumflex" unicode="&#x175;" horiz-adv-x="723" 
d="M288 708h146l89 -155h-146l-14 142h-2l-14 -142h-148zM26 520h175v-324q0 -36 37 -36q36 0 36 36v324h175v-324q0 -36 37 -36q36 0 36 36v324h175v-343q0 -89 -46.5 -135.5t-134.5 -46.5q-38 0 -66.5 13.5t-47 37t-28 55.5t-9.5 70h-5q0 -38 -9.5 -70t-29.5 -55.5
t-51 -37t-74 -13.5q-84 0 -127 43t-43 127v355z" />
    <glyph glyph-name="Ycircumflex" unicode="&#x176;" horiz-adv-x="661" 
d="M257 888h146l89 -155h-146l-14 142h-2l-14 -142h-148zM461 700h185l-172 -445h-57v-256h-174v256h-56l-172 445h185l99 -264q15 -40 21.5 -83t6.5 -86h5q0 43 7 86t22 83z" />
    <glyph glyph-name="ycircumflex" unicode="&#x177;" horiz-adv-x="544" 
d="M183 708h146l89 -155h-146l-14 142h-2l-14 -142h-148zM15 520h175v-320q0 -40 43 -40q40 0 49 39l71 321h175l-133 -576q-20 -84 -74 -127.5t-140 -43.5h-166l37 165h128q40 0 49 39l41 168h-5l-53 -91q-34 -59 -104 -59q-45 0 -69 24t-24 69v432z" />
    <glyph glyph-name="Ydieresis" unicode="&#x178;" horiz-adv-x="661" 
d="M179 888h140v-155h-140v155zM340 888h140v-155h-140v155zM461 700h185l-172 -445h-57v-256h-174v256h-56l-172 445h185l99 -264q15 -40 22 -83t7 -86h5q0 43 6.5 86t21.5 83z" />
    <glyph glyph-name="Zacute" unicode="&#x179;" horiz-adv-x="590" 
d="M257 888h163l-117 -155h-114zM16 317l475 213v5h-467v165h542v-317l-475 -213v-5h482v-165h-557v317z" />
    <glyph glyph-name="zacute" unicode="&#x17a;" horiz-adv-x="503" 
d="M214 708h163l-117 -155h-114zM16 15l193 334v6h-193v165h472v-15l-194 -333v-7h194v-165h-472v15z" />
    <glyph glyph-name="Zdotaccent" unicode="&#x17b;" horiz-adv-x="590" 
d="M207 888h175v-155h-175v155zM16 317l475 213v5h-467v165h542v-317l-475 -213v-5h482v-165h-557v317z" />
    <glyph glyph-name="zdotaccent" unicode="&#x17c;" horiz-adv-x="503" 
d="M164 720h175v-167h-175v167zM16 15l193 334v6h-193v165h472v-15l-194 -333v-7h194v-165h-472v15z" />
    <glyph glyph-name="Zcaron" unicode="&#x17d;" horiz-adv-x="590" 
d="M139 888h148l14 -142h2l14 142h146l-89 -155h-146zM16 317l475 213v5h-467v165h542v-317l-475 -213v-5h482v-165h-557v317z" />
    <glyph glyph-name="zcaron" unicode="&#x17e;" horiz-adv-x="503" 
d="M90 701h148l14 -142h2l14 142h146l-89 -155h-146zM16 15l193 334v6h-193v165h472v-15l-194 -333v-7h194v-165h-472v15z" />
    <glyph glyph-name="longs" unicode="&#x17f;" horiz-adv-x="278" 
d="M16 520q0 50 18.5 86t51.5 59t77.5 34t96.5 11h11v-127h-10q-29 0 -49.5 -15.5t-20.5 -57.5v-510h-175v520z" />
    <glyph glyph-name="florin" unicode="&#x192;" horiz-adv-x="385" 
d="M281 -6q0 -35 -14 -63.5t-38.5 -49t-58.5 -32t-73 -11.5h-81v93q44 0 67 16t23 47v366h-47v160h47v41q0 69 41 104t115 35h106v-135h-55q-32 0 -32 -33v-12h86v-160h-86v-366z" />
    <glyph glyph-name="uni0218" unicode="&#x218;" horiz-adv-x="600" 
d="M324 429q134 -24 196.5 -77.5t62.5 -144.5q0 -107 -71.5 -160.5t-225.5 -53.5q-31 0 -66.5 2t-71.5 6t-70 9.5t-63 11.5v180q68 -21 140 -32.5t134 -11.5q119 0 119 45q0 23 -33 39.5t-107 30.5q-131 24 -192 77t-61 143q0 107 69.5 160.5t220.5 53.5q61 0 133 -8.5
t135 -23.5v-180q-60 22 -131.5 34.5t-137.5 12.5q-59 0 -86.5 -10.5t-27.5 -33.5t31.5 -39.5t102.5 -29.5zM213 -122v102h175v-101l-60 -99h-145z" />
    <glyph glyph-name="uni0219" unicode="&#x219;" horiz-adv-x="502" 
d="M26 165h296q10 0 10 10t-10 10l-166 9q-69 4 -104.5 42.5t-35.5 113.5q0 83 43 126.5t127 43.5h291v-165h-296q-10 0 -10 -10q0 -8 10 -10l166 -9q69 -4 104.5 -42.5t35.5 -113.5q0 -83 -43 -126.5t-127 -43.5h-291v165zM179 -122v102h175v-101l-60 -99h-145z" />
    <glyph glyph-name="uni021A" unicode="&#x21a;" horiz-adv-x="600" 
d="M212 535h-196v165h568v-165h-197v-535h-175v535zM214 -122v102h175v-101l-60 -99h-145z" />
    <glyph glyph-name="uni021B" unicode="&#x21b;" horiz-adv-x="349" 
d="M81 355h-66v165h67v112h175v-112h76v-165h-76v-157q0 -33 32 -33h45v-165h-96q-74 0 -115.5 35t-41.5 104v216zM140 -122v102h175v-101l-60 -99h-145z" />
    <glyph glyph-name="uni0237" unicode="&#x237;" horiz-adv-x="228" 
d="M-113 -221v165h64q75 0 75 75v501h175v-495q0 -121 -62.5 -183.5t-183.5 -62.5h-68z" />
    <glyph glyph-name="circumflex" unicode="&#x2c6;" horiz-adv-x="357" 
d="M105 708h146l89 -155h-146l-14 142h-2l-14 -142h-148z" />
    <glyph glyph-name="caron" unicode="&#x2c7;" horiz-adv-x="357" 
d="M16 708h148l14 -142h2l14 142h146l-89 -155h-146z" />
    <glyph glyph-name="uni02C9" unicode="&#x2c9;" horiz-adv-x="336" 
d="M16 708h303v-155h-303v155z" />
    <glyph glyph-name="breve" unicode="&#x2d8;" horiz-adv-x="287" 
d="M143 546q-37 0 -63.5 12.5t-42.5 34.5t-23.5 51.5t-7.5 63.5h81q0 -29 12 -47.5t44 -18.5t44 18.5t12 47.5h81q0 -34 -7.5 -63.5t-23.5 -51.5t-42 -34.5t-64 -12.5z" />
    <glyph glyph-name="dotaccent" unicode="&#x2d9;" horiz-adv-x="208" 
d="M16 720h175v-167h-175v167z" />
    <glyph glyph-name="ring" unicode="&#x2da;" horiz-adv-x="263" 
d="M131 529q-48 0 -81.5 25.5t-33.5 75.5t33.5 75.5t81.5 25.5t81.5 -25.5t33.5 -75.5t-33.5 -75.5t-81.5 -25.5zM131 596q19 0 31.5 9.5t12.5 24.5q0 14 -12.5 24t-31.5 10t-31.5 -10t-12.5 -24q0 -15 12.5 -24.5t31.5 -9.5z" />
    <glyph glyph-name="ogonek" unicode="&#x2db;" horiz-adv-x="186" 
d="M161 5q-44 -36 -44 -80q0 -23 12 -36.5t32 -15.5v-83q-69 0 -108.5 27.5t-39.5 75.5q0 30 16 59t46 53h86z" />
    <glyph glyph-name="tilde" unicode="&#x2dc;" horiz-adv-x="336" 
d="M17 553q0 86 22 120.5t78 34.5q18 0 33.5 -3.5t29.5 -11.5q11 -6 23 -10t24 -4q17 0 28.5 8t11.5 21h52q0 -43 -5 -73t-16 -48t-28.5 -26t-43.5 -8q-39 0 -73 17q-11 5 -22 8.5t-22 3.5q-17 0 -28.5 -8t-11.5 -21h-52z" />
    <glyph glyph-name="hungarumlaut" unicode="&#x2dd;" horiz-adv-x="369" 
d="M84 708h128l-117 -155h-79zM224 708h128l-117 -155h-79z" />
    <glyph glyph-name="uni0326" unicode="&#x326;" horiz-adv-x="242" 
d="M50 -122v102h175v-101l-60 -99h-145z" />
    <glyph glyph-name="uni0394" unicode="&#x394;" horiz-adv-x="629" 
d="M314 718l298 -718h-596zM402 140l-88 214l-88 -214h176z" />
    <glyph glyph-name="uni03A9" unicode="&#x3a9;" horiz-adv-x="753" 
d="M36 0v127h123q-29 17 -52.5 43t-40 58t-25.5 70t-9 78q0 71 26.5 131.5t72.5 105t109.5 69.5t136.5 25q74 0 137 -25t109 -69.5t72.5 -105t26.5 -131.5q0 -40 -9 -78t-25.5 -70t-40 -58t-52.5 -43h121v-127h-311v126q87 21 134 76t47 138q0 46 -15 83t-42 63.5t-65.5 41
t-86.5 14.5q-47 0 -85.5 -14.5t-66 -41t-42.5 -64t-15 -83.5q0 -81 46.5 -136.5t133.5 -75.5v-127h-312z" />
    <glyph glyph-name="uni03BC" unicode="&#x3bc;" horiz-adv-x="600" 
d="M279 -11q-26 0 -48.5 25.5t-39.5 74.5v-289h-175v732h175v-239q0 -40 7 -72.5t19 -55.5t28 -35t33 -12q23 0 46 22.5t41.5 71.5t30.5 125.5t12 185.5v9h175v-532h-175v205h-5q-23 -109 -56 -162.5t-68 -53.5z" />
    <glyph glyph-name="pi" unicode="&#x3c0;" horiz-adv-x="586" 
d="M101 423h-15q-45 0 -70 -25v127q27 25 72 25h435v-127h-57v-310q0 -22 9.5 -30t20.5 -8q14 0 22 11l51 -32q-18 -33 -52.5 -47.5t-71.5 -14.5q-25 0 -50 6.5t-45 21t-32 37.5t-12 56v310h-45v-423h-160v423z" />
    <glyph glyph-name="uni0401" unicode="&#x401;" horiz-adv-x="530" 
d="M102 888h140v-155h-140v155zM303 888h140v-155h-140v155zM26 700h487v-165h-312v-97h292v-165h-292v-108h312v-165h-487v700z" />
    <glyph glyph-name="uni0402" unicode="&#x402;" horiz-adv-x="722" 
d="M212 540h-196v160h568v-160h-197v-119h5q14 44 48 74t95 30q74 0 117 -49t43 -147v-141q0 -92 -48 -140t-140 -48h-66v160h43q36 0 36 36v144q0 66 -67 66q-66 0 -66 -66v-340h-175v540z" />
    <glyph glyph-name="uni0403" unicode="&#x403;" horiz-adv-x="525" 
d="M229 888h163l-117 -155h-114zM26 700h482v-165h-307v-535h-175v700z" />
    <glyph glyph-name="uni0404" unicode="&#x404;" horiz-adv-x="674" 
d="M348 -7q-161 0 -246 91.5t-85 265.5t85 265.5t246 91.5q129 0 207.5 -58t102.5 -169h-184q-34 62 -126 62q-62 0 -97.5 -26.5t-49.5 -82.5h267v-165h-268q26 -110 148 -110q92 0 126 62h184q-26 -112 -104 -169.5t-206 -57.5z" />
    <glyph glyph-name="uni0405" unicode="&#x405;" horiz-adv-x="600" 
d="M324 429q134 -24 196.5 -77.5t62.5 -144.5q0 -107 -71.5 -160.5t-225.5 -53.5q-31 0 -66.5 2t-71.5 6t-70 9.5t-63 11.5v180q68 -21 140 -32.5t134 -11.5q119 0 119 45q0 23 -33 39.5t-107 30.5q-131 24 -192 77t-61 143q0 107 69.5 160.5t220.5 53.5q61 0 133 -8.5
t135 -23.5v-180q-60 22 -131.5 34.5t-137.5 12.5q-59 0 -86.5 -10.5t-27.5 -33.5t31.5 -39.5t102.5 -29.5z" />
    <glyph glyph-name="uni0406" unicode="&#x406;" horiz-adv-x="238" 
d="M26 700h185v-700h-185v700z" />
    <glyph glyph-name="uni0407" unicode="&#x407;" horiz-adv-x="238" 
d="M-55 888h140v-155h-140v155zM146 888h140v-155h-140v155zM26 700h185v-700h-185v700z" />
    <glyph glyph-name="uni0408" unicode="&#x408;" horiz-adv-x="327" 
d="M16 0v160h73q36 0 36 36v338h-109v166h284v-512q0 -92 -48 -140t-140 -48h-96z" />
    <glyph glyph-name="uni0409" unicode="&#x409;" horiz-adv-x="955" 
d="M17 165h34q32 0 53.5 19t21.5 56v460h457v-266h133q56 0 97.5 -16t69 -44.5t41.5 -68t14 -85.5t-14 -86t-42.5 -70t-72.5 -47t-103 -17h-298v535h-107v-289q0 -121 -62.5 -183.5t-183.5 -62.5h-38v165zM711 165q28 0 41.5 17t13.5 38q0 20 -13.5 37t-41.5 17h-128v-109
h128z" />
    <glyph glyph-name="uni040A" unicode="&#x40a;" horiz-adv-x="939" 
d="M26 700h175v-266h181v266h175v-266h143q56 0 97.5 -16t69 -44.5t41.5 -68t14 -85.5t-14 -86t-42.5 -70t-72.5 -47t-103 -17h-308v274h-181v-274h-175v700zM695 165q28 0 41.5 17t13.5 38q0 20 -13.5 37t-41.5 17h-138v-109h138z" />
    <glyph glyph-name="uni040B" unicode="&#x40b;" horiz-adv-x="741" 
d="M212 540h-196v160h568v-160h-197v-119h5q14 44 48 74t95 30q74 0 117 -49t43 -147v-329h-175v340q0 66 -67 66q-66 0 -66 -66v-340h-175v540z" />
    <glyph glyph-name="uni040C" unicode="&#x40c;" horiz-adv-x="620" 
d="M246 888h163l-117 -155h-114zM603 0h-193l-205 343h-4v-343h-175v700h175v-342h5l204 342h193l-152 -260q-26 -44 -65.5 -65.5t-90.5 -21.5v-5q104 0 156 -88z" />
    <glyph glyph-name="uni040E" unicode="&#x40e;" horiz-adv-x="624" 
d="M312 726q-37 0 -63.5 12.5t-42.5 34.5t-23.5 51.5t-7.5 63.5h81q0 -29 12 -47.5t44 -18.5t44 18.5t12 47.5h81q0 -34 -7.5 -63.5t-23.5 -51.5t-42 -34.5t-64 -12.5zM66 165h95q38 0 54 36l6 13l-206 486h179l117 -275l117 275h179l-240 -564q-29 -66 -81.5 -101
t-124.5 -35h-95v165z" />
    <glyph glyph-name="uni040F" unicode="&#x40f;" horiz-adv-x="624" 
d="M26 700h175v-535h222v535h175v-700h-198v-124h-175v124h-199v700z" />
    <glyph glyph-name="uni0410" unicode="&#x410;" horiz-adv-x="667" 
d="M174 700h317l159 -700h-180l-30 141h-214l-30 -141h-180zM404 306l-69 319h-5l-68 -319h142z" />
    <glyph glyph-name="uni0411" unicode="&#x411;" horiz-adv-x="623" 
d="M26 700h482v-165h-307v-101h183q56 0 97.5 -16t69 -44.5t41.5 -68t14 -85.5t-14 -86t-42.5 -70t-72.5 -47t-103 -17h-348v700zM379 165q28 0 41.5 17t13.5 38q0 20 -13.5 37t-41.5 17h-178v-109h178z" />
    <glyph glyph-name="uni0412" unicode="&#x412;" horiz-adv-x="620" 
d="M26 700h348q57 0 98.5 -15.5t69 -41t41 -57t13.5 -64.5q0 -31 -11.5 -60t-34 -51.5t-55 -36t-75.5 -13.5v-5q45 0 80 -14.5t58.5 -38t35.5 -54t12 -62.5q0 -34 -14 -68t-42.5 -60t-72.5 -42.5t-103 -16.5h-348v700zM384 434q28 0 41.5 15.5t13.5 35.5q0 19 -13.5 34.5
t-41.5 15.5h-183v-101h183zM384 165q28 0 41.5 17t13.5 38q0 20 -13.5 37t-41.5 17h-183v-109h183z" />
    <glyph glyph-name="uni0413" unicode="&#x413;" horiz-adv-x="525" 
d="M26 700h482v-165h-307v-535h-175v700z" />
    <glyph glyph-name="uni0414" unicode="&#x414;" horiz-adv-x="667" 
d="M26 165h30q31 35 45.5 74t14.5 97v364h504v-535h30v-289h-175v124h-274v-124h-175v289zM445 165v370h-154v-200q0 -58 -14.5 -98t-39.5 -72h208z" />
    <glyph glyph-name="uni0415" unicode="&#x415;" horiz-adv-x="530" 
d="M26 700h487v-165h-312v-97h292v-165h-292v-108h312v-165h-487v700z" />
    <glyph glyph-name="uni0416" unicode="&#x416;" horiz-adv-x="973" 
d="M157 260q47 88 148 88v5q-51 0 -87.5 21t-60.5 66l-140 260h193l184 -342h5v342h175v-342h5l184 342h193l-140 -260q-24 -45 -60.5 -66t-87.5 -21v-5q101 0 148 -88l140 -260h-193l-185 343h-4v-343h-175v343h-4l-185 -343h-193z" />
    <glyph glyph-name="uni0417" unicode="&#x417;" horiz-adv-x="532" 
d="M26 188q47 -14 97 -21t95 -7q121 0 121 59q0 23 -16 36t-43 13h-180v165h180q27 0 43 13t16 36q0 59 -121 59q-45 0 -95 -7t-97 -21v170q45 11 94 17t96 6q138 0 213 -49t75 -138q0 -75 -52 -118t-146 -48v-5q94 -5 146 -48t52 -118q0 -89 -75 -138t-213 -49q-47 0 -96 6
t-94 17v170z" />
    <glyph glyph-name="uni0418" unicode="&#x418;" horiz-adv-x="627" 
d="M425 0v625h-5l-61 -625h-333v700h175v-625h5l61 625h333v-700h-175z" />
    <glyph glyph-name="uni0419" unicode="&#x419;" horiz-adv-x="627" 
d="M312 726q-37 0 -63.5 12.5t-42.5 34.5t-23.5 51.5t-7.5 63.5h81q0 -29 12 -47.5t44 -18.5t44 18.5t12 47.5h81q0 -34 -7.5 -63.5t-23.5 -51.5t-42 -34.5t-64 -12.5zM425 0v625h-5l-61 -625h-333v700h175v-625h5l61 625h333v-700h-175z" />
    <glyph glyph-name="uni041A" unicode="&#x41a;" horiz-adv-x="620" 
d="M603 0h-193l-205 343h-4v-343h-175v700h175v-342h5l204 342h193l-152 -260q-26 -44 -65.5 -65.5t-90.5 -21.5v-5q104 0 156 -88z" />
    <glyph glyph-name="uni041B" unicode="&#x41b;" horiz-adv-x="629" 
d="M17 165h34q32 0 53.5 19t21.5 56v460h477v-700h-175v535h-127v-289q0 -121 -62.5 -183.5t-183.5 -62.5h-38v165z" />
    <glyph glyph-name="uni041C" unicode="&#x41c;" horiz-adv-x="806" 
d="M26 700h336l38 -625h5l38 625h336v-700h-175v625h-5l-40 -625h-313l-40 625h-5v-625h-175v700z" />
    <glyph glyph-name="uni041D" unicode="&#x41d;" horiz-adv-x="624" 
d="M26 700h175v-280h221v280h175v-700h-175v255h-221v-255h-175v700z" />
    <glyph glyph-name="uni041E" unicode="&#x41e;" horiz-adv-x="693" 
d="M347 -7q-161 0 -246 91.5t-85 265.5t85 265.5t246 91.5t245 -91t84 -266t-84 -266t-245 -91zM347 158q81 0 117.5 46t36.5 146t-36.5 146t-117.5 46t-118.5 -46t-37.5 -146t37.5 -146t118.5 -46z" />
    <glyph glyph-name="uni041F" unicode="&#x41f;" horiz-adv-x="623" 
d="M26 700h571v-700h-175v535h-221v-535h-175v700z" />
    <glyph glyph-name="uni0420" unicode="&#x420;" horiz-adv-x="600" 
d="M26 700h316q53 0 97.5 -19t76.5 -53t49.5 -80t17.5 -99t-18 -99t-50 -80t-76 -53.5t-97 -19.5h-141v-197h-175v700zM325 362q37 0 60 24t23 63t-22.5 62.5t-60.5 23.5h-124v-173h124z" />
    <glyph glyph-name="uni0421" unicode="&#x421;" horiz-adv-x="681" 
d="M347 -7q-161 0 -246 91.5t-85 265.5t85 265.5t246 91.5q146 0 227 -73.5t92 -213.5h-175q-9 63 -44 92.5t-100 29.5q-81 0 -118.5 -46t-37.5 -146t37.5 -146t118.5 -46q128 0 144 122h175q-13 -140 -93.5 -213.5t-225.5 -73.5z" />
    <glyph glyph-name="uni0422" unicode="&#x422;" horiz-adv-x="600" 
d="M212 535h-196v165h568v-165h-197v-535h-175v535z" />
    <glyph glyph-name="uni0423" unicode="&#x423;" horiz-adv-x="624" 
d="M66 165h95q38 0 54 36l6 13l-206 486h179l117 -275l117 275h179l-240 -564q-29 -66 -81.5 -101t-124.5 -35h-95v165z" />
    <glyph glyph-name="uni0424" unicode="&#x424;" horiz-adv-x="693" 
d="M254 90q-117 18 -177.5 83.5t-60.5 176.5t60.5 176.5t177.5 83.5v90h185v-90q117 -18 177 -83.5t60 -176.5t-60 -176.5t-177 -83.5v-90h-185v90zM254 440q-63 -22 -63 -90t63 -90v180zM439 260q62 22 62 90t-62 90v-180z" />
    <glyph glyph-name="uni0425" unicode="&#x425;" horiz-adv-x="662" 
d="M214 0h-198l216 349l-216 351h196l72 -117q23 -37 34 -78.5t11 -85.5h5q0 44 10.5 85.5t33.5 78.5l72 117h195l-216 -351l215 -349h-197l-70 113q-23 37 -33 79t-10 86h-5q0 -44 -11 -85.5t-34 -78.5z" />
    <glyph glyph-name="uni0426" unicode="&#x426;" horiz-adv-x="623" 
d="M201 700v-535h160v535h175v-535h70v-289h-175v124h-405v700h175z" />
    <glyph glyph-name="uni0427" unicode="&#x427;" horiz-adv-x="605" 
d="M579 0h-175v299h-5q-19 -57 -69.5 -90.5t-119.5 -33.5q-90 0 -141.5 57t-51.5 159v309h175v-320q0 -38 26 -62t77 -24t80 24t29 62v320h175v-700z" />
    <glyph glyph-name="uni0428" unicode="&#x428;" horiz-adv-x="805" 
d="M201 700v-535h114v535h175v-535h114v535h175v-700h-753v700h175z" />
    <glyph glyph-name="uni0429" unicode="&#x429;" horiz-adv-x="866" 
d="M201 700v-535h114v535h175v-535h114v535h175v-540h70v-284h-175v124h-648v700h175z" />
    <glyph glyph-name="uni042A" unicode="&#x42a;" horiz-adv-x="662" 
d="M116 535h-100v165h275v-266h133q56 0 97.5 -16t69 -44.5t41.5 -68t14 -85.5t-14 -86t-42.5 -70t-72.5 -47t-103 -17h-298v535zM419 165q28 0 41.5 17t13.5 38q0 20 -13.5 37t-41.5 17h-128v-109h128z" />
    <glyph glyph-name="uni042B" unicode="&#x42b;" horiz-adv-x="832" 
d="M26 700h175v-266h183q56 0 97.5 -16t69 -44.5t41.5 -68t14 -85.5t-14 -86t-42.5 -70t-72.5 -47t-103 -17h-348v700zM631 700h175v-700h-175v700zM379 165q28 0 41.5 17t13.5 38q0 20 -13.5 37t-41.5 17h-178v-109h178z" />
    <glyph glyph-name="uni042C" unicode="&#x42c;" horiz-adv-x="623" 
d="M26 700h175v-266h183q56 0 97.5 -16t69 -44.5t41.5 -68t14 -85.5t-14 -86t-42.5 -70t-72.5 -47t-103 -17h-348v700zM379 165q28 0 41.5 17t13.5 38q0 20 -13.5 37t-41.5 17h-178v-109h178z" />
    <glyph glyph-name="uni042D" unicode="&#x42d;" horiz-adv-x="674" 
d="M327 -7q-128 0 -206 57.5t-104 169.5h184q34 -62 126 -62q122 0 148 110h-268v165h267q-14 56 -49.5 82.5t-97.5 26.5q-92 0 -126 -62h-184q24 111 102.5 169t207.5 58q161 0 246 -91.5t85 -265.5t-85 -265.5t-246 -91.5z" />
    <glyph glyph-name="uni042E" unicode="&#x42e;" horiz-adv-x="931" 
d="M585 -7q-141 0 -223 70t-102 204h-59v-267h-175v700h175v-267h59q20 134 102 204t223 70q161 0 245 -91t84 -266t-84 -266t-245 -91zM585 158q81 0 117.5 46t36.5 146t-36.5 146t-117.5 46t-118.5 -46t-37.5 -146t37.5 -146t118.5 -46z" />
    <glyph glyph-name="uni042F" unicode="&#x42f;" horiz-adv-x="608" 
d="M280 217q-40 0 -48 -39l-38 -178h-178l38 185q24 115 192 115v5q-103 0 -159.5 50t-56.5 141q0 95 61.5 149.5t168.5 54.5h323v-700h-175v217h-128zM408 535h-156q-28 0 -44.5 -20.5t-16.5 -55.5t16.5 -56t44.5 -21h156v153z" />
    <glyph glyph-name="uni0430" unicode="&#x430;" horiz-adv-x="538" 
d="M173 -7q-73 0 -115 41.5t-42 108.5q0 41 16.5 76.5t48 63t77 46.5t102.5 26v5h-211v160h307q76 0 115.5 -39.5t39.5 -115.5v-365h-175v101h-5q-15 -51 -56.5 -79.5t-101.5 -28.5zM260 116q76 0 76 70v134q0 40 -40 40h-11q-20 -16 -39 -35.5t-34 -41t-24 -45.5t-9 -49
q0 -36 21 -54.5t60 -18.5z" />
    <glyph glyph-name="uni0431" unicode="&#x431;" horiz-adv-x="545" 
d="M273 -7q-136 0 -196.5 78t-60.5 229q0 85 16 140t40.5 91t54 57t57 37.5t49.5 32.5t31 42h194q-6 -56 -29 -90t-53.5 -56.5t-65 -39t-63 -36.5t-47.5 -49t-19 -77h5q13 60 56.5 92.5t109.5 32.5q85 0 130.5 -56t45.5 -162q0 -130 -65 -198t-190 -68zM272 153q23 0 38.5 5
t25 18t13.5 34t4 52t-4 52t-13.5 33.5t-25 18t-38.5 5.5q-47 0 -63.5 -22.5t-16.5 -84.5q0 -64 17 -87.5t63 -23.5z" />
    <glyph glyph-name="uni0432" unicode="&#x432;" horiz-adv-x="515" 
d="M26 520h268q55 0 94 -12t63.5 -32t35.5 -46t11 -55q0 -30 -10.5 -51t-28 -34.5t-40.5 -20t-49 -6.5v-5q26 0 49 -6.5t40.5 -20t28 -34.5t10.5 -51q0 -29 -11 -55.5t-35.5 -46.5t-63.5 -32t-94 -12h-268v520zM305 325q9 0 13.5 5t4.5 12q0 18 -18 18h-104v-35h104z
M305 160q18 0 18 18q0 7 -4.5 12t-13.5 5h-104v-35h104z" />
    <glyph glyph-name="uni0433" unicode="&#x433;" horiz-adv-x="433" 
d="M26 0v520h384v-165h-209v-355h-175z" />
    <glyph glyph-name="uni0434" unicode="&#x434;" horiz-adv-x="617" 
d="M16 165h30q20 13 31.5 25t18 27t8.5 35t2 49v219h464v-355h30v-289h-175v124h-234v-124h-175v289zM395 165v190h-114v-55q0 -58 -13 -88t-41 -47h168z" />
    <glyph glyph-name="uni0435" unicode="&#x435;" 
d="M287 0q-129 0 -200.5 69t-71.5 194q0 124 68 193t192 69q55 0 98 -13.5t73 -37.5t46 -57t16 -71q0 -39 -16.5 -77.5t-46.5 -59.5h-245q23 -44 114 -44h171v-165h-198zM195 223q33 6 59.5 17.5t45.5 25.5t29.5 29t10.5 29q0 15 -13 25.5t-43 10.5q-45 0 -69.5 -26
t-24.5 -75q0 -19 5 -36z" />
    <glyph glyph-name="uni0436" unicode="&#x436;" horiz-adv-x="905" 
d="M115 170q52 89 156 89v2q-104 0 -156 89l-99 170h193l150 -250h6v250h175v-250h6l150 250h193l-99 -170q-52 -89 -156 -89v-2q104 0 156 -89l99 -170h-193l-150 250h-6v-250h-175v250h-6l-150 -250h-193z" />
    <glyph glyph-name="uni0437" unicode="&#x437;" horiz-adv-x="531" 
d="M26 181q99 -21 205 -21q51 0 74.5 5.5t23.5 16.5q0 18 -50 18h-179v124h179q50 0 50 18q0 23 -100 23q-51 0 -102 -5t-101 -16v168q43 8 92 13t99 5q137 0 212 -37t75 -104q0 -56 -52 -88t-146 -36v-5q94 -4 146 -36t52 -88q0 -67 -75.5 -104t-213.5 -37q-47 0 -96 4.5
t-93 12.5v169z" />
    <glyph glyph-name="uni0438" unicode="&#x438;" horiz-adv-x="624" 
d="M26 520h175v-445h5l61 445h331v-520h-175v445h-5l-61 -445h-331v520z" />
    <glyph glyph-name="uni0439" unicode="&#x439;" horiz-adv-x="624" 
d="M312 546q-37 0 -63.5 12.5t-42.5 34.5t-23.5 51.5t-7.5 63.5h81q0 -29 12 -47.5t44 -18.5t44 18.5t12 47.5h81q0 -34 -7.5 -63.5t-23.5 -51.5t-42 -34.5t-64 -12.5zM26 520h175v-445h5l61 445h331v-520h-175v445h-5l-61 -445h-331v520z" />
    <glyph glyph-name="uni043A" unicode="&#x43a;" horiz-adv-x="565" 
d="M550 0h-193l-150 250h-6v-250h-175v520h175v-250h6l150 250h193l-99 -170q-51 -87 -156 -87v-5q104 0 156 -88z" />
    <glyph glyph-name="uni043B" unicode="&#x43b;" horiz-adv-x="578" 
d="M17 0v165h25q57 0 57 57v298h453v-520h-175v355h-103v-142q0 -104 -54.5 -158.5t-158.5 -54.5h-44z" />
    <glyph glyph-name="uni043C" unicode="&#x43c;" horiz-adv-x="757" 
d="M26 520h326l24 -445h5l24 445h326v-520h-175v445h-5l-30 -445h-275l-40 445h-5v-445h-175v520z" />
    <glyph glyph-name="uni043D" unicode="&#x43d;" horiz-adv-x="535" 
d="M26 520h150v-180h183v180h150v-520h-150v180h-183v-180h-150v520z" />
    <glyph glyph-name="uni043E" unicode="&#x43e;" horiz-adv-x="546" 
d="M272 -5q-121 0 -188.5 70.5t-67.5 195.5t67.5 194.5t188.5 69.5q60 0 108 -18t81 -52.5t50.5 -83t17.5 -110.5t-17.5 -111.5t-50.5 -84t-81 -52.5t-108 -18zM273 160q81 0 81 100q0 51 -19.5 75.5t-61.5 24.5q-43 0 -62.5 -24t-19.5 -76q0 -51 19.5 -75.5t62.5 -24.5z
" />
    <glyph glyph-name="uni043F" unicode="&#x43f;" horiz-adv-x="535" 
d="M26 520h483v-520h-175v355h-133v-355h-175v520z" />
    <glyph glyph-name="uni0440" unicode="&#x440;" horiz-adv-x="546" 
d="M344 -5q-50 0 -90 26t-57 90h-6v-311h-175v720h175v-111h6q18 65 57 90.5t89 25.5q92 0 139 -70.5t47 -195.5q0 -124 -47 -194t-138 -70zM266 126q23 0 39.5 6t27.5 21t16 41t5 66t-5.5 66t-16 41t-27 21t-39.5 6q-75 0 -75 -75v-118q0 -75 75 -75z" />
    <glyph glyph-name="uni0441" unicode="&#x441;" horiz-adv-x="437" 
d="M276 0q-125 0 -192.5 69.5t-67.5 193.5t68 193t193 69q30 0 68.5 -5t74.5 -17v-164q-34 12 -59.5 16.5t-51.5 4.5q-65 0 -91.5 -23t-26.5 -74t26.5 -74.5t89.5 -23.5h113v-165h-144z" />
    <glyph glyph-name="uni0442" unicode="&#x442;" horiz-adv-x="535" 
d="M180 355h-164v165h503v-165h-164v-355h-175v355z" />
    <glyph glyph-name="uni0443" unicode="&#x443;" horiz-adv-x="544" 
d="M15 520h175v-320q0 -40 43 -40q40 0 49 39l71 321h175l-133 -576q-20 -84 -74 -127.5t-140 -43.5h-166l37 165h128q40 0 49 39l41 168h-5l-53 -91q-34 -59 -104 -59q-45 0 -69 24t-24 69v432z" />
    <glyph glyph-name="uni0444" unicode="&#x444;" horiz-adv-x="607" 
d="M224 2q-99 20 -153 86.5t-54 172.5q0 105 54.5 171t152.5 86v182h160v-183q98 -20 152 -86t54 -170q0 -105 -54 -171.5t-152 -86.5v-183h-160v182zM224 340q-32 -23 -32 -80q0 -56 32 -79v159zM384 182q31 25 31 78q0 55 -31 79v-157z" />
    <glyph glyph-name="uni0445" unicode="&#x445;" horiz-adv-x="559" 
d="M177 259l-161 261h205l29 -47q15 -24 21 -51t6 -56h5q0 29 7 56t22 51l29 47h204l-162 -261l160 -259h-205l-27 44q-15 24 -21.5 51t-6.5 56h-5q0 -29 -6.5 -56t-21.5 -51l-27 -44h-206z" />
    <glyph glyph-name="uni0446" unicode="&#x446;" horiz-adv-x="545" 
d="M201 520v-355h102v355h175v-355h50v-289h-175v124h-327v520h175z" />
    <glyph glyph-name="uni0447" unicode="&#x447;" horiz-adv-x="525" 
d="M499 0h-175v218h-5q-14 -44 -48 -74t-96 -30q-73 0 -116 47t-43 142v217h175v-224q0 -63 67 -63q66 0 66 66v221h175v-520z" />
    <glyph glyph-name="uni0448" unicode="&#x448;" horiz-adv-x="744" 
d="M26 520h175v-355h83v355h175v-355h84v355h175v-520h-692v520z" />
    <glyph glyph-name="uni0449" unicode="&#x449;" horiz-adv-x="745" 
d="M201 520v-355h64v355h175v-355h64v355h175v-355h50v-289h-175v124h-528v520h175z" />
    <glyph glyph-name="uni044A" unicode="&#x44a;" horiz-adv-x="577" 
d="M98 355h-82v165h257v-180h93q53 0 90 -12.5t60 -35t33.5 -53.5t10.5 -67t-10.5 -67.5t-34.5 -54.5t-63 -36.5t-96 -13.5h-258v355zM367 160q18 0 18 13q0 5 -4.5 8.5t-13.5 3.5h-94v-25h94z" />
    <glyph glyph-name="uni044B" unicode="&#x44b;" horiz-adv-x="723" 
d="M27 520h175v-180h103q53 0 90 -12.5t60 -35t33.5 -53.5t10.5 -67t-10.5 -67.5t-34.5 -54.5t-63 -36.5t-96 -13.5h-268v520zM521 520h175v-520h-175v520zM306 160q18 0 18 13q0 5 -4.5 8.5t-13.5 3.5h-104v-25h104z" />
    <glyph glyph-name="uni044C" unicode="&#x44c;" horiz-adv-x="516" 
d="M27 520h175v-180h103q53 0 90 -12.5t60 -35t33.5 -53.5t10.5 -67t-10.5 -67.5t-34.5 -54.5t-63 -36.5t-96 -13.5h-268v520zM306 160q18 0 18 13q0 5 -4.5 8.5t-13.5 3.5h-104v-25h104z" />
    <glyph glyph-name="uni044D" unicode="&#x44d;" horiz-adv-x="437" 
d="M17 0v145h113q36 0 59 9t37 28h-164v162h164q-26 36 -98 36q-26 0 -51.5 -4.5t-59.5 -16.5v144q36 12 74.5 17t68.5 5q125 0 193 -69t68 -193t-67.5 -193.5t-192.5 -69.5h-144z" />
    <glyph glyph-name="uni044E" unicode="&#x44e;" horiz-adv-x="764" 
d="M26 520h175v-185h40q19 91 83.5 140.5t165.5 49.5q60 0 108 -18t81 -52.5t50.5 -83t17.5 -110.5t-17.5 -111.5t-50.5 -84t-81 -52.5t-108 -18q-102 0 -166 50.5t-83 141.5h-40v-187h-175v520zM491 160q81 0 81 100q0 51 -19.5 75.5t-61.5 24.5q-43 0 -62.5 -24t-19.5 -76
q0 -51 19.5 -75.5t62.5 -24.5z" />
    <glyph glyph-name="uni044F" unicode="&#x44f;" horiz-adv-x="546" 
d="M255 116q-14 0 -21 -10.5t-13 -28.5l-27 -77h-178l30 84q10 27 22.5 48.5t32.5 36t49 22.5t71 8v5q-102 0 -146.5 39.5t-44.5 106.5q0 81 55 125.5t150 44.5h285v-520h-175v116h-90zM345 355h-111q-20 0 -31.5 -10t-11.5 -27t11.5 -27t31.5 -10h111v74z" />
    <glyph glyph-name="uni0451" unicode="&#x451;" 
d="M104 720h140v-167h-140v167zM305 720h140v-167h-140v167zM287 0q-129 0 -200.5 69t-71.5 194q0 124 68 193t192 69q55 0 98 -13.5t73 -37.5t46 -57t16 -71q0 -39 -16.5 -77.5t-46.5 -59.5h-245q23 -44 114 -44h171v-165h-198zM195 223q33 6 59.5 17.5t45.5 25.5t29.5 29
t10.5 29q0 15 -13 25.5t-43 10.5q-45 0 -69.5 -26t-24.5 -75q0 -19 5 -36z" />
    <glyph glyph-name="uni0452" unicode="&#x452;" horiz-adv-x="563" 
d="M53 536h-37v155h37v29h175v-29h102v-155h-102v-115h5q14 44 48 74t95 30q74 0 117 -49t43 -147v-329q0 -54 -17 -95.5t-49 -69t-77.5 -42t-102.5 -14.5h-38v165h34q75 0 75 75v321q0 66 -67 66q-66 0 -66 -66v-340h-175v536z" />
    <glyph glyph-name="uni0453" unicode="&#x453;" horiz-adv-x="433" 
d="M180 708h163l-117 -155h-114zM26 0v520h384v-165h-209v-355h-175z" />
    <glyph glyph-name="uni0454" unicode="&#x454;" horiz-adv-x="437" 
d="M276 0q-125 0 -192.5 69.5t-67.5 193.5t68 193t193 69q30 0 68.5 -5t74.5 -17v-144q-34 12 -59.5 16.5t-51.5 4.5q-72 0 -98 -36h164v-162h-164q14 -19 37 -28t59 -9h113v-145h-144z" />
    <glyph glyph-name="uni0455" unicode="&#x455;" horiz-adv-x="502" 
d="M26 165h296q10 0 10 10t-10 10l-166 9q-69 4 -104.5 42.5t-35.5 113.5q0 83 43 126.5t127 43.5h291v-165h-296q-10 0 -10 -10q0 -8 10 -10l166 -9q69 -4 104.5 -42.5t35.5 -113.5q0 -83 -43 -126.5t-127 -43.5h-291v165z" />
    <glyph glyph-name="uni0456" unicode="&#x456;" horiz-adv-x="228" 
d="M26 720h175v-167h-175v167zM26 520h175v-520h-175v520z" />
    <glyph glyph-name="uni0457" unicode="&#x457;" horiz-adv-x="228" 
d="M-57 720h140v-167h-140v167zM144 720h140v-167h-140v167zM26 520h175v-520h-175v520z" />
    <glyph glyph-name="uni0458" unicode="&#x458;" horiz-adv-x="228" 
d="M26 720h175v-167h-175v167zM-113 -221v165h64q75 0 75 75v501h175v-495q0 -121 -62.5 -183.5t-183.5 -62.5h-68z" />
    <glyph glyph-name="uni0459" unicode="&#x459;" horiz-adv-x="847" 
d="M17 165h34q32 0 53.5 19t21.5 56v280h427v-180h83q53 0 90 -12.5t60 -35t33.5 -53.5t10.5 -67t-10.5 -67.5t-34.5 -54.5t-63 -36.5t-96 -13.5h-248v355h-77v-109q0 -121 -62.5 -183.5t-183.5 -62.5h-38v165zM637 160q18 0 18 13q0 5 -4.5 8.5t-13.5 3.5h-84v-25h84z" />
    <glyph glyph-name="uni045A" unicode="&#x45a;" horiz-adv-x="801" 
d="M26 520h175v-180h131v180h175v-180h83q53 0 90 -12.5t60 -35t33.5 -53.5t10.5 -67t-10.5 -67.5t-34.5 -54.5t-63 -36.5t-96 -13.5h-248v185h-131v-185h-175v520zM591 160q18 0 18 13q0 5 -4.5 8.5t-13.5 3.5h-84v-25h84z" />
    <glyph glyph-name="uni045B" unicode="&#x45b;" horiz-adv-x="536" 
d="M53 536h-37v155h37v29h175v-29h102v-155h-102v-115h5q14 44 48 74t95 30q74 0 117 -49t43 -147v-329h-175v340q0 66 -67 66q-66 0 -66 -66v-340h-175v536z" />
    <glyph glyph-name="uni045C" unicode="&#x45c;" horiz-adv-x="565" 
d="M271 708h163l-117 -155h-114zM550 0h-193l-150 250h-6v-250h-175v520h175v-250h6l150 250h193l-99 -170q-51 -87 -156 -87v-5q104 0 156 -88z" />
    <glyph glyph-name="uni045E" unicode="&#x45e;" horiz-adv-x="544" 
d="M257 546q-37 0 -63.5 12.5t-42.5 34.5t-23.5 51.5t-7.5 63.5h81q0 -29 12 -47.5t44 -18.5t44 18.5t12 47.5h81q0 -34 -7.5 -63.5t-23.5 -51.5t-42 -34.5t-64 -12.5zM15 520h175v-320q0 -40 43 -40q40 0 49 39l71 321h175l-133 -576q-20 -84 -74 -127.5t-140 -43.5h-166
l37 165h128q40 0 49 39l41 168h-5l-53 -91q-34 -59 -104 -59q-45 0 -69 24t-24 69v432z" />
    <glyph glyph-name="uni045F" unicode="&#x45f;" horiz-adv-x="535" 
d="M26 520h175v-355h133v355h175v-520h-154v-124h-175v124h-154v520z" />
    <glyph glyph-name="uni0490" unicode="&#x490;" horiz-adv-x="525" 
d="M26 700h317v90h165v-255h-307v-535h-175v700z" />
    <glyph glyph-name="uni0491" unicode="&#x491;" horiz-adv-x="433" 
d="M26 0v520h224v90h160v-255h-209v-355h-175z" />
    <glyph glyph-name="Wgrave" unicode="&#x1e80;" horiz-adv-x="901" 
d="M327 888h163l68 -155h-114zM16 700h180l79 -397h5l13 397h314l13 -397h5l78 394l181 3l-159 -700h-245l-27 625h-6l-28 -625h-245z" />
    <glyph glyph-name="wgrave" unicode="&#x1e81;" horiz-adv-x="723" 
d="M237 708h163l68 -155h-114zM26 520h175v-324q0 -36 37 -36q36 0 36 36v324h175v-324q0 -36 37 -36q36 0 36 36v324h175v-343q0 -89 -46.5 -135.5t-134.5 -46.5q-38 0 -66.5 13.5t-47 37t-28 55.5t-9.5 70h-5q0 -38 -9.5 -70t-29.5 -55.5t-51 -37t-74 -13.5q-84 0 -127 43
t-43 127v355z" />
    <glyph glyph-name="Wacute" unicode="&#x1e82;" horiz-adv-x="901" 
d="M415 888h163l-117 -155h-114zM16 700h180l79 -397h5l13 397h314l13 -397h5l78 394l181 3l-159 -700h-245l-27 625h-6l-28 -625h-245z" />
    <glyph glyph-name="wacute" unicode="&#x1e83;" horiz-adv-x="723" 
d="M324 708h163l-117 -155h-114zM26 520h175v-324q0 -36 37 -36q36 0 36 36v324h175v-324q0 -36 37 -36q36 0 36 36v324h175v-343q0 -89 -46.5 -135.5t-134.5 -46.5q-38 0 -66.5 13.5t-47 37t-28 55.5t-9.5 70h-5q0 -38 -9.5 -70t-29.5 -55.5t-51 -37t-74 -13.5
q-84 0 -127 43t-43 127v355z" />
    <glyph glyph-name="Wdieresis" unicode="&#x1e84;" horiz-adv-x="901" 
d="M302 888h140v-155h-140v155zM463 888h140v-155h-140v155zM16 700h180l79 -397h5l13 397h314l13 -397h5l78 394l181 3l-159 -700h-245l-27 625h-6l-28 -625h-245z" />
    <glyph glyph-name="wdieresis" unicode="&#x1e85;" horiz-adv-x="723" 
d="M212 720h140v-167h-140v167zM373 720h140v-167h-140v167zM26 520h175v-324q0 -36 37 -36q36 0 36 36v324h175v-324q0 -36 37 -36q36 0 36 36v324h175v-343q0 -89 -46.5 -135.5t-134.5 -46.5q-38 0 -66.5 13.5t-47 37t-28 55.5t-9.5 70h-5q0 -38 -9.5 -70t-29.5 -55.5
t-51 -37t-74 -13.5q-84 0 -127 43t-43 127v355z" />
    <glyph glyph-name="endash" unicode="&#x2013;" horiz-adv-x="573" 
d="M16 377h540v-175h-540v175z" />
    <glyph glyph-name="emdash" unicode="&#x2014;" horiz-adv-x="821" 
d="M16 377h788v-175h-788v175z" />
    <glyph glyph-name="quoteleft" unicode="&#x2018;" horiz-adv-x="222" 
d="M192 559v-146h-175v145l60 142h145z" />
    <glyph glyph-name="quoteright" unicode="&#x2019;" horiz-adv-x="222" 
d="M30 554v146h175v-145l-60 -142h-145z" />
    <glyph glyph-name="quotesinglbase" unicode="&#x201a;" horiz-adv-x="208" 
d="M16 29v146h175v-145l-60 -142h-145z" />
    <glyph glyph-name="quotedblleft" unicode="&#x201c;" horiz-adv-x="416" 
d="M386 559v-146h-175v145l60 142h145zM190 559v-146h-175v145l60 142h145z" />
    <glyph glyph-name="quotedblright" unicode="&#x201d;" horiz-adv-x="418" 
d="M30 554v146h175v-145l-60 -142h-145zM226 554v146h175v-145l-60 -142h-145z" />
    <glyph glyph-name="quotedblbase" unicode="&#x201e;" horiz-adv-x="404" 
d="M16 29v146h175v-145l-60 -142h-145zM212 29v146h175v-145l-60 -142h-145z" />
    <glyph glyph-name="dagger" unicode="&#x2020;" horiz-adv-x="526" 
d="M228 481l-212 -60v167l212 -60l-50 210h169l-50 -210l212 60v-167l-212 60l50 -481h-169z" />
    <glyph glyph-name="daggerdbl" unicode="&#x2021;" horiz-adv-x="526" 
d="M228 210l-212 -60v167l212 -60v224l-212 -60v167l212 -60l-50 210h169l-50 -210l212 60v-167l-212 60v-224l212 60v-167l-212 60l50 -210h-169z" />
    <glyph glyph-name="bullet" unicode="&#x2022;" horiz-adv-x="367" 
d="M49 363q0 29 10 53.5t28 42t42.5 27.5t53.5 10t53.5 -10t42.5 -27.5t28 -42t10 -53.5t-10 -53.5t-28 -42.5t-42.5 -28t-53.5 -10t-53.5 10t-42.5 28t-28 42.5t-10 53.5z" />
    <glyph glyph-name="ellipsis" unicode="&#x2026;" horiz-adv-x="624" 
d="M16 175h175v-175h-175v175zM224 175h175v-175h-175v175zM432 175h175v-175h-175v175z" />
    <glyph glyph-name="perthousand" unicode="&#x2030;" horiz-adv-x="1371" 
d="M204 275q-94 0 -141 53.5t-47 165.5t47 162.5t141 50.5q95 0 141 -50.5t46 -162.5t-45.5 -165.5t-141.5 -53.5zM552 700h184l-319 -700h-184zM205 379q21 0 21 114q0 57 -5 83.5t-16 26.5t-17.5 -26.5t-6.5 -83.5q0 -114 24 -114zM761 -7q-94 0 -141 53.5t-47 165.5
t47 162.5t141 50.5q95 0 141 -50.5t46 -162.5t-45.5 -165.5t-141.5 -53.5zM1167 -7q-94 0 -141 53.5t-47 165.5t47 162.5t141 50.5q95 0 141 -50.5t46 -162.5t-45.5 -165.5t-141.5 -53.5zM762 97q21 0 21 114q0 57 -5 83.5t-16 26.5t-17.5 -26.5t-6.5 -83.5q0 -114 24 -114z
M1168 97q21 0 21 114q0 57 -5 83.5t-16 26.5t-17.5 -26.5t-6.5 -83.5q0 -114 24 -114z" />
    <glyph glyph-name="guilsinglleft" unicode="&#x2039;" horiz-adv-x="295" 
d="M16 268l75 203h187l-75 -203l75 -203h-187z" />
    <glyph glyph-name="guilsinglright" unicode="&#x203a;" horiz-adv-x="295" 
d="M16 65l75 203l-75 203h187l75 -203l-75 -203h-187z" />
    <glyph glyph-name="fraction" unicode="&#x2044;" horiz-adv-x="457" 
d="M255 700h185l-239 -700h-185z" />
    <glyph glyph-name="franc" unicode="&#x20a3;" horiz-adv-x="469" 
d="M27 132h-31v120h31v448h425v-175h-250v-83h230v-160h-230v-30h91v-120h-91v-132h-175v132z" />
    <glyph glyph-name="lira" unicode="&#x20a4;" horiz-adv-x="480" 
d="M16 165h3q35 0 46.5 18.5t11.5 46.5v21h-61v110h61v25h-61v110h61v22q0 42 15 77t41.5 59.5t64 38.5t82.5 14q35 0 80 -10.5t89 -38.5l-51 -108q-44 30 -86 30q-26 0 -43 -14.5t-17 -47.5v-22h92v-110h-92v-25h92v-110h-92v-12q0 -11 -6 -22.5t-20 -21t-37 -16.5t-57 -9
v-5h331v-165h-447v165z" />
    <glyph glyph-name="peseta" unicode="&#x20a7;" horiz-adv-x="1451" 
d="M26 700h316q53 0 97.5 -19t76.5 -53t49.5 -80t17.5 -99t-18 -99t-50 -80t-76 -53.5t-97 -19.5h-141v-197h-175v700zM681 355h-66v165h67v112h175v-112h76v-165h-76v-157q0 -33 32 -33h45v-165h-96q-74 0 -115.5 35t-41.5 104v216zM325 362q37 0 60 24t23 63t-22.5 62.5
t-60.5 23.5h-124v-173h124zM975 165h296q10 0 10 10t-10 10l-166 9q-69 4 -104.5 42.5t-35.5 113.5q0 83 43 126.5t127 43.5h291v-165h-296q-10 0 -10 -10q0 -8 10 -10l166 -9q69 -4 104.5 -42.5t35.5 -113.5q0 -83 -43 -126.5t-127 -43.5h-291v165z" />
    <glyph glyph-name="Euro" unicode="&#x20ac;" horiz-adv-x="545" 
d="M47 513h49q17 42 43 77t62 60.5t82 39.5t103 14q41 0 77.5 -7.5t64.5 -21.5l-38 -154q-44 23 -110 23q-73 0 -112 -31h220l-40 -157h-207v-21h202l-40 -157h-125q35 -25 94 -25q38 0 81 9.5t75 25.5v-166q-29 -14 -65.5 -21.5t-80.5 -7.5q-59 0 -105.5 14.5t-82 39
t-60 58.5t-39.5 73h-79l30 157h20v21h-50z" />
    <glyph glyph-name="uni2113" unicode="&#x2113;" horiz-adv-x="468" 
d="M16 248q15 3 31 6.5t33 8.5v288q0 41 15.5 71t41.5 49.5t59 29t68 9.5q38 0 72 -11.5t59.5 -35t40.5 -59.5t15 -85q0 -50 -15.5 -93.5t-42 -80t-62 -67.5t-76.5 -55v-70q0 -32 20.5 -48t49.5 -16q14 0 30 4t31 13l36 -109q-35 -17 -71 -23.5t-68 -6.5q-44 0 -81 11
t-64 33t-42.5 55t-15.5 77v7q-17 -5 -32.5 -8t-31.5 -6v112zM255 354q31 29 50 66.5t19 86.5q0 38 -11 54.5t-25 16.5t-23.5 -12t-9.5 -34v-178z" />
    <glyph glyph-name="uni2116" unicode="&#x2116;" horiz-adv-x="1173" 
d="M899 180q-60 0 -107.5 18t-80.5 52t-50.5 83t-17.5 110q0 124 67.5 193t188.5 69q60 0 108 -18t81 -52t50.5 -82.5t17.5 -109.5t-17.5 -110t-50.5 -83t-81 -52t-108 -18zM26 700h333l61 -625h5v625h175v-700h-333l-61 625h-5v-625h-175v700zM900 345q81 0 81 98
q0 50 -19.5 73.5t-61.5 23.5q-43 0 -62.5 -23t-19.5 -74t19.5 -74.5t62.5 -23.5zM782 160h236v-160h-236v160z" />
    <glyph glyph-name="trademark" unicode="&#x2122;" horiz-adv-x="897" 
d="M101 535h-86v165h337v-165h-86v-192h-165v192zM376 700h239l12 -215h5l13 215h237v-357h-165v210h-5l-27 -210h-110l-27 210h-5v-210h-167v357z" />
    <glyph glyph-name="estimated" unicode="&#x212e;" horiz-adv-x="551" 
d="M275 20q63 0 113 26.5t80 72.5l23 -15q-34 -52 -89.5 -81.5t-126.5 -29.5q-56 0 -103.5 20t-82 55.5t-54 85t-19.5 107.5t19.5 106.5t54 84t82 55.5t103.5 20t103.5 -20.5t82 -57.5t54 -87t19.5 -110h-418v-171q30 -29 70.5 -45t88.5 -16zM435 279v157q-31 30 -71.5 47
t-88.5 17t-88.5 -16t-70.5 -45v-160h319z" />
    <glyph glyph-name="arrowleft" unicode="&#x2190;" horiz-adv-x="735" 
d="M15 347l248 248v-143l-77 -13v-5h534v-175h-534v-5l77 -13v-141z" />
    <glyph glyph-name="arrowup" unicode="&#x2191;" horiz-adv-x="525" 
d="M174 534h-5l-13 -77h-141l247 248l248 -248h-143l-13 77h-5v-534h-175v534z" />
    <glyph glyph-name="arrowright" unicode="&#x2192;" horiz-adv-x="735" 
d="M15 434h534v5l-77 13v143l248 -248l-248 -247v141l77 13v5h-534v175z" />
    <glyph glyph-name="arrowdown" unicode="&#x2193;" horiz-adv-x="525" 
d="M15 243h141l13 -77h5v534h175v-534h5l13 77h143l-248 -248z" />
    <glyph glyph-name="arrowboth" unicode="&#x2194;" horiz-adv-x="740" 
d="M15 350l248 247v-141l-77 -13v-5h368v5l-77 13v141l248 -247l-248 -248v143l77 13v5h-368v-5l77 -13v-143z" />
    <glyph glyph-name="arrowupdn" unicode="&#x2195;" horiz-adv-x="525" 
d="M15 243h141l13 -77h5v368h-5l-13 -77h-141l247 248l248 -248h-143l-13 77h-5v-368h5l13 77h143l-248 -248z" />
    <glyph glyph-name="uni2196" unicode="&#x2196;" horiz-adv-x="590" 
d="M365 657l-100 -99l-64 45l-3 -4l377 -377l-123 -124l-378 378l-4 -4l46 -64l-101 -101v350h350z" />
    <glyph glyph-name="uni2197" unicode="&#x2197;" horiz-adv-x="590" 
d="M15 222l377 377l-3 4l-64 -45l-100 99h350v-350l-101 101l46 64l-4 4l-378 -378z" />
    <glyph glyph-name="uni2198" unicode="&#x2198;" horiz-adv-x="590" 
d="M325 198l64 -45l3 4l-377 377l123 124l378 -378l4 4l-46 64l101 101v-351h-350z" />
    <glyph glyph-name="uni2199" unicode="&#x2199;" horiz-adv-x="590" 
d="M15 449l101 -101l-46 -64l4 -4l378 378l123 -124l-377 -377l3 -4l64 45l100 -100h-350v351z" />
    <glyph glyph-name="partialdiff" unicode="&#x2202;" horiz-adv-x="496" 
d="M108 666q44 20 87 31t83 11q98 0 149.5 -69.5t51.5 -217.5q0 -95 -21 -173.5t-59.5 -135t-91.5 -88t-116 -31.5q-85 0 -130 56t-45 159q0 60 15 110.5t42.5 87t66 57.5t85.5 21q62 0 103 -36q-7 53 -29.5 76.5t-60.5 23.5q-46 0 -90 -31zM326 331q-14 20 -29 28t-29 8
q-20 0 -38.5 -12.5t-33 -33t-23 -47.5t-8.5 -56q0 -41 14.5 -57.5t33.5 -16.5t37 14t33 39t26 59.5t17 74.5z" />
    <glyph glyph-name="product" unicode="&#x220f;" horiz-adv-x="555" 
d="M16 700h522v-900h-175v773h-172v-773h-175v900z" />
    <glyph glyph-name="summation" unicode="&#x2211;" horiz-adv-x="639" 
d="M622 -71v-127h-606l327 449l-327 449h606v-127h-356l234 -322l-234 -322h356z" />
    <glyph glyph-name="minus" unicode="&#x2212;" horiz-adv-x="535" 
d="M16 377h502v-175h-502v175z" />
    <glyph glyph-name="uni2215" unicode="&#x2215;" horiz-adv-x="457" 
d="M255 700h185l-239 -700h-185z" />
    <glyph glyph-name="uni2219" unicode="&#x2219;" horiz-adv-x="275" 
d="M47 371q0 18 7 34.5t19.5 28.5t29 19t35.5 7q37 0 63 -26t26 -63q0 -19 -7 -35.5t-19 -29t-28.5 -19.5t-34.5 -7q-38 0 -64.5 26.5t-26.5 64.5z" />
    <glyph glyph-name="radical" unicode="&#x221a;" horiz-adv-x="615" 
d="M100 368h-65v152h195l61 -166l138 392h169l-261 -746h-103z" />
    <glyph glyph-name="infinity" unicode="&#x221e;" horiz-adv-x="866" 
d="M221 103q-46 0 -84 15.5t-65 43t-41.5 66t-14.5 83.5q0 47 15.5 86.5t43 68.5t66.5 45.5t85 16.5q36 0 65.5 -9.5t54.5 -25.5t46 -37t40 -44q18 23 38.5 44t45.5 37t54.5 25.5t66.5 9.5q47 0 86 -16t67 -43.5t43.5 -65.5t15.5 -83t-15.5 -85t-44 -69t-68.5 -46t-88 -17
q-36 0 -66 9.5t-55 25.5t-45.5 37.5t-38.5 44.5q-18 -23 -39 -44.5t-46 -37.5t-55 -25.5t-67 -9.5zM250 246q34 0 60 19t49 48q-24 31 -50.5 51.5t-60.5 20.5q-32 0 -55 -18.5t-23 -50.5t23 -51t57 -19zM503 319q26 -32 52.5 -52.5t60.5 -20.5q32 0 56 19t24 50t-24 50.5
t-59 19.5q-34 0 -60 -18.5t-50 -47.5z" />
    <glyph glyph-name="integral" unicode="&#x222b;" horiz-adv-x="394" 
d="M109 525q0 43 13.5 78t38.5 59.5t59.5 38t77.5 13.5h79v-175h-47q-20 0 -33 -13t-13 -33v-518q0 -43 -13.5 -78t-38 -59.5t-59.5 -38t-78 -13.5h-79v175h47q20 0 33 13t13 33v518z" />
    <glyph glyph-name="approxequal" unicode="&#x2248;" horiz-adv-x="510" 
d="M16 448q26 29 60 44.5t72 15.5q32 0 58.5 -9.5t51.5 -21.5t50.5 -21.5t55.5 -9.5q36 0 71 15.5t58 44.5v-187q-27 -23 -61 -35.5t-69 -12.5q-34 0 -60.5 9.5t-51 21.5t-49.5 21.5t-56 9.5q-38 0 -73 -16t-57 -45v176zM16 248q26 29 60 44.5t72 15.5q32 0 58.5 -9.5
t51.5 -21.5t50.5 -21.5t55.5 -9.5q36 0 71 15.5t58 44.5v-187q-27 -23 -61 -35.5t-69 -12.5q-34 0 -60.5 9.5t-51 21.5t-49.5 21.5t-56 9.5q-38 0 -73 -16t-57 -45v176z" />
    <glyph glyph-name="notequal" unicode="&#x2260;" horiz-adv-x="536" 
d="M113 142h-96v175h155l7 20h-162v175h222l16 47h185l-16 -47h96v-175h-156l-7 -20h163v-175h-222l-17 -49h-185z" />
    <glyph glyph-name="lessequal" unicode="&#x2264;" horiz-adv-x="546" 
d="M16 355v54l513 193v-151l-216 -69l215 -69v-151zM16 147h512v-147h-512v147z" />
    <glyph glyph-name="greaterequal" unicode="&#x2265;" horiz-adv-x="546" 
d="M17 314l214 68l-215 69v151l513 -192v-54l-512 -193v151zM16 147h513v-147h-513v147z" />
    <glyph glyph-name="lozenge" unicode="&#x25ca;" horiz-adv-x="547" 
d="M273 806l257 -503l-257 -503l-257 503zM273 77l115 224l-115 225l-115 -225z" />
    <glyph glyph-name="uni2605" unicode="&#x2605;" horiz-adv-x="799" 
d="M248 267l-223 155h275l99 294l99 -294h276l-224 -155l93 -275l-244 170l-244 -170z" />
    <glyph glyph-name="uni2606" unicode="&#x2606;" horiz-adv-x="798" 
d="M248 267l-223 155h275l99 294l99 -294h275l-223 -155l93 -275l-244 170l-244 -170zM399 194l194 -136l-74 219l169 118h-208l-81 239l-81 -239h-208l169 -118l-74 -219z" />
    <glyph glyph-name="grave.case" horiz-adv-x="253" 
d="M13 888h163l68 -155h-114z" />
    <glyph glyph-name="dieresis.case" horiz-adv-x="335" 
d="M15 888h140v-155h-140v155zM176 888h140v-155h-140v155z" />
    <glyph glyph-name="macron.case" horiz-adv-x="340" 
d="M17 888h303v-155h-303v155z" />
    <glyph glyph-name="acute.case" horiz-adv-x="263" 
d="M80 888h163l-117 -155h-114z" />
    <glyph glyph-name="circumflex.case" horiz-adv-x="362" 
d="M109 888h146l89 -155h-146l-14 142h-2l-14 -142h-148z" />
    <glyph glyph-name="caron.case" horiz-adv-x="350" 
d="M20 888h148l14 -142h2l14 142h146l-89 -155h-146z" />
    <glyph glyph-name="breve.case" horiz-adv-x="305" 
d="M150 726q-37 0 -63.5 12.5t-42.5 34.5t-23.5 51.5t-7.5 63.5h81q0 -29 12 -47.5t44 -18.5t44 18.5t12 47.5h81q0 -34 -7.5 -63.5t-23.5 -51.5t-42 -34.5t-64 -12.5z" />
    <glyph glyph-name="dotaccent.case" horiz-adv-x="223" 
d="M18 888h175v-155h-175v155z" />
    <glyph glyph-name="ring.case" horiz-adv-x="273" 
d="M133 709q-48 0 -81.5 25.5t-33.5 75.5t33.5 75.5t81.5 25.5t81.5 -25.5t33.5 -75.5t-33.5 -75.5t-81.5 -25.5zM133 776q19 0 31.5 9.5t12.5 24.5q0 14 -12.5 24t-31.5 10t-31.5 -10t-12.5 -24q0 -15 12.5 -24.5t31.5 -9.5z" />
    <glyph glyph-name="tilde.case" horiz-adv-x="334" 
d="M17 733q0 86 22 120.5t78 34.5q18 0 33.5 -3.5t29.5 -11.5q11 -6 23 -10t24 -4q17 0 28.5 8t11.5 21h52q0 -43 -5 -73t-16 -48t-28.5 -26t-43.5 -8q-39 0 -73 17q-11 5 -22 8.5t-22 3.5q-17 0 -28.5 -8t-11.5 -21h-52z" />
    <glyph glyph-name="hungarumlaut.case" horiz-adv-x="367" 
d="M89 888h128l-117 -155h-79zM229 888h128l-117 -155h-79z" />
    <glyph glyph-name="caron.salt" horiz-adv-x="242" 
d="M50 554v146h175v-145l-60 -142h-145z" />
    <glyph glyph-name="uni0326.salt" horiz-adv-x="282" 
d="M54 29v146h175v-145l-60 -142h-145z" />
    </font>
</defs>
</svg>
