<?xml version="1.0" standalone="no"?>
<!DOCTYPE svg PUBLIC "-//W3C//DTD SVG 1.1//EN" "http://www.w3.org/Graphics/SVG/1.1/DTD/svg11.dtd" >
<svg xmlns="http://www.w3.org/2000/svg" xmlns:xlink="http://www.w3.org/1999/xlink" version="1.1">
<metadata>
Created by FontForge 20201107 at Sun May  5 12:23:05 2024
 By 
Typeface (c) (your company). 2024. All Rights Reserved
</metadata>
<defs>
<font id="DeleddaClosed-Black" horiz-adv-x="1433" >
  <font-face 
    font-family="Deledda Closed Black"
    font-weight="700"
    font-stretch="normal"
    units-per-em="2048"
    panose-1="2 0 5 0 0 0 0 0 0 0"
    ascent="1638"
    descent="-410"
    x-height="963"
    cap-height="1430"
    bbox="-423 -465 2207 2056"
    underline-thickness="150"
    underline-position="-292"
    unicode-range="U+0020-2212"
  />
<missing-glyph horiz-adv-x="1139" 
 />
    <glyph glyph-name=".notdef" horiz-adv-x="1139" 
 />
    <glyph glyph-name=".null" horiz-adv-x="0" 
 />
    <glyph glyph-name="nonmarkingreturn" horiz-adv-x="682" 
 />
    <glyph glyph-name="space" unicode=" " horiz-adv-x="623" 
 />
    <glyph glyph-name="space" unicode="&#xa0;" horiz-adv-x="623" 
 />
    <glyph glyph-name="exclam" unicode="!" horiz-adv-x="657" 
d="M353 476h-353v953h353v-953zM224 0h-95q-37 0 -76 42t-49 80q-4 26 -4 62q0 37 4 61q10 40 49 82.5t76 42.5h95q39 0 78 -43t47 -85q4 -23 4 -57q0 -35 -4 -57q-8 -42 -47 -85t-78 -43z" />
    <glyph glyph-name="quotedbl" unicode="&#x22;" horiz-adv-x="1038" 
d="M853 1169h-217v264q-51 0 -85 16t-46 65q-4 27 -4 72t4 72q10 39 49 71t76 32h95q26 0 55 -16t49.5 -44.5t20.5 -66.5l3 -79v-386zM352 1169h-217v264q-51 0 -85 16t-46 65q-4 27 -4 72t4 72q10 39 49 71t76 32h95q26 0 55 -16t49.5 -44.5t20.5 -66.5l3 -79v-386z" />
    <glyph glyph-name="numbersign" unicode="#" horiz-adv-x="1734" 
d="M1033 0h-352l85 248h-277l-86 -248h-352l86 248h-137v352h216l93 230h-309v352h388l86 248h352l-85 -248h277l86 248h352l-86 -248h137v-352h-216l-93 -230h309v-352h-388zM846 600l93 230h-278l-93 -230h278z" />
    <glyph glyph-name="dollar" unicode="$" horiz-adv-x="1500" 
d="M821 -160h-351v130h-111q-139 0 -239 96q-77 74 -96 184q-16 93 -24 191h326l11 -44q13 -59 35.5 -75.5t97.5 -16.5v242h-87q-49 0 -98 16q-119 33 -185.5 156t-66.5 268q0 86 26.5 166.5t82.5 141.5t143 89q49 16 98 16h87v130h351v-130h68q102 0 184 -54
q120 -78 150 -229q12 -73 19 -146h-332v2q0 6 -4.5 25t-23.5 35t-61 16v-171h114q49 0 95 -13q89 -27 147 -92.5t85.5 -155.5t27.5 -186q0 -156 -67.5 -287.5t-192.5 -162.5q-46 -11 -95 -11h-114v-130zM469 887v173q-24 0 -46.5 -4.5t-37 -23t-14.5 -59.5q0 -39 14.5 -57
t37 -23.5t46.5 -5.5zM822 302q47 0 77 6.5t44.5 31.5t14.5 83q0 55 -16 80.5t-46.5 33.5t-73.5 8v-243z" />
    <glyph glyph-name="percent" unicode="%" horiz-adv-x="1987" 
d="M758 0h-395l804 1430h394zM539 715h-329q-73 0 -127.5 45t-68.5 118q-14 98 -14 195q0 98 14 194q14 72 68.5 117.5t127.5 45.5h329q73 0 127.5 -45.5t67.5 -117.5q15 -96 15 -194q0 -97 -15 -195q-13 -73 -67.5 -118t-127.5 -45zM381 976q14 0 26 7.5t15 22.5
q16 44 16 66q0 23 -16 67q-12 30 -41 30q-20 0 -34 -5.5t-20 -24.5q-17 -44 -17 -67q0 -22 17 -66q12 -30 41 -30h13zM1707 0h-328q-74 0 -128 45.5t-68 117.5q-16 98 -16 195q0 96 16 194q14 72 68 117.5t128 45.5h328q74 0 128 -45.5t65 -117.5q17 -98 17 -194
q0 -97 -17 -195q-11 -72 -65 -117.5t-128 -45.5zM1550 261q28 0 41 30q14 43 14 66q0 22 -14 67q-13 30 -41 30q-22 0 -36.5 -5t-18.5 -25q-16 -45 -16 -67q0 -23 16 -66q3 -14 13.5 -22t24.5 -8h17z" />
    <glyph glyph-name="ampersand" unicode="&#x26;" horiz-adv-x="1568" 
d="M1338 0h-375l-33 101q-111 -96 -263 -98v-3l-120.5 1t-151.5 4q-139 31 -249 137.5t-137 240.5q-9 49 -9 99q0 83 25 165q17 59 55 114q2 4 14.5 17t27.5 29.5t27.5 28.5t14.5 12q-54 106 -54 218t60.5 208.5t191.5 144.5q45 13 98 13h364q62 0 112 -19q89 -30 148 -99
t75 -162l16 -125h-389q-3 39 -35 56.5t-79 17.5q-32 0 -75 -3t-75 -18.5t-32 -52.5q0 -34 25 -49.5t63.5 -19.5t79.5 -4h33q69 0 140 -15.5t128.5 -61.5t90.5 -135l103 -239q27 23 53 42t51 50l100 -274q-28 -29 -54.5 -45t-51.5 -37zM591 310q132 3 244 54l-54 163
q-24 63 -68 90t-111 27q-79 0 -131.5 -22.5t-78.5 -59.5t-26 -82q0 -63 56 -115t166 -55h3z" />
    <glyph glyph-name="quotesingle" unicode="'" horiz-adv-x="548" 
d="M352 1169h-217v264q-51 0 -85 16t-46 65q-4 27 -4 72t4 72q10 39 49 71t76 32h95q26 0 55 -16t49.5 -44.5t20.5 -66.5l3 -79v-386z" />
    <glyph glyph-name="parenleft" unicode="(" horiz-adv-x="873" 
d="M676 -310h-264q-84 0 -165.5 60t-139 156t-72.5 208q-35 285 -35 550q0 264 35 548q15 113 72.5 209.5t139 157t165.5 60.5h264v-337h-78q-75 0 -125.5 -35.5t-81.5 -91.5t-44 -121q-39 -194 -39 -390t39 -392q13 -65 42 -121t80.5 -91.5t133.5 -35.5h73v-334z" />
    <glyph glyph-name="parenright" unicode=")" horiz-adv-x="873" 
d="M0 -310v334h73q82 0 133.5 35.5t80.5 91.5t42 121q39 196 39 392t-39 390q-13 65 -44 121t-81.5 91.5t-125.5 35.5h-78v337h264q84 0 165.5 -60.5t139 -157t72.5 -209.5q35 -284 35 -548q0 -265 -35 -550q-15 -112 -72.5 -208t-139 -156t-165.5 -60h-264z" />
    <glyph glyph-name="asterisk" unicode="*" horiz-adv-x="1140" 
d="M507 975l-109 150l-108 -150l-218 158l109 150l-176 57l83 255l176 -57v185h269v-185l176 57l83 -255l-176 -57l108 -150z" />
    <glyph glyph-name="plus" unicode="+" horiz-adv-x="1130" 
d="M590 307h-353v237h-237v353h237v237h353v-237h237v-353h-237v-237z" />
    <glyph glyph-name="comma" unicode="," horiz-adv-x="601" 
d="M352 -260h-217v264q-51 0 -85 16t-46 65q-4 27 -4 72t4 72q10 39 49 71t76 32h95q26 0 55 -16t49.5 -44.5t20.5 -66.5l3 -79v-386z" />
    <glyph glyph-name="hyphen" unicode="-" horiz-adv-x="1128" 
d="M912 383h-912v352h912v-352z" />
    <glyph glyph-name="hyphen" unicode="&#xad;" horiz-adv-x="1128" 
d="M912 383h-912v352h912v-352z" />
    <glyph glyph-name="period" unicode="." horiz-adv-x="605" 
d="M224 0h-95q-37 0 -76 42t-49 80q-4 26 -4 62q0 37 4 61q10 40 49 82.5t76 42.5h95q39 0 78 -43t47 -85q4 -23 4 -57q0 -35 -4 -57q-8 -42 -47 -85t-78 -43z" />
    <glyph glyph-name="slash" unicode="/" horiz-adv-x="902" 
d="M378 5h-378l410 1428h378z" />
    <glyph glyph-name="zero" unicode="0" horiz-adv-x="1501" 
d="M879 0h-486q-127 0 -229.5 88t-126.5 214q-37 211 -37 412q0 202 37 411q14 83 66.5 151.5t128.5 111t161 42.5h486q84 0 160.5 -42.5t128.5 -111t67 -151.5q37 -209 37 -411q0 -201 -37 -412q-24 -126 -126.5 -214t-229.5 -88zM670 329q73 0 131 54t78 128
q20 70 29.5 116t9.5 86q0 41 -9.5 87t-29.5 116q-20 74 -78 128t-131 54h-68q-73 0 -131 -54t-78 -128q-20 -70 -29.5 -116t-9.5 -87q0 -40 9.5 -86t29.5 -116q20 -74 78 -128t131 -54h68z" />
    <glyph glyph-name="one" unicode="1" horiz-adv-x="796" 
d="M530 0h-352v1078h-178v352h530v-1430z" />
    <glyph glyph-name="two" unicode="2" horiz-adv-x="1506" 
d="M1264 0h-1261l-3 109q0 77 9 187t36.5 221t82 198t144.5 122q48 16 101 16h342q49 0 94 6.5t73.5 32t28.5 84.5q0 50 -33.5 76.5t-79.5 36t-83 9.5h-46q-49 0 -92.5 -9.5t-74.5 -35t-45 -72.5h-375q9 85 22 166q21 125 114.5 204t219.5 79h486q45 0 87 -11
q94 -31 154.5 -97t89.5 -154.5t29 -182.5q0 -151 -70.5 -281.5t-202.5 -170.5q-42 -11 -87 -11h-339q-67 0 -104.5 -18.5t-54.5 -45.5t-21.5 -55.5t-4.5 -49.5h864v-353z" />
    <glyph glyph-name="three" unicode="3" horiz-adv-x="1461" 
d="M916 0h-563q-126 0 -218.5 79t-115.5 204q-12 83 -19 165h375q20 -69 78 -103.5t131 -34.5h98q48 0 96 7.5t80.5 30.5t32.5 71t-32.5 77t-80.5 41t-96 12h-244v332h195q46 0 90.5 5t73.5 27.5t29 75.5t-31.5 76t-79.5 28t-95 5h-36q-49 0 -92 -9.5t-73.5 -35t-43.5 -72.5
h-375q7 84 19 169q23 124 115.5 202t218.5 78h498q53 0 97 -14q92 -33 148 -97.5t81 -145.5t25 -160q0 -91 -28 -163.5t-76 -96.5q70 -15 123 -116.5t53 -229.5q0 -77 -25 -153t-83 -138.5t-155 -101.5q-24 -8 -51.5 -11t-43.5 -3z" />
    <glyph glyph-name="four" unicode="4" horiz-adv-x="1533" 
d="M1154 0h-352v367h-422l-50 4q-107 9 -180.5 84t-111.5 190t-38 243v542h360v-500q0 -82 37.5 -133t91 -75t103.5 -24h210v732h352v-732h173v-331h-173v-367z" />
    <glyph glyph-name="five" unicode="5" horiz-adv-x="1401" 
d="M800 0h-487q-124 0 -217.5 79t-116.5 204q-12 104 -19 209h375q2 -45 21 -81.5t64 -57.5t127 -21h82q50 0 93.5 5.5t70 35t26.5 99.5v6q-2 69 -30 101t-70.5 40.5t-87.5 8.5h-630v802h970v-351h-620v-122h449q16 0 49 -3q112 -20 185.5 -91t109 -173t35.5 -212
q0 -115 -38 -221t-111.5 -174.5t-180.5 -77.5z" />
    <glyph glyph-name="six" unicode="6" horiz-adv-x="1511" 
d="M917 0h-546q-126 0 -218.5 77.5t-115.5 202.5q-37 217 -37 434q0 218 37 433q23 125 115.5 204t218.5 79h511q124 0 217.5 -79t116.5 -204l14 -122h-386q-27 55 -59 75t-93 20q-88 0 -150 -7.5t-99 -33.5t-50 -79q-11 -28 -22 -106q25 25 61.5 44t101.5 19h383
q17 0 49 -3q113 -20 186 -91t109 -173t36 -212q0 -116 -38 -222t-111.5 -175t-181.5 -78zM763 331q42 0 82 8.5t65.5 40t25.5 98.5q0 68 -26.5 99.5t-68 40t-85.5 8.5l-198 -1q-80 -4 -130 -31.5t-50 -91.5q0 -20 7 -45l8 -30q12 -46 43 -66t74 -24.5t92 -4.5z" />
    <glyph glyph-name="seven" unicode="7" horiz-adv-x="1407" 
d="M712 0h-372v435q0 136 65 255t185 166q9 6 21 6q20 8 36 8q72 17 105 61t41.5 93t8.5 77h-802v331h1196l3 -107q0 -90 -12.5 -223.5t-53 -258t-122.5 -199.5q-30 -30 -57.5 -41t-72.5 -21q-45 -7 -83 -30.5t-62 -63.5t-24 -97v-391z" />
    <glyph glyph-name="eight" unicode="8" horiz-adv-x="1554" 
d="M921 0h-514q-37 0 -71.5 1.5t-56.5 9.5q-103 40 -164.5 104.5t-88 143.5t-26.5 161q0 100 30.5 191t75 149t89.5 63q-41 13 -68.5 78t-27.5 152q0 70 23.5 141.5t78 129.5t146.5 89q48 17 101 17h432q53 0 101 -17q92 -31 146.5 -89t78 -129.5t23.5 -141.5
q0 -87 -27.5 -152t-68.5 -78q45 -5 89.5 -63t75 -149t30.5 -191q0 -82 -26.5 -161t-88 -143.5t-164.5 -104.5q-22 -8 -57 -9.5t-71 -1.5zM664 960l4 2q79 3 118.5 23t39.5 45q0 24 -38.5 44t-116.5 24h-14q-78 -4 -116.5 -24t-38.5 -44q0 -25 39.5 -45t118.5 -23zM731 332
q73 0 121.5 21t72.5 54.5t24 70.5t-24.5 71.5t-73 56.5t-120.5 22h-134q-72 0 -120.5 -22t-73 -56.5t-24.5 -71.5t24 -70.5t72.5 -54.5t121.5 -21h134z" />
    <glyph glyph-name="nine" unicode="9" horiz-adv-x="1532" 
d="M379 1430h547q126 0 218.5 -78t115.5 -202q37 -217 37 -435q0 -217 -37 -432q-23 -125 -115.5 -204t-218.5 -79h-512q-124 0 -217.5 79t-116.5 204q-7 61 -13 122h385q27 -56 59.5 -75.5t93.5 -19.5q88 0 149.5 7.5t98.5 33.5t51 78q11 29 22 106q-26 -25 -62 -43.5
t-101 -18.5h-384q-16 0 -49 3q-112 19 -185.5 90t-109 173.5t-35.5 212.5q0 115 38 221.5t111.5 175.5t180.5 78zM534 1099q-43 0 -83 -9t-65.5 -40t-25.5 -99t27 -99t68 -39.5t85 -8.5h198q80 5 130 32.5t50 90.5q0 21 -6 46l-8 30q-13 45 -43.5 65.5t-74 25t-91.5 4.5z
" />
    <glyph glyph-name="colon" unicode=":" horiz-adv-x="611" 
d="M219 600h-95q-37 0 -76 42t-49 80q-4 26 -4 62q0 37 4 61q10 40 49 82.5t76 42.5h95q39 0 78 -43t47 -85q4 -23 4 -57q0 -35 -4 -57q-8 -42 -47 -85t-78 -43zM219 0h-95q-37 0 -76 42t-49 80q-4 26 -4 62q0 37 4 61q10 40 49 82.5t76 42.5h95q39 0 78 -43t47 -85
q4 -23 4 -57q0 -35 -4 -57q-8 -42 -47 -85t-78 -43z" />
    <glyph glyph-name="semicolon" unicode=";" horiz-adv-x="634" 
d="M219 600h-95q-37 0 -76 42t-49 80q-4 26 -4 62q0 37 4 61q10 40 49 82.5t76 42.5h95q39 0 78 -43t47 -85q4 -23 4 -57q0 -35 -4 -57q-8 -42 -47 -85t-78 -43zM352 -260h-217v264q-51 0 -85 16t-46 65q-4 27 -4 72t4 72q10 39 49 71t76 32h95q26 0 55 -16t49.5 -44.5
t20.5 -66.5l3 -79v-386z" />
    <glyph glyph-name="less" unicode="&#x3c;" horiz-adv-x="993" 
d="M706 1378v-411l-335 -179l335 -180v-410l-701 355v470z" />
    <glyph glyph-name="equal" unicode="=" horiz-adv-x="1178" 
d="M890 858h-890v352h890v-352zM890 353h-890v352h890v-352z" />
    <glyph glyph-name="greater" unicode="&#x3e;" horiz-adv-x="955" 
d="M5 1378l701 -355v-470l-701 -355v410l335 180l-335 179v411z" />
    <glyph glyph-name="question" unicode="?" horiz-adv-x="1327" 
d="M492 0h-95q-37 0 -76 42.5t-49 82.5q-5 24 -5 60t5 62q10 38 49 80.5t76 42.5h95q36 0 76 -42.5t49 -82.5l2 -60l-2 -57q-9 -42 -49 -85t-76 -43zM622 476h-372v37q0 115 59.5 216t187.5 152q24 8 57 14.5l33 6.5q36 5 66.5 9t50 21.5t19.5 64.5q0 55 -24 81t-64 34
t-89 8q-84 0 -146 -38.5t-85 -122.5h-375q7 95 19 191q23 124 116.5 202t217.5 78h443q23 0 45 -2t42 -9q94 -31 154.5 -89t89 -132t28.5 -153q0 -74 -24 -145q-31 -85 -93.5 -149.5t-154.5 -90.5q-31 -8 -43 -8q-42 -5 -77.5 -20.5t-58 -45.5t-22.5 -81v-29z" />
    <glyph glyph-name="at" unicode="@" horiz-adv-x="1665" 
d="M888 0h-519q-124 0 -217.5 79t-116.5 204q-35 216 -35 433t35 434q23 124 116.5 202t217.5 78h742q126 0 239 -78t139 -202q34 -213 34 -426l-4 -161q0 -29 -11 -71.5t-45 -85.5t-102.5 -72.5t-187.5 -29.5q-89 0 -156 29t-96 83q-68 -50 -153 -60h-15q-52 0 -120.5 13
t-111.5 41q-68 55 -79 142q-10 79 -10 159l2 64q1 48 7 100.5t31 94.5q38 60 106.5 84t138.5 24l65 -5q32 -4 60 -24q35 -24 35 -33v49h215l8 -500q0 -18 14.5 -32t34.5 -14q14 0 33.5 9t23.5 24q7 63 7 134q0 160 -37 317q-22 72 -80.5 116t-131.5 44h-405
q-73 0 -131.5 -44t-80.5 -116q-39 -140 -39 -276t39 -279q20 -70 69 -113.5t143 -43.5h329v-291zM755 586q48 0 87 31q36 37 35 90v5q0 33 -5 63t-30 48q-36 25 -78 25q-40 0 -74 -21.5t-44 -62.5l-4 -44q0 -43 20 -84q14 -26 39.5 -38t53.5 -12z" />
    <glyph glyph-name="A" unicode="A" 
d="M1354 0h-352l-83 229h-624l-83 -229h-352l571 1430h352zM770 581l-163 430l-163 -430h326z" />
    <glyph glyph-name="B" unicode="B" horiz-adv-x="1526" 
d="M943 0h-943v1430h796q15 0 46 -3t55 -11q92 -38 144.5 -90.5t73 -111t20.5 -113.5q0 -77 -24 -135t-46 -75q131 -48 192 -159t61 -242q0 -117 -45 -228.5t-129 -183.5t-201 -78zM563 953q95 0 142 15t47 69q0 37 -23 54.5t-65.5 23t-100.5 5.5h-210v-167h210zM711 310
q105 0 166 53t61 124q0 79 -65 128t-162 49h-358v-354h358z" />
    <glyph glyph-name="C" unicode="C" horiz-adv-x="1562" 
d="M986 0h-617q-124 0 -217.5 77.5t-116.5 202.5q-35 216 -35 433t35 434q23 125 116.5 204t217.5 79h617q124 0 217.5 -79t116.5 -204q21 -139 30 -283h-359q-8 73 -32.5 125t-74 80.5t-132.5 28.5h-149q-76 0 -133.5 -34.5t-78.5 -104.5q-39 -132 -39 -244t39 -245
q21 -71 78.5 -106t133.5 -35h149q77 0 123.5 29.5t71 70t34 78t10.5 56.5h359q-9 -142 -30 -283q-23 -125 -116.5 -202.5t-217.5 -77.5z" />
    <glyph glyph-name="D" unicode="D" horiz-adv-x="1491" 
d="M900 0h-900v1430h900q126 0 219.5 -79t114.5 -204q37 -215 37 -433q0 -217 -37 -434q-21 -125 -114.5 -202.5t-219.5 -77.5zM669 310q73 0 131.5 33.5t80.5 104.5q38 138 38 267q0 128 -38 266q-22 69 -80.5 104t-131.5 35h-316v-810h316z" />
    <glyph glyph-name="E" unicode="E" horiz-adv-x="1392" 
d="M1155 0h-1155v1430h1155v-331h-803v-168h803v-331h-803v-269h803v-331z" />
    <glyph glyph-name="F" unicode="F" horiz-adv-x="1364" 
d="M352 0h-352v1430h1155v-331h-803v-189h803v-331h-803v-579z" />
    <glyph glyph-name="G" unicode="G" horiz-adv-x="1595" 
d="M982 0h-611q-126 0 -218.5 79t-115.5 204q-37 216 -37 433t37 434q23 124 115.5 202t218.5 78h614q127 0 219.5 -78t114.5 -202q17 -101 25 -202h-367q-5 28 -14 55q-12 47 -43 67.5t-74 25.5t-92 5h-152q-49 0 -92 -5t-74 -25.5t-43 -67.5q-39 -143 -39 -287t39 -287
q12 -46 43 -67t74 -25.5t92 -4.5h149q49 0 94.5 3.5t78 24t45.5 67.5q12 30 16 59h-416v332h783v-60q0 -61 -3 -166q0 -32 -2 -62q-9 -126 -30 -247q-21 -125 -114.5 -204t-220.5 -79z" />
    <glyph glyph-name="H" unicode="H" horiz-adv-x="1503" 
d="M1270 0h-352v643h-566v-643h-352v1430h352v-456h566v456h352v-1430z" />
    <glyph glyph-name="I" unicode="I" horiz-adv-x="598" 
d="M352 0h-352v1430h352v-1430z" />
    <glyph glyph-name="J" unicode="J" horiz-adv-x="1366" 
d="M804 0h-519q-123 0 -217 77.5t-117 204.5q-23 140 -31 282h358q15 -104 75.5 -168.5t163.5 -64.5h54q74 0 132.5 34t78.5 105q39 143 39 287v673h352v-715q0 -217 -35 -433q-23 -125 -116 -203.5t-218 -78.5z" />
    <glyph glyph-name="K" unicode="K" horiz-adv-x="1497" 
d="M1300 0h-394l-453 599h-101v-599h-352v1430h352v-500h126l364 500h395l-497 -672z" />
    <glyph glyph-name="L" unicode="L" horiz-adv-x="1276" 
d="M1070 0h-1070v1430h352v-1099h718v-331z" />
    <glyph glyph-name="M" unicode="M" horiz-adv-x="1869" 
d="M1648 0h-352v771l-317 -771h-310l-317 771v-771h-352v1430h437l387 -924l387 924h437v-1430z" />
    <glyph glyph-name="N" unicode="N" horiz-adv-x="1495" 
d="M1270 0h-394l-524 826v-826h-352v1430h394l524 -826v826h352v-1430z" />
    <glyph glyph-name="O" unicode="O" horiz-adv-x="1577" 
d="M942 0h-530q-124 0 -237.5 77.5t-139.5 202.5q-35 217 -35 434q0 218 35 433q26 125 139.5 204t237.5 79h530q127 0 239.5 -79t138.5 -204q35 -215 35 -433q0 -217 -35 -434q-26 -125 -138.5 -202.5t-239.5 -77.5zM752 329q76 0 134 55t78 127q19 70 29 116t10 86
q0 41 -10 87t-29 116q-20 74 -78 128t-134 54h-149q-74 0 -132 -54t-80 -128q-20 -70 -29.5 -116t-9.5 -87q0 -40 9.5 -86t29.5 -116q22 -72 80 -127t132 -55h149z" />
    <glyph glyph-name="P" unicode="P" horiz-adv-x="1430" 
d="M351 0h-351v1430h881q16 0 48 -3q113 -20 186.5 -96.5t109 -188.5t35.5 -232q0 -126 -38 -242.5t-111.5 -191.5t-181.5 -85l-48 -2h-530v-389zM668 719q37 0 77.5 6.5t75.5 26t57 57.5t22 100q0 60 -22 97.5t-57 57.5t-75.5 27t-77.5 7h-316v-379h316z" />
    <glyph glyph-name="Q" unicode="Q" horiz-adv-x="1572" 
d="M1372 -130h-394l-104 133h-505q-124 0 -217.5 79t-116.5 204q-35 215 -35 432t35 432q23 125 116.5 204t217.5 79h617q124 0 217.5 -79t116.5 -204q35 -215 35 -432t-35 -432q-23 -125 -111 -201h-3zM687 335l-218 280h332l130 -172q21 34 33 71q19 71 29 117.5t10 86.5
t-10 85.5t-29 115.5q-22 74 -79 128t-133 54h-149q-76 0 -133.5 -54t-78.5 -128q-20 -70 -29.5 -115.5t-9.5 -85.5t9.5 -86.5t29.5 -117.5q21 -72 78.5 -125.5t133.5 -53.5h84z" />
    <glyph glyph-name="R" unicode="R" horiz-adv-x="1474" 
d="M1253 0h-394l-288 389h-218v-389h-353v1432h837q20 0 92 -5q113 -20 186.5 -96.5t109 -188t35.5 -231.5t-34.5 -231.5t-101.5 -187.5t-165 -95zM668 721q37 0 77.5 6.5t75.5 26t57 57.5t22 99t-22 98.5t-57 57.5t-75.5 27t-77.5 7h-316v-379h316z" />
    <glyph glyph-name="S" unicode="S" horiz-adv-x="1451" 
d="M898 0h-579q-70 0 -130.5 26t-106.5 72q-79 72 -98 185q-16 93 -24 187h370q3 -20 10 -41q13 -46 44 -67t74.5 -25.5t93.5 -4.5l145 -1q44 0 85 6.5t67.5 32.5t26.5 84q0 49 -32.5 70.5t-81.5 27t-98 5.5h-318q-27 0 -51.5 5t-49.5 11q-119 34 -185.5 160.5t-66.5 275.5
q0 89 26.5 172t82.5 145t143 90q48 14 101 14h484q97 0 182 -52q123 -78 152 -228q11 -73 19 -150q-171 0 -273 1.5l-102 1.5q-14 47 -45.5 72.5t-74.5 35t-92 9.5h-68q-39 0 -74.5 -6.5t-58 -31t-22.5 -76.5q0 -36 28.5 -51.5t71.5 -19t86 -3.5h339q30 0 50 -3.5t42 -9.5
q89 -27 147 -94.5t85.5 -160t27.5 -190.5q0 -160 -67.5 -294.5t-192.5 -165.5q-22 -5 -45 -9.5t-47 -4.5z" />
    <glyph glyph-name="T" unicode="T" horiz-adv-x="1275" 
d="M694 0h-353v1099h-401v331h1155v-331h-401v-1099z" />
    <glyph glyph-name="U" unicode="U" horiz-adv-x="1550" 
d="M943 0h-573q-126 0 -219 78.5t-116 203.5q-35 216 -35 433v715h352v-673q0 -68 12.5 -142.5t41.5 -138.5t77 -104.5t119 -40.5h108q71 0 119 40.5t77 104.5t41.5 138.5t12.5 142.5v673h353v-715l-9 -156t-27 -277q-23 -125 -116 -203.5t-218 -78.5z" />
    <glyph glyph-name="V" unicode="V" horiz-adv-x="1413" 
d="M783 0h-352l-571 1430h352l395 -989l395 989h352z" />
    <glyph glyph-name="W" unicode="W" horiz-adv-x="2042" 
d="M1555 0h-352l-268 873l-269 -873h-352l-444 1430h352l268 -873l268 873h353l268 -873l268 873h352z" />
    <glyph glyph-name="X" unicode="X" horiz-adv-x="1548" 
d="M1376 0h-395l-363 485l-364 -485h-394l561 758l-498 672h395l300 -399l300 399h394l-497 -672z" />
    <glyph glyph-name="Y" unicode="Y" horiz-adv-x="1555" 
d="M804 0h-352v643l-582 787h394l364 -506l363 506h394l-581 -787v-643z" />
    <glyph glyph-name="Z" unicode="Z" horiz-adv-x="1381" 
d="M1155 0h-1155v331l705 768h-705v331h1155v-331l-705 -768h705v-331z" />
    <glyph glyph-name="bracketleft" unicode="[" horiz-adv-x="873" 
d="M598 -340h-598v2138h598v-352h-246v-1434h246v-352z" />
    <glyph glyph-name="backslash" unicode="\" horiz-adv-x="875" 
d="M410 5l-410 1428h368l410 -1428h-368z" />
    <glyph glyph-name="bracketright" unicode="]" horiz-adv-x="873" 
d="M0 -340v352h246v1434h-246v352h598v-2138h-598z" />
    <glyph glyph-name="asciicircum" unicode="^" horiz-adv-x="1237" 
d="M1100 1089h-395l-157 249l-157 -249h-394l354 630h394z" />
    <glyph glyph-name="underscore" unicode="_" horiz-adv-x="1526" 
d="M1361 -388h-1361v352h1361v-352z" />
    <glyph glyph-name="grave" unicode="`" horiz-adv-x="692" 
d="M525 980h-352l-173 583h352z" />
    <glyph glyph-name="a" unicode="a" horiz-adv-x="1135" 
d="M926 0h-312v117q-32 -61 -89 -89t-129 -28h-184q-88 0 -154.5 56t-82.5 145q-5 37 -5 91q0 64 5 105q17 83 94.5 137t163.5 61h370q-5 36 -14 68q-10 31 -34 38.5t-55 7.5h-28q-49 0 -74 -17t-40 -51h-334l11 125q16 90 82.5 145.5t153.5 55.5h354q61 0 133.5 -29
t108.5 -76q27 -42 38 -96q21 -140 21 -282v-484zM500 258q30 0 53 7.5t36 38.5l19 55h-203q-47 0 -70.5 -16t-23.5 -35q0 -18 23.5 -34t70.5 -16h95z" />
    <glyph glyph-name="b" unicode="b" horiz-adv-x="1174" 
d="M701 0h-169q-72 0 -130 27.5t-88 89.5v-117h-314v1431h314v-582q30 62 88 89.5t130 27.5h185q21 -1 75 -18q120 -52 146 -181q24 -150 24 -284q0 -141 -24 -283q-16 -88 -83 -144t-154 -56zM493 300l15 1q42 -1 86.5 29t51.5 111l2 42q0 11 -3.5 42.5t-8.5 54.5
q-14 45 -55 65.5t-88 20.5q-183 0 -179 -179q0 -95 41 -141t138 -46z" />
    <glyph glyph-name="c" unicode="c" horiz-adv-x="1151" 
d="M715 0h-454q-88 0 -154 55.5t-83 142.5q-24 143 -24 284q0 142 24 284q17 88 83 143.5t154 55.5h454q89 0 156 -55.5t83 -143.5q11 -110 19 -220h-321q-5 37 -13 74q-9 31 -33.5 38.5t-55.5 7.5h-96q-39 0 -71 -25t-43 -65q-18 -55 -18 -100q0 -42 18 -90
q13 -38 44 -62.5t70 -24.5h96q31 0 55.5 7.5t33.5 38.5q8 33 13 71h321q-8 -111 -19 -218q-16 -87 -83 -142.5t-156 -55.5z" />
    <glyph glyph-name="d" unicode="d" horiz-adv-x="1181" 
d="M962 0h-314v117q-30 -62 -88.5 -89.5t-129.5 -27.5h-170q-69 0 -127 37t-90 99q-13 30 -20 64q-23 142 -23 283q0 76 7 179t35 166q42 84 128 120q53 17 75 18h185q71 0 129.5 -27.5t88.5 -89.5v582h314v-1431zM468 300q98 0 139 46t41 141q0 100 -47.5 139.5
t-145.5 39.5q-42 -1 -79.5 -24t-49.5 -62q-6 -23 -9 -54.5t-3 -42.5l1 -42q8 -81 52 -111t87 -29z" />
    <glyph glyph-name="e" unicode="e" horiz-adv-x="1172" 
d="M715 0h-456q-88 0 -154 56t-83 145q-22 141 -22 283q0 141 22 282q17 90 83 145.5t154 55.5h456q88 0 154.5 -55.5t82.5 -145.5q22 -139 22 -280q0 -58 -3 -116h-647q5 -33 14 -66q9 -31 33 -38.5t56 -7.5h93q36 0 65 8.5t43 37.5h335q-4 -51 -11 -103
q-16 -89 -82.5 -145t-154.5 -56zM650 620q-5 21 -13 43q-9 31 -33.5 38.5t-56.5 7.5h-120q-32 0 -56 -7.5t-33 -38.5q-9 -22 -14 -43h326z" />
    <glyph glyph-name="f" unicode="f" horiz-adv-x="838" 
d="M372 0h-313v652h-129v314h129q1 133 23 266q16 89 83 144t154 55h255q88 0 154 -55.5t83 -143.5q6 -63 11 -126h-334q-1 20 -4.5 39.5t-12 33t-25.5 13.5q-35 0 -50.5 -24t-19 -74t-3.5 -128h216v-314h-217v-652z" />
    <glyph glyph-name="g" unicode="g" horiz-adv-x="1183" 
d="M588 -450h-269q-90 0 -156.5 55.5t-83.5 142.5q-7 70 -10 139h328q14 -34 49 -45.5t74 -11.5h6q9 0 29.5 5t42 24.5t37 60t15.5 111.5v84q-29 -62 -87.5 -89.5t-129.5 -27.5h-174q-88 0 -154 56t-83 143q-22 142 -22 284q0 141 22 284q17 87 83 142.5t154 55.5h133
q71 0 148.5 -27t109.5 -90v117h315v-929q0 -70 -10.5 -182.5t-32.5 -162.5q-29 -63 -111 -101q-85 -38 -223 -38zM471 297q183 0 179 180q0 95 -41 141t-138 46q-48 0 -84 -19t-49 -68q-19 -58 -19 -98t19 -92q13 -39 44 -64.5t70 -25.5h19z" />
    <glyph glyph-name="h" unicode="h" horiz-adv-x="1188" 
d="M984 0h-315v440q0 81 -14.5 127t-35.5 67.5t-44 26.5t-41 5h-39q-62 0 -101.5 -29.5t-59 -79.5t-19.5 -111v-446h-315v1430h315v-579q30 60 88 88t130 28h190q106 0 162.5 -60.5t77.5 -169.5t21 -253v-484z" />
    <glyph glyph-name="i" unicode="i" horiz-adv-x="541" 
d="M323 0h-313v966h313v-966zM210 1083h-90q-41 0 -71.5 24t-45.5 71q-3 21 -3 61l3 92q5 22 19 43.5t37.5 36.5t60.5 15h90q36 0 60 -15t37 -36.5t17 -43.5q4 -28 4 -76q0 -49 -4 -77q-13 -47 -44.5 -71t-69.5 -24z" />
    <glyph glyph-name="j" unicode="j" horiz-adv-x="679" 
d="M185 -450h-256q-87 0 -153.5 55.5t-83.5 144.5q-6 62 -11 125h334q2 -24 15 -44t48 -20q38 0 45 43.5t7 160.5l1 950h313v-950q-1 -133 -23 -265q-16 -89 -83 -144.5t-153 -55.5zM326 1083h-90q-41 0 -71.5 24t-45.5 71q-3 22 -3 63l3 92q5 22 19 44t37.5 36.5t60.5 14.5
h90q36 0 60 -14.5t37 -36.5t17 -44q4 -29 4 -77q0 -49 -4 -78q-13 -47 -44.5 -71t-69.5 -24z" />
    <glyph glyph-name="k" unicode="k" horiz-adv-x="1174" 
d="M1047 0h-377l-247 326h-109v-326h-314v1430h314v-790h70l244 326h377l-328 -457z" />
    <glyph glyph-name="l" unicode="l" horiz-adv-x="550" 
d="M314 0h-314v1430h314v-1430z" />
    <glyph glyph-name="m" unicode="m" horiz-adv-x="1673" 
d="M877 0h-314v441q0 77 -10 122t-26 67.5t-35 29t-35 6.5h-6q-61 0 -90.5 -30t-38 -80t-8.5 -111v-445h-314v966h314v-117q30 62 88 89.5t130 27.5h85q71 0 128.5 -38t89.5 -100l9 -26q2 10 14 37t39.5 58.5t75.5 55.5t122 24h85q102 0 158.5 -60.5t79 -169t22.5 -254.5
v-482h-314v440q0 99 -17 147t-42 63.5t-47 15.5l-6 -1q-61 0 -90 -29.5t-38 -80t-9 -111.5v-455z" />
    <glyph glyph-name="n" unicode="n" horiz-adv-x="1185" 
d="M962 0h-312v397q0 88 -17 141.5t-42 81.5t-50 37t-41 9h-5q-62 0 -101.5 -40.5t-59 -101.5t-19.5 -122v-402h-315v965h315v-117q30 63 88 90t130 27h168q93 0 150.5 -61.5t84 -170t26.5 -249.5v-484z" />
    <glyph glyph-name="o" unicode="o" horiz-adv-x="1197" 
d="M715 0h-456q-88 0 -154 55.5t-83 142.5q-22 143 -22 284q0 142 22 284q17 88 83 143.5t154 55.5h456q88 0 154.5 -55.5t82.5 -143.5q22 -142 22 -284q0 -141 -22 -284q-16 -87 -82.5 -142.5t-154.5 -55.5zM522 299q39 0 75.5 25t49.5 65q17 53 17 96q0 42 -19 94
q-16 39 -50 63t-73 24h-67q-41 0 -76.5 -24t-48.5 -63q-20 -56 -20 -96q0 -43 20 -97q13 -39 48.5 -63t76.5 -24h67z" />
    <glyph glyph-name="p" unicode="p" horiz-adv-x="1183" 
d="M0 966h314v-116q30 61 88 88.5t130 27.5h169q70 0 127.5 -37t89.5 -99q13 -30 20 -63q24 -142 24 -284q0 -76 -7.5 -179t-35.5 -166q-41 -83 -127 -120q-54 -17 -75 -17l-185 -1q-72 0 -130 28t-88 89v-582h-314v1431zM493 666q-97 0 -138 -45.5t-41 -141.5
q0 -100 47.5 -139t145.5 -39q42 0 79 23t50 62q5 23 8.5 55t3.5 42l-2 42q-7 81 -51.5 111t-86.5 30h-15z" />
    <glyph glyph-name="q" unicode="q" horiz-adv-x="1192" 
d="M962 966v-1431h-314v582q-30 -61 -88.5 -89t-129.5 -28l-185 1q-22 0 -75 17q-86 37 -128 120q-28 63 -35 166t-7 179q0 142 23 284q7 33 20 63q32 62 90 99t127 37h170q71 0 129.5 -27.5t88.5 -88.5v116h314zM468 666h-14q-43 0 -87 -30t-52 -111l-1 -42q0 -10 3 -42
t9 -55q12 -39 49.5 -62t79.5 -23q98 0 145.5 39t47.5 139q0 96 -41 141.5t-139 45.5z" />
    <glyph glyph-name="r" unicode="r" horiz-adv-x="976" 
d="M314 0h-314v966h314v-117q25 52 63.5 77.5t90 32.5t114.5 7q88 0 154.5 -55.5t82.5 -144.5l12 -125h-334q-5 21 -15 32t-41 13q-59 0 -86 -25t-34 -70t-7 -104v-487z" />
    <glyph glyph-name="s" unicode="s" horiz-adv-x="1106" 
d="M652 0h-405q-87 0 -153.5 56t-82.5 145l-11 103h334q15 -29 44.5 -37.5t64.5 -8.5h16q58 0 86.5 15.5t28.5 33.5t-28.5 33.5t-83.5 15.5h-201q-79 0 -134 46.5t-83 119.5t-28 151q0 75 26.5 142t80.5 109.5t138 42.5h326q88 0 154 -55.5t82 -145.5l11 -103h-334
q-3 23 -27.5 34.5t-59.5 11.5q-59 0 -87.5 -14t-28.5 -32q0 -19 33.5 -35.5t98.5 -16.5h223q81 0 135.5 -44.5t82 -115t27.5 -147.5q0 -76 -27 -146t-81.5 -114t-136.5 -44z" />
    <glyph glyph-name="t" unicode="t" horiz-adv-x="875" 
d="M533 0h-255q-87 0 -154 55.5t-83 144.5q-22 132 -23 265v206h-98v314h98v446h314v-446h247v-314h-247v-206q0 -78 4.5 -117t20.5 -52t49 -13q25 0 32.5 15t7.5 34.5t1 35.5h334q-4 -84 -11 -168q-16 -89 -82.5 -144.5t-154.5 -55.5z" />
    <glyph glyph-name="u" unicode="u" horiz-adv-x="1196" 
d="M0 965h313v-397q0 -89 16.5 -142.5t41.5 -81t50 -36.5t41 -9h5q62 0 101.5 40.5t59 101t19.5 122.5v402h315v-965h-315v117q-30 -63 -88 -90t-130 -27h-168q-93 0 -150.5 61.5t-84 170t-26.5 249.5v484z" />
    <glyph glyph-name="v" unicode="v" horiz-adv-x="1070" 
d="M567 0h-314l-373 966h314l216 -585l216 585h314z" />
    <glyph glyph-name="w" unicode="w" horiz-adv-x="1492" 
d="M1059 0h-313l-132 435l-132 -435h-314l-288 966h314l131 -434l132 434h314l131 -434l132 434h314z" />
    <glyph glyph-name="x" unicode="x" horiz-adv-x="1124" 
d="M978 0h-335l-199 296l-199 -296h-335l345 514l-303 452h335l157 -233l156 233h335l-303 -451z" />
    <glyph glyph-name="y" unicode="y" horiz-adv-x="1194" 
d="M584 -450h-269q-87 0 -153.5 56t-82.5 145q-9 69 -14 139h329q15 -36 45 -48t69 -12l15 -1q18 0 48 12t53 56t26 134v84q-32 -62 -90.5 -89.5t-130.5 -27.5h-146q-155 0 -219 119.5t-64 361.5v484h315v-397q0 -88 16.5 -141.5t40.5 -81t49 -37t41 -9.5h8q60 0 100 40.5
t60 101.5t20 122v402h312v-965q-2 -80 -12.5 -173t-30.5 -136q-30 -63 -112 -101t-223 -38z" />
    <glyph glyph-name="z" unicode="z" horiz-adv-x="1061" 
d="M860 0h-860v314l420 338h-420v314h860v-314l-419 -338h419v-314z" />
    <glyph glyph-name="braceleft" unicode="{" horiz-adv-x="1129" 
d="M867 -230h-223q-65 0 -128 38q-89 51 -156.5 149t-87.5 218l-19 111q-14 67 -45 133.5t-82 112t-126 45.5v334q61 0 104.5 27.5t73 70.5t47.5 94t28 99l19 112q20 120 87.5 218t156.5 149q63 38 128 38h223v-337h-38q-73 0 -123.5 -35t-81 -91t-42.5 -122l-7.5 -40
t-8 -45.5t-3.5 -25.5q-32 -169 -158 -277q128 -110 158 -280l19 -114q11 -65 39.5 -121t80 -91.5t132.5 -35.5h33v-334z" />
    <glyph glyph-name="bar" unicode="|" horiz-adv-x="544" 
d="M309 -327h-309v2148h309v-2148z" />
    <glyph glyph-name="braceright" unicode="}" horiz-adv-x="1129" 
d="M0 -230v334h33q81 0 132.5 35.5t80 91.5t39.5 121l19 114q30 170 158 280q-126 108 -158 277q0 4 -3.5 25.5t-8 45.5l-7.5 40q-12 66 -42.5 122t-81 91t-123.5 35h-38v337h223q65 0 128 -38q89 -51 156.5 -149t87.5 -218l19 -112q10 -48 28 -99t47.5 -94t73 -70.5
t104.5 -27.5v-334q-75 0 -126 -45.5t-82 -112t-45 -133.5l-19 -111q-20 -120 -87.5 -218t-156.5 -149q-63 -38 -128 -38h-223z" />
    <glyph glyph-name="asciitilde" unicode="~" horiz-adv-x="1228" 
d="M806 1055q-78 0 -135 24t-116 69q-105 76 -229 76q-98 0 -186 -48l-140 -79v352l140 79q88 48 186 48q78 0 135.5 -23.5t116.5 -69.5q105 -76 228 -76q98 0 187 49l139 78v-352l-139 -78q-89 -49 -187 -49z" />
    <glyph glyph-name="exclamdown" unicode="&#xa1;" horiz-adv-x="581" 
d="M353 488v-953h-353v953h353zM224 964q39 0 78 -43t47 -84q4 -23 4 -58q0 -34 -4 -57q-8 -42 -47 -84.5t-78 -42.5h-95q-37 0 -76 42.5t-49 82.5q-4 24 -4 60t4 62q10 38 49 80t76 42h95z" />
    <glyph glyph-name="guillemotleft" unicode="&#xab;" horiz-adv-x="1365" 
d="M564 0h-352l-212 715l212 715h352l-212 -715zM1006 234h-321l-143 481l143 480h321l-142 -480z" />
    <glyph glyph-name="macron" unicode="&#xaf;" horiz-adv-x="1510" 
d="M1361 1510h-1361v352h1361v-352z" />
    <glyph glyph-name="acute" unicode="&#xb4;" horiz-adv-x="747" 
d="M0 980l173 583h352l-173 -583h-352z" />
    <glyph glyph-name="guillemotright" unicode="&#xbb;" horiz-adv-x="1405" 
d="M443 0l211 715l-211 715h352l211 -715l-211 -715h-352zM0 234l142 481l-142 480h322l142 -480l-142 -481h-322z" />
    <glyph glyph-name="questiondown" unicode="&#xbf;" horiz-adv-x="1284" 
d="M520 965q36 0 76 -43t49 -85l2 -58l-2 -59q-9 -40 -49 -82.5t-76 -42.5h-95q-37 0 -76 42t-49 80q-5 26 -5 62q0 37 5 60q10 40 49 83t76 43h95zM650 489v-30q0 -50 22.5 -80.5t58 -46t77.5 -20.5q12 0 43 -8q92 -26 154.5 -90t93.5 -149q24 -71 24 -146
q0 -78 -28.5 -152.5t-89 -132t-154.5 -88.5q-20 -8 -42 -9.5t-45 -1.5h-443q-124 0 -217.5 77.5t-116.5 202.5q-12 95 -19 190h375q23 -84 85 -122t146 -38q49 0 89 8t64 34t24 80q0 48 -19.5 65.5t-50 21.5t-66.5 8l-33 6.5t-57 15.5q-128 51 -187.5 152t-59.5 215v38h372z
" />
    <glyph glyph-name="Agrave" unicode="&#xc0;" 
d="M782 1541h-360l-143 494h360zM1354 0h-352l-83 229h-624l-83 -229h-352l571 1430h352zM770 581l-163 430l-163 -430h326z" />
    <glyph glyph-name="Aacute" unicode="&#xc1;" 
d="M1354 0h-352l-83 229h-624l-83 -229h-352l571 1430h352zM770 581l-163 430l-163 -430h326zM439 1541l143 494h360l-143 -494h-360z" />
    <glyph glyph-name="Acircumflex" unicode="&#xc2;" 
d="M1207 1585h-421l-182 206l-177 -206h-420l352 442h490zM1354 0h-352l-83 229h-624l-83 -229h-352l571 1430h352zM770 581l-163 430l-163 -430h326z" />
    <glyph glyph-name="Atilde" unicode="&#xc3;" 
d="M816 1531q-69 0 -119.5 21.5t-102.5 61.5q-93 67 -201 67q-87 0 -165 -43l-123 -69v376l123 69q78 42 165 42q68 0 118.5 -21t102.5 -61q93 -67 202 -67q86 0 164 43l123 69v-376l-123 -69q-78 -43 -164 -43zM1354 0h-352l-83 229h-624l-83 -229h-352l571 1430h352z
M770 581l-163 430l-163 -430h326z" />
    <glyph glyph-name="Adieresis" unicode="&#xc4;" 
d="M1354 0h-352l-83 229h-624l-83 -229h-352l571 1430h352zM770 581l-163 430l-163 -430h326zM404 1590h-95q-37 0 -76 32t-49 71q-4 29 -4 81t4 82q10 39 49 71t76 32h95q37 0 77 -32.5t48 -73.5l2 -79l-2 -78q-8 -39 -48 -72.5t-77 -33.5zM910 1590h-95q-37 0 -76 32
t-49 71q-4 29 -4 81t4 82q10 39 49 71t76 32h95q36 0 76 -32.5t49 -73.5l2 -79l-2 -78q-9 -39 -49 -72.5t-76 -33.5z" />
    <glyph glyph-name="Aring" unicode="&#xc5;" 
d="M612 1560q14 0 26 7.5t15 22.5q3 9 5 17q11 31 11 49q0 19 -11 50q-2 8 -5 17q-12 30 -41 30q-20 0 -34 -5.5t-20 -24.5q-3 -9 -5 -17q-12 -31 -12 -50q0 -18 12 -49q2 -8 5 -17q12 -30 41 -30h13zM770 581l-163 430l-163 -430h326zM382 1307q-37 11 -68 37
q-55 45 -69 118q-14 98 -14 195q0 98 14 194q14 72 68.5 117.5t127.5 45.5h329q73 0 127.5 -45.5t67.5 -117.5q15 -96 15 -194q0 -97 -15 -195q-13 -73 -67 -118q-31 -25 -66 -36l522 -1308h-352l-83 229h-624l-83 -229h-352z" />
    <glyph glyph-name="Ccedilla" unicode="&#xc7;" horiz-adv-x="1562" 
d="M872 0l-111 -384h-360l111 384h-143q-124 0 -217.5 77.5t-116.5 202.5q-35 216 -35 433t35 434q23 125 116.5 204t217.5 79h617q124 0 217.5 -79t116.5 -204q21 -139 30 -283h-359q-5 36 -27 100.5t-79 99t-133 34.5h-149q-76 0 -133.5 -34.5t-78.5 -104.5
q-39 -132 -39 -244t39 -245q21 -71 78.5 -106t133.5 -35h149q76 0 133 35t79 98.5t27 100.5h359q-9 -142 -30 -283q-23 -125 -116.5 -202.5t-217.5 -77.5h-114z" />
    <glyph glyph-name="Egrave" unicode="&#xc8;" horiz-adv-x="1392" 
d="M1155 0h-1155v1430h1155v-331h-803v-168h803v-331h-803v-269h803v-331zM812 1541h-360l-143 494h360z" />
    <glyph glyph-name="Eacute" unicode="&#xc9;" horiz-adv-x="1392" 
d="M1155 0h-1155v1430h1155v-331h-803v-168h803v-331h-803v-269h803v-331zM389 1541l143 494h360l-143 -494h-360z" />
    <glyph glyph-name="Ecircumflex" unicode="&#xca;" horiz-adv-x="1392" 
d="M1155 0h-1155v1430h1155v-331h-803v-168h803v-331h-803v-269h803v-331zM1187 1585h-421l-182 206l-177 -206h-420l352 442h490z" />
    <glyph glyph-name="Edieresis" unicode="&#xcb;" horiz-adv-x="1382" 
d="M1155 0h-1155v1430h1155v-331h-803v-168h803v-331h-803v-269h803v-331zM364 1590h-95q-37 0 -76 32t-49 71q-4 29 -4 81t4 82q10 39 49 71t76 32h95q37 0 77 -32.5t48 -73.5l2 -79l-2 -78q-8 -39 -48 -72.5t-77 -33.5zM870 1590h-95q-37 0 -76 32t-49 71q-4 29 -4 81
t4 82q10 39 49 71t76 32h95q36 0 76 -32.5t49 -73.5l2 -79l-2 -78q-9 -39 -49 -72.5t-76 -33.5z" />
    <glyph glyph-name="Igrave" unicode="&#xcc;" horiz-adv-x="598" 
d="M352 0h-352v1430h352v-1430zM362 1541h-360l-143 494h360z" />
    <glyph glyph-name="Iacute" unicode="&#xcd;" horiz-adv-x="598" 
d="M352 0h-352v1430h352v-1430zM-1 1541l143 494h360l-143 -494h-360z" />
    <glyph glyph-name="Icircumflex" unicode="&#xce;" horiz-adv-x="598" 
d="M352 0h-352v1430h352v-1430zM777 1585h-421l-182 206l-177 -206h-420l352 442h490z" />
    <glyph glyph-name="Idieresis" unicode="&#xcf;" horiz-adv-x="598" 
d="M352 0h-352v1430h352v-1430zM-36 1590h-95q-37 0 -76 32t-49 71q-4 29 -4 81t4 82q10 39 49 71t76 32h95q37 0 77 -32.5t48 -73.5l2 -79l-2 -78q-8 -39 -48 -72.5t-77 -33.5zM470 1590h-95q-37 0 -76 32t-49 71q-5 29 -5 81t5 82q10 39 49 71t76 32h95q36 0 76 -32.5
t49 -73.5l2 -79l-2 -78q-9 -39 -49 -72.5t-76 -33.5z" />
    <glyph glyph-name="Ntilde" unicode="&#xd1;" horiz-adv-x="1495" 
d="M1270 0h-394l-524 826v-826h-352v1430h394l524 -826v826h352v-1430zM816 1531q-69 0 -119.5 21.5t-102.5 61.5q-93 67 -201 67q-87 0 -165 -43l-123 -69v376l123 69q78 42 165 42q68 0 118.5 -21t102.5 -61q93 -67 202 -67q86 0 164 43l123 69v-376l-123 -69
q-78 -43 -164 -43z" />
    <glyph glyph-name="Ograve" unicode="&#xd2;" horiz-adv-x="1577" 
d="M942 0h-530q-124 0 -237.5 77.5t-139.5 202.5q-35 217 -35 434q0 218 35 433q26 125 139.5 204t237.5 79h530q127 0 239.5 -79t138.5 -204q35 -215 35 -433q0 -217 -35 -434q-26 -125 -138.5 -202.5t-239.5 -77.5zM752 329q76 0 134 55t78 127q19 70 29 116t10 86
q0 41 -10 87t-29 116q-20 74 -78 128t-134 54h-149q-74 0 -132 -54t-80 -128q-20 -70 -29.5 -116t-9.5 -87q0 -40 9.5 -86t29.5 -116q22 -72 80 -127t132 -55h149zM882 1541h-360l-143 494h360z" />
    <glyph glyph-name="Oacute" unicode="&#xd3;" horiz-adv-x="1577" 
d="M942 0h-530q-124 0 -237.5 77.5t-139.5 202.5q-35 217 -35 434q0 218 35 433q26 125 139.5 204t237.5 79h530q127 0 239.5 -79t138.5 -204q35 -215 35 -433q0 -217 -35 -434q-26 -125 -138.5 -202.5t-239.5 -77.5zM752 329q76 0 134 55t78 127q19 70 29 116t10 86
q0 41 -10 87t-29 116q-20 74 -78 128t-134 54h-149q-74 0 -132 -54t-80 -128q-20 -70 -29.5 -116t-9.5 -87q0 -40 9.5 -86t29.5 -116q22 -72 80 -127t132 -55h149zM469 1541l143 494h360l-143 -494h-360z" />
    <glyph glyph-name="Ocircumflex" unicode="&#xd4;" horiz-adv-x="1577" 
d="M942 0h-530q-124 0 -237.5 77.5t-139.5 202.5q-35 217 -35 434q0 218 35 433q26 125 139.5 204t237.5 79h530q127 0 239.5 -79t138.5 -204q35 -215 35 -433q0 -217 -35 -434q-26 -125 -138.5 -202.5t-239.5 -77.5zM752 329q76 0 134 55t78 127q19 70 29 116t10 86
q0 41 -10 87t-29 116q-20 74 -78 128t-134 54h-149q-74 0 -132 -54t-80 -128q-20 -70 -29.5 -116t-9.5 -87q0 -40 9.5 -86t29.5 -116q22 -72 80 -127t132 -55h149zM1257 1585h-421l-182 206l-177 -206h-420l352 442h490z" />
    <glyph glyph-name="Otilde" unicode="&#xd5;" horiz-adv-x="1577" 
d="M942 0h-530q-124 0 -237.5 77.5t-139.5 202.5q-35 217 -35 434q0 218 35 433q26 125 139.5 204t237.5 79h530q127 0 239.5 -79t138.5 -204q35 -215 35 -433q0 -217 -35 -434q-26 -125 -138.5 -202.5t-239.5 -77.5zM752 329q76 0 134 55t78 127q19 70 29 116t10 86
q0 41 -10 87t-29 116q-20 74 -78 128t-134 54h-149q-74 0 -132 -54t-80 -128q-20 -70 -29.5 -116t-9.5 -87q0 -40 9.5 -86t29.5 -116q22 -72 80 -127t132 -55h149zM876 1531q-69 0 -119.5 21.5t-102.5 61.5q-93 67 -201 67q-87 0 -165 -43l-123 -69v376l123 69q78 42 165 42
q68 0 118.5 -21t102.5 -61q93 -67 202 -67q86 0 164 43l123 69v-376l-123 -69q-78 -43 -164 -43z" />
    <glyph glyph-name="Odieresis" unicode="&#xd6;" horiz-adv-x="1577" 
d="M942 0h-530q-124 0 -237.5 77.5t-139.5 202.5q-35 217 -35 434q0 218 35 433q26 125 139.5 204t237.5 79h530q127 0 239.5 -79t138.5 -204q35 -215 35 -433q0 -217 -35 -434q-26 -125 -138.5 -202.5t-239.5 -77.5zM752 329q76 0 134 55t78 127q19 70 29 116t10 86
q0 41 -10 87t-29 116q-20 74 -78 128t-134 54h-149q-74 0 -132 -54t-80 -128q-20 -70 -29.5 -116t-9.5 -87q0 -40 9.5 -86t29.5 -116q22 -72 80 -127t132 -55h149zM454 1590h-95q-37 0 -76 32t-49 71q-4 29 -4 81t4 82q10 39 49 71t76 32h95q37 0 77 -32.5t48 -73.5l2 -79
l-2 -78q-8 -39 -48 -72.5t-77 -33.5zM960 1590h-95q-37 0 -76 32t-49 71q-4 29 -4 81t4 82q10 39 49 71t76 32h95q36 0 76 -32.5t49 -73.5l2 -79l-2 -78q-9 -39 -49 -72.5t-76 -33.5z" />
    <glyph glyph-name="Oslash" unicode="&#xd8;" horiz-adv-x="1577" 
d="M642 329h110q76 0 134 55t78 127q19 70 29 116t10 86q0 41 -10 87q-9 40 -24 98zM384 538l322 560h-103q-74 0 -132 -54t-80 -128q-20 -70 -29.5 -116t-9.5 -87q0 -40 10 -86q7 -37 22 -89zM452 0l-57 -100h-378l119 207q-80 71 -101 173q-35 217 -35 434q0 218 35 433
q26 125 139.5 204t237.5 79h484l51 88h378l-111 -193q84 -72 106 -178q35 -215 35 -433q0 -217 -35 -434q-26 -125 -138.5 -202.5t-239.5 -77.5h-490z" />
    <glyph glyph-name="Ugrave" unicode="&#xd9;" horiz-adv-x="1550" 
d="M943 0h-573q-126 0 -219 78.5t-116 203.5q-35 216 -35 433v715h352v-673q0 -68 12.5 -142.5t41.5 -138.5t77 -104.5t119 -40.5h108q71 0 119 40.5t77 104.5t41.5 138.5t12.5 142.5v673h353v-715l-9 -156t-27 -277q-23 -125 -116 -203.5t-218 -78.5zM862 1541h-360
l-143 494h360z" />
    <glyph glyph-name="Uacute" unicode="&#xda;" horiz-adv-x="1550" 
d="M943 0h-573q-126 0 -219 78.5t-116 203.5q-35 216 -35 433v715h352v-673q0 -68 12.5 -142.5t41.5 -138.5t77 -104.5t119 -40.5h108q71 0 119 40.5t77 104.5t41.5 138.5t12.5 142.5v673h353v-715l-9 -156t-27 -277q-23 -125 -116 -203.5t-218 -78.5zM439 1541l143 494h360
l-143 -494h-360z" />
    <glyph glyph-name="Ucircumflex" unicode="&#xdb;" horiz-adv-x="1550" 
d="M943 0h-573q-126 0 -219 78.5t-116 203.5q-35 216 -35 433v715h352v-673q0 -68 12.5 -142.5t41.5 -138.5t77 -104.5t119 -40.5h108q71 0 119 40.5t77 104.5t41.5 138.5t12.5 142.5v673h353v-715l-9 -156t-27 -277q-23 -125 -116 -203.5t-218 -78.5zM1247 1585h-421
l-182 206l-177 -206h-420l352 442h490z" />
    <glyph glyph-name="Udieresis" unicode="&#xdc;" horiz-adv-x="1550" 
d="M943 0h-573q-126 0 -219 78.5t-116 203.5q-35 216 -35 433v715h352v-673q0 -68 12.5 -142.5t41.5 -138.5t77 -104.5t119 -40.5h108q71 0 119 40.5t77 104.5t41.5 138.5t12.5 142.5v673h353v-715l-9 -156t-27 -277q-23 -125 -116 -203.5t-218 -78.5zM444 1590h-95
q-37 0 -76 32t-49 71q-4 29 -4 81t4 82q10 39 49 71t76 32h95q37 0 77 -32.5t48 -73.5l2 -79l-2 -78q-8 -39 -48 -72.5t-77 -33.5zM950 1590h-95q-37 0 -76 32t-49 71q-4 29 -4 81t4 82q10 39 49 71t76 32h95q36 0 76 -32.5t49 -73.5l2 -79l-2 -78q-9 -39 -49 -72.5
t-76 -33.5z" />
    <glyph glyph-name="Yacute" unicode="&#xdd;" horiz-adv-x="1555" 
d="M804 0h-352v643l-582 787h394l364 -506l363 506h394l-581 -787v-643zM439 1541l143 494h360l-143 -494h-360z" />
    <glyph glyph-name="germandbls" unicode="&#xdf;" horiz-adv-x="1169" 
d="M311 -445h-311v1416h631q71 0 118 -23t73.5 -59t37.5 -75t11 -73q-2 -60 -27 -98.5t-56 -49.5q89 -15 134 -92t45 -185q0 -140 -62 -220t-174 -90l-310 -1l-1 300h100q33 0 60 2t43.5 13.5t16.5 38.5q0 24 -13 35t-34 14t-45 3h-234v-106zM436 663q35 0 59.5 4.5
t24.5 31.5q0 24 -15.5 29.5t-40.5 5.5h-150v-71h122z" />
    <glyph glyph-name="agrave" unicode="&#xe0;" horiz-adv-x="1179" 
d="M679 1062h-360l-143 494h360zM926 0h-312v117q-32 -61 -89 -89t-129 -28h-184q-88 0 -154.5 56t-82.5 145q-5 37 -5 91q0 64 5 105q17 83 94.5 137t163.5 61h370q-5 36 -14 68q-10 31 -34 38.5t-55 7.5h-28q-49 0 -74 -17t-40 -51h-334l11 125q16 90 82.5 145.5
t153.5 55.5h354q61 0 133.5 -29t108.5 -76q27 -42 38 -96q21 -140 21 -282v-484zM500 258q30 0 53 7.5t36 38.5l19 55h-203q-47 0 -70.5 -16t-23.5 -35q0 -18 23.5 -34t70.5 -16h95z" />
    <glyph glyph-name="aacute" unicode="&#xe1;" horiz-adv-x="1179" 
d="M236 1062l143 494h360l-143 -494h-360zM926 0h-312v117q-32 -61 -89 -89t-129 -28h-184q-88 0 -154.5 56t-82.5 145q-5 37 -5 91q0 64 5 105q17 83 94.5 137t163.5 61h370q-5 36 -14 68q-10 31 -34 38.5t-55 7.5h-28q-49 0 -74 -17t-40 -51h-334l11 125q16 90 82.5 145.5
t153.5 55.5h354q61 0 133.5 -29t108.5 -76q27 -42 38 -96q21 -140 21 -282v-484zM500 258q30 0 53 7.5t36 38.5l19 55h-203q-47 0 -70.5 -16t-23.5 -35q0 -18 23.5 -34t70.5 -16h95z" />
    <glyph glyph-name="acircumflex" unicode="&#xe2;" horiz-adv-x="1179" 
d="M1012 1068h-421l-132 186l-127 -186h-420l322 442h450zM926 0h-312v117q-32 -61 -89 -89t-129 -28h-184q-88 0 -154.5 56t-82.5 145q-5 37 -5 91q0 64 5 105q17 83 94.5 137t163.5 61h370q-5 36 -14 68q-10 31 -34 38.5t-55 7.5h-28q-49 0 -74 -17t-40 -51h-334l11 125
q16 90 82.5 145.5t153.5 55.5h354q61 0 133.5 -29t108.5 -76q27 -42 38 -96q21 -140 21 -282v-484zM500 258q30 0 53 7.5t36 38.5l19 55h-203q-47 0 -70.5 -16t-23.5 -35q0 -18 23.5 -34t70.5 -16h95z" />
    <glyph glyph-name="atilde" unicode="&#xe3;" horiz-adv-x="1179" 
d="M651 1067q-69 0 -119.5 21.5t-102.5 61.5q-93 67 -201 67q-87 0 -165 -43l-123 -69v366l123 69q78 42 165 42q68 0 118.5 -21t102.5 -61q93 -67 202 -67q86 0 164 43l123 69v-366l-123 -69q-78 -43 -164 -43zM926 0h-312v117q-32 -61 -89 -89t-129 -28h-184
q-88 0 -154.5 56t-82.5 145q-5 37 -5 91q0 64 5 105q17 83 94.5 137t163.5 61h370q-5 36 -14 68q-10 31 -34 38.5t-55 7.5h-28q-49 0 -74 -17t-40 -51h-334l11 125q16 90 82.5 145.5t153.5 55.5h354q61 0 133.5 -29t108.5 -76q27 -42 38 -96q21 -140 21 -282v-484zM500 258
q30 0 53 7.5t36 38.5l19 55h-203q-47 0 -70.5 -16t-23.5 -35q0 -18 23.5 -34t70.5 -16h95z" />
    <glyph glyph-name="adieresis" unicode="&#xe4;" horiz-adv-x="1179" 
d="M313 1120h-89q-41 0 -71.5 23t-43.5 72q-5 23 -5 66q0 54 5 86q4 22 17 44t37 36.5t61 14.5h89q37 0 60.5 -14.5t36.5 -36.5t17 -44q4 -27 4 -76t-4 -76q-13 -49 -44 -72t-70 -23zM753 1122h-89q-41 0 -71.5 23.5t-42.5 72.5q-5 22 -5 66q0 53 5 86q4 22 17 43.5
t36.5 36.5t60.5 15h89q37 0 61 -15t37 -36.5t17 -43.5q4 -27 4 -76t-4 -76q-13 -49 -44.5 -72.5t-70.5 -23.5zM926 0h-312v117q-32 -61 -89 -89t-129 -28h-184q-88 0 -154.5 56t-82.5 145q-5 37 -5 91q0 64 5 105q17 83 94.5 137t163.5 61h370q-5 36 -14 68q-10 31 -34 38.5
t-55 7.5h-28q-49 0 -74 -17t-40 -51h-334l11 125q16 90 82.5 145.5t153.5 55.5h354q61 0 133.5 -29t108.5 -76q27 -42 38 -96q21 -140 21 -282v-484zM500 258q30 0 53 7.5t36 38.5l19 55h-203q-47 0 -70.5 -16t-23.5 -35q0 -18 23.5 -34t70.5 -16h95z" />
    <glyph glyph-name="aring" unicode="&#xe5;" horiz-adv-x="1179" 
d="M575 1089h-207q-46 0 -80 28.5t-43 73.5q-9 62 -9 123t9 122q9 45 43 73.5t80 28.5h207q46 0 80 -28.5t42 -73.5q9 -61 9 -122t-9 -123q-8 -45 -42 -73.5t-80 -28.5zM475 1253q9 0 17 5t9 14q10 27 10 42q0 14 -10 41q-8 19 -26 19q-12 0 -21 -3t-13 -16q-10 -27 -10 -41
q0 -15 10 -42q8 -19 26 -19h8zM926 0h-312v117q-32 -61 -89 -89t-129 -28h-184q-88 0 -154.5 56t-82.5 145q-5 37 -5 91q0 64 5 105q17 83 94.5 137t163.5 61h370q-5 36 -14 68q-10 31 -34 38.5t-55 7.5h-28q-49 0 -74 -17t-40 -51h-334l11 125q16 90 82.5 145.5t153.5 55.5
h354q61 0 133.5 -29t108.5 -76q27 -42 38 -96q21 -140 21 -282v-484zM500 258q30 0 53 7.5t36 38.5l19 55h-203q-47 0 -70.5 -16t-23.5 -35q0 -18 23.5 -34t70.5 -16h95z" />
    <glyph glyph-name="ccedilla" unicode="&#xe7;" horiz-adv-x="1151" 
d="M652 0l-89 -308h-360l89 308h-31q-88 0 -154 55.5t-83 142.5q-24 143 -24 284q0 142 24 284q17 88 83 143.5t154 55.5h454q89 0 156 -55.5t83 -143.5q8 -64 13 -147q3 -41 6 -73h-321q-5 37 -13 74q-9 31 -33.5 38.5t-55.5 7.5h-96q-39 0 -71 -25t-43 -65
q-18 -55 -18 -100q0 -42 18 -90q13 -38 44 -62.5t70 -24.5h96q31 0 55.5 7.5t33.5 38.5q8 33 13 71h321q-3 -31 -6 -71q-5 -84 -13 -147q-16 -87 -83 -142.5t-156 -55.5h-63z" />
    <glyph glyph-name="egrave" unicode="&#xe8;" horiz-adv-x="1172" 
d="M679 1062h-360l-143 494h360zM715 0h-456q-88 0 -154 56t-83 145q-22 141 -22 283q0 141 22 282q17 90 83 145.5t154 55.5h456q88 0 154.5 -55.5t82.5 -145.5q22 -139 22 -280q0 -58 -3 -116h-647q5 -33 14 -66q9 -31 33 -38.5t56 -7.5h93q36 0 65 8.5t43 37.5h335
q-4 -51 -11 -103q-16 -89 -82.5 -145t-154.5 -56zM650 620q-5 21 -13 43q-9 31 -33.5 38.5t-56.5 7.5h-120q-32 0 -56 -7.5t-33 -38.5q-9 -22 -14 -43h326z" />
    <glyph glyph-name="eacute" unicode="&#xe9;" horiz-adv-x="1172" 
d="M236 1062l143 494h360l-143 -494h-360zM715 0h-456q-88 0 -154 56t-83 145q-22 141 -22 283q0 141 22 282q17 90 83 145.5t154 55.5h456q88 0 154.5 -55.5t82.5 -145.5q22 -139 22 -280q0 -58 -3 -116h-647q5 -33 14 -66q9 -31 33 -38.5t56 -7.5h93q36 0 65 8.5t43 37.5
h335q-4 -51 -11 -103q-16 -89 -82.5 -145t-154.5 -56zM650 620q-5 21 -13 43q-9 31 -33.5 38.5t-56.5 7.5h-120q-32 0 -56 -7.5t-33 -38.5q-9 -22 -14 -43h326z" />
    <glyph glyph-name="ecircumflex" unicode="&#xea;" horiz-adv-x="1172" 
d="M1012 1068h-421l-132 186l-127 -186h-420l322 442h450zM715 0h-456q-88 0 -154 56t-83 145q-22 141 -22 283q0 141 22 282q17 90 83 145.5t154 55.5h456q88 0 154.5 -55.5t82.5 -145.5q22 -139 22 -280q0 -58 -3 -116h-647q5 -33 14 -66q9 -31 33 -38.5t56 -7.5h93
q36 0 65 8.5t43 37.5h335q-4 -51 -11 -103q-16 -89 -82.5 -145t-154.5 -56zM650 620q-5 21 -13 43q-9 31 -33.5 38.5t-56.5 7.5h-120q-32 0 -56 -7.5t-33 -38.5q-9 -22 -14 -43h326z" />
    <glyph glyph-name="edieresis" unicode="&#xeb;" horiz-adv-x="1163" 
d="M313 1120h-89q-41 0 -71.5 23t-43.5 72q-5 23 -5 66q0 54 5 86q4 22 17 44t37 36.5t61 14.5h89q37 0 60.5 -14.5t36.5 -36.5t17 -44q4 -27 4 -76t-4 -76q-13 -49 -44 -72t-70 -23zM753 1122h-89q-41 0 -71.5 23.5t-42.5 72.5q-5 22 -5 66q0 53 5 86q4 22 17 43.5
t36.5 36.5t60.5 15h89q37 0 61 -15t37 -36.5t17 -43.5q4 -27 4 -76t-4 -76q-13 -49 -44.5 -72.5t-70.5 -23.5zM715 0h-456q-88 0 -154 56t-83 145q-22 141 -22 283q0 141 22 282q17 90 83 145.5t154 55.5h456q88 0 154.5 -55.5t82.5 -145.5q22 -139 22 -280q0 -58 -3 -116
h-647q5 -33 14 -66q9 -31 33 -38.5t56 -7.5h93q36 0 65 8.5t43 37.5h335q-4 -51 -11 -103q-16 -89 -82.5 -145t-154.5 -56zM650 620q-5 21 -13 43q-9 31 -33.5 38.5t-56.5 7.5h-120q-32 0 -56 -7.5t-33 -38.5q-9 -22 -14 -43h326z" />
    <glyph glyph-name="igrave" unicode="&#xec;" horiz-adv-x="563" 
d="M323 0h-313v966h313v-966zM339 1062h-340l-143 494h340z" />
    <glyph glyph-name="iacute" unicode="&#xed;" horiz-adv-x="563" 
d="M323 0h-313v966h313v-966zM-4 1062l143 494h340l-143 -494h-340z" />
    <glyph glyph-name="icircumflex" unicode="&#xee;" horiz-adv-x="563" 
d="M323 0h-313v966h313v-966zM712 1068h-421l-132 186l-127 -186h-420l322 442h450z" />
    <glyph glyph-name="idieresis" unicode="&#xef;" horiz-adv-x="563" 
d="M323 0h-313v966h313v-966zM-17 1120h-90q-40 0 -70.5 23t-43.5 72q-5 23 -5 66q0 54 5 86q4 22 17 44t37 36.5t60 14.5h90q37 0 60.5 -14.5t36.5 -36.5t17 -44q4 -27 4 -76t-4 -76q-13 -49 -44 -72t-70 -23zM423 1122h-89q-41 0 -71.5 23.5t-43.5 72.5q-5 22 -5 66
q0 53 5 86q4 22 17 43.5t37 36.5t61 15h89q37 0 60.5 -15t36.5 -36.5t17 -43.5q4 -27 4 -76t-4 -76q-13 -49 -44 -72.5t-70 -23.5z" />
    <glyph glyph-name="ntilde" unicode="&#xf1;" horiz-adv-x="1185" 
d="M962 0h-312v397q0 88 -17 141.5t-42 81.5t-50 37t-41 9h-5q-62 0 -101.5 -40.5t-59 -101.5t-19.5 -122v-402h-315v965h315v-117q30 63 88 90t130 27h168q93 0 150.5 -61.5t84 -170t26.5 -249.5v-484zM671 1067q-69 0 -119.5 21.5t-102.5 61.5q-93 67 -201 67
q-87 0 -165 -43l-123 -69v366l123 69q78 42 165 42q68 0 118.5 -21t102.5 -61q93 -67 202 -67q86 0 164 43l123 69v-366l-123 -69q-78 -43 -164 -43z" />
    <glyph glyph-name="ograve" unicode="&#xf2;" horiz-adv-x="1197" 
d="M715 0h-456q-88 0 -154 55.5t-83 142.5q-22 143 -22 284q0 142 22 284q17 88 83 143.5t154 55.5h456q88 0 154.5 -55.5t82.5 -143.5q22 -142 22 -284q0 -141 -22 -284q-16 -87 -82.5 -142.5t-154.5 -55.5zM522 299q39 0 75.5 25t49.5 65q17 53 17 96q0 42 -19 94
q-16 39 -50 63t-73 24h-67q-41 0 -76.5 -24t-48.5 -63q-20 -56 -20 -96q0 -43 20 -97q13 -39 48.5 -63t76.5 -24h67zM689 1062h-360l-143 494h360z" />
    <glyph glyph-name="oacute" unicode="&#xf3;" horiz-adv-x="1197" 
d="M715 0h-456q-88 0 -154 55.5t-83 142.5q-22 143 -22 284q0 142 22 284q17 88 83 143.5t154 55.5h456q88 0 154.5 -55.5t82.5 -143.5q22 -142 22 -284q0 -141 -22 -284q-16 -87 -82.5 -142.5t-154.5 -55.5zM522 299q39 0 75.5 25t49.5 65q17 53 17 96q0 42 -19 94
q-16 39 -50 63t-73 24h-67q-41 0 -76.5 -24t-48.5 -63q-20 -56 -20 -96q0 -43 20 -97q13 -39 48.5 -63t76.5 -24h67zM256 1062l143 494h360l-143 -494h-360z" />
    <glyph glyph-name="ocircumflex" unicode="&#xf4;" horiz-adv-x="1197" 
d="M715 0h-456q-88 0 -154 55.5t-83 142.5q-22 143 -22 284q0 142 22 284q17 88 83 143.5t154 55.5h456q88 0 154.5 -55.5t82.5 -143.5q22 -142 22 -284q0 -141 -22 -284q-16 -87 -82.5 -142.5t-154.5 -55.5zM522 299q39 0 75.5 25t49.5 65q17 53 17 96q0 42 -19 94
q-16 39 -50 63t-73 24h-67q-41 0 -76.5 -24t-48.5 -63q-20 -56 -20 -96q0 -43 20 -97q13 -39 48.5 -63t76.5 -24h67zM1032 1068h-421l-132 186l-127 -186h-420l322 442h450z" />
    <glyph glyph-name="otilde" unicode="&#xf5;" horiz-adv-x="1197" 
d="M715 0h-456q-88 0 -154 55.5t-83 142.5q-22 143 -22 284q0 142 22 284q17 88 83 143.5t154 55.5h456q88 0 154.5 -55.5t82.5 -143.5q22 -142 22 -284q0 -141 -22 -284q-16 -87 -82.5 -142.5t-154.5 -55.5zM522 299q39 0 75.5 25t49.5 65q17 53 17 96q0 42 -19 94
q-16 39 -50 63t-73 24h-67q-41 0 -76.5 -24t-48.5 -63q-20 -56 -20 -96q0 -43 20 -97q13 -39 48.5 -63t76.5 -24h67zM681 1067q-69 0 -119.5 21.5t-102.5 61.5q-93 67 -201 67q-87 0 -165 -43l-123 -69v366l123 69q78 42 165 42q68 0 118.5 -21t102.5 -61q93 -67 202 -67
q86 0 164 43l123 69v-366l-123 -69q-78 -43 -164 -43z" />
    <glyph glyph-name="odieresis" unicode="&#xf6;" horiz-adv-x="1197" 
d="M715 0h-456q-88 0 -154 55.5t-83 142.5q-22 143 -22 284q0 142 22 284q17 88 83 143.5t154 55.5h456q88 0 154.5 -55.5t82.5 -143.5q22 -142 22 -284q0 -141 -22 -284q-16 -87 -82.5 -142.5t-154.5 -55.5zM522 299q39 0 75.5 25t49.5 65q17 53 17 96q0 42 -19 94
q-16 39 -50 63t-73 24h-67q-41 0 -76.5 -24t-48.5 -63q-20 -56 -20 -96q0 -43 20 -97q13 -39 48.5 -63t76.5 -24h67zM313 1120h-89q-41 0 -71.5 23t-43.5 72q-5 23 -5 66q0 54 5 86q4 22 17 44t37 36.5t61 14.5h89q37 0 60.5 -14.5t36.5 -36.5t17 -44q4 -27 4 -76t-4 -76
q-13 -49 -44 -72t-70 -23zM753 1122h-89q-41 0 -71.5 23.5t-42.5 72.5q-5 22 -5 66q0 53 5 86q4 22 17 43.5t36.5 36.5t60.5 15h89q37 0 61 -15t37 -36.5t17 -43.5q4 -27 4 -76t-4 -76q-13 -49 -44.5 -72.5t-70.5 -23.5z" />
    <glyph glyph-name="oslash" unicode="&#xf8;" horiz-adv-x="1197" 
d="M531 299q34 3 67 25q36 25 49 65q17 53 17 96q0 24 -6 50zM319 422l131 244q-38 -1 -71 -24q-36 -24 -49 -63q-20 -56 -20 -96q0 -28 9 -61zM369 0l-51 -95h-278l76 142q-5 4 -11 9q-66 55 -83 142q-22 143 -22 284q0 142 22 284q17 88 83 143.5t154 55.5h353l58 108h278
l-85 -158q3 -3 7 -5q66 -56 82 -144q22 -142 22 -284q0 -141 -22 -284q-16 -87 -82.5 -142.5t-154.5 -55.5h-346z" />
    <glyph glyph-name="ugrave" unicode="&#xf9;" horiz-adv-x="1196" 
d="M0 965h313v-397q0 -89 16.5 -142.5t41.5 -81t50 -36.5t41 -9h5q62 0 101.5 40.5t59 101t19.5 122.5v402h315v-965h-315v117q-30 -63 -88 -90t-130 -27h-168q-93 0 -150.5 61.5t-84 170t-26.5 249.5v484zM679 1062h-360l-143 494h360z" />
    <glyph glyph-name="uacute" unicode="&#xfa;" horiz-adv-x="1196" 
d="M0 965h313v-397q0 -89 16.5 -142.5t41.5 -81t50 -36.5t41 -9h5q62 0 101.5 40.5t59 101t19.5 122.5v402h315v-965h-315v117q-30 -63 -88 -90t-130 -27h-168q-93 0 -150.5 61.5t-84 170t-26.5 249.5v484zM236 1062l143 494h360l-143 -494h-360z" />
    <glyph glyph-name="ucircumflex" unicode="&#xfb;" horiz-adv-x="1196" 
d="M0 965h313v-397q0 -89 16.5 -142.5t41.5 -81t50 -36.5t41 -9h5q62 0 101.5 40.5t59 101t19.5 122.5v402h315v-965h-315v117q-30 -63 -88 -90t-130 -27h-168q-93 0 -150.5 61.5t-84 170t-26.5 249.5v484zM1012 1068h-421l-132 186l-127 -186h-420l322 442h450z" />
    <glyph glyph-name="udieresis" unicode="&#xfc;" horiz-adv-x="1196" 
d="M0 965h313v-397q0 -89 16.5 -142.5t41.5 -81t50 -36.5t41 -9h5q62 0 101.5 40.5t59 101t19.5 122.5v402h315v-965h-315v117q-30 -63 -88 -90t-130 -27h-168q-93 0 -150.5 61.5t-84 170t-26.5 249.5v484zM313 1120h-89q-41 0 -71.5 23t-43.5 72q-5 23 -5 66q0 54 5 86
q4 22 17 44t37 36.5t61 14.5h89q37 0 60.5 -14.5t36.5 -36.5t17 -44q4 -27 4 -76t-4 -76q-13 -49 -44 -72t-70 -23zM753 1122h-89q-41 0 -71.5 23.5t-42.5 72.5q-5 22 -5 66q0 53 5 86q4 22 17 43.5t36.5 36.5t60.5 15h89q37 0 61 -15t37 -36.5t17 -43.5q4 -27 4 -76t-4 -76
q-13 -49 -44.5 -72.5t-70.5 -23.5z" />
    <glyph glyph-name="yacute" unicode="&#xfd;" horiz-adv-x="1195" 
d="M236 1062l143 494h360l-143 -494h-360zM584 -450h-269q-87 0 -153.5 56t-82.5 145q-9 69 -14 139h329q15 -36 45 -48t69 -12l15 -1q18 0 48 12t53 56t26 134v84q-32 -62 -90.5 -89.5t-130.5 -27.5h-146q-155 0 -219 119.5t-64 361.5v484h315v-397q0 -88 16.5 -141.5
t40.5 -81t49 -37t41 -9.5h8q60 0 100 40.5t60 101.5t20 122v402h312v-965q-2 -80 -12.5 -173t-30.5 -136q-30 -63 -112 -101t-223 -38z" />
    <glyph glyph-name="ydieresis" unicode="&#xff;" horiz-adv-x="1195" 
d="M313 1120h-89q-41 0 -71.5 23t-43.5 72q-5 23 -5 66q0 54 5 86q4 22 17 44t37 36.5t61 14.5h89q37 0 60.5 -14.5t36.5 -36.5t17 -44q4 -27 4 -76t-4 -76q-13 -49 -44 -72t-70 -23zM753 1122h-89q-41 0 -71.5 23.5t-42.5 72.5q-5 22 -5 66q0 53 5 86q4 22 17 43.5
t36.5 36.5t60.5 15h89q37 0 61 -15t37 -36.5t17 -43.5q4 -27 4 -76t-4 -76q-13 -49 -44.5 -72.5t-70.5 -23.5zM584 -450h-269q-87 0 -153.5 56t-82.5 145q-9 69 -14 139h329q15 -36 45 -48t69 -12l15 -1q18 0 48 12t53 56t26 134v84q-32 -62 -90.5 -89.5t-130.5 -27.5h-146
q-155 0 -219 119.5t-64 361.5v484h315v-397q0 -88 16.5 -141.5t40.5 -81t49 -37t41 -9.5h8q60 0 100 40.5t60 101.5t20 122v402h312v-965q-2 -80 -12.5 -173t-30.5 -136q-30 -63 -112 -101t-223 -38z" />
    <glyph glyph-name="gravecomb" unicode="&#x300;" horiz-adv-x="115" 
d="M525 1335h-352l-173 583h352z" />
    <glyph glyph-name="acutecomb" unicode="&#x301;" horiz-adv-x="115" 
d="M0 1335l173 583h352l-173 -583h-352z" />
    <glyph glyph-name="u0302" unicode="&#x302;" horiz-adv-x="115" 
d="M1002 1439h-372l-136 215l-136 -215h-372l277 488h462z" />
    <glyph glyph-name="u030C" unicode="&#x30c;" horiz-adv-x="115" 
d="M1002 1927l-277 -488h-462l-277 488h372l136 -214l136 214h372z" />
    <glyph glyph-name="u0401" unicode="&#x401;" horiz-adv-x="1382" 
d="M1155 0h-1155v1430h1155v-331h-803v-168h803v-331h-803v-269h803v-331zM364 1590h-95q-37 0 -76 32t-49 71q-4 29 -4 81t4 82q10 39 49 71t76 32h95q37 0 77 -32.5t48 -73.5l2 -79l-2 -78q-8 -39 -48 -72.5t-77 -33.5zM870 1590h-95q-37 0 -76 32t-49 71q-4 29 -4 81
t4 82q10 39 49 71t76 32h95q36 0 76 -32.5t49 -73.5l2 -79l-2 -78q-9 -39 -49 -72.5t-76 -33.5z" />
    <glyph glyph-name="u0410" unicode="&#x410;" 
d="M1354 0h-352l-83 229h-624l-83 -229h-352l571 1430h352zM770 581l-163 430l-163 -430h326z" />
    <glyph glyph-name="u0411" unicode="&#x411;" horiz-adv-x="1512" 
d="M943 0h-943v1430h1155v-332h-804v-169h570q134 -6 221 -72.5t129.5 -170.5t42.5 -218q0 -115 -42 -221t-125 -173.5t-204 -73.5zM709 330q105 0 166 31.5t61 103.5q0 51 -30 80.5t-81.5 41.5t-115.5 12h-358v-269h358z" />
    <glyph glyph-name="u0412" unicode="&#x412;" horiz-adv-x="1526" 
d="M943 0h-943v1430h796q15 0 46 -3t55 -11q92 -38 144.5 -90.5t73 -111t20.5 -113.5q0 -77 -24 -135t-46 -75q131 -48 192 -159t61 -242q0 -117 -45 -228.5t-129 -183.5t-201 -78zM563 953q95 0 142 15t47 69q0 37 -23 54.5t-65.5 23t-100.5 5.5h-210v-167h210zM711 310
q105 0 166 53t61 124q0 79 -65 128t-162 49h-358v-354h358z" />
    <glyph glyph-name="u0413" unicode="&#x413;" horiz-adv-x="1268" 
d="M352 0h-352v1430h1155v-352h-803v-1078z" />
    <glyph glyph-name="u0414" unicode="&#x414;" horiz-adv-x="1632" 
d="M1490 -270h-352v269h-901v-269h-352v600h183q29 0 51.5 18.5t28.5 48.5l174 847q17 82 79 133.5t144 51.5h678v-1099h267v-600zM871 330v768h-110q-43 0 -75.5 -27t-40.5 -69l-158 -672h384z" />
    <glyph glyph-name="u0415" unicode="&#x415;" horiz-adv-x="1392" 
d="M1155 0h-1155v1430h1155v-331h-803v-168h803v-331h-803v-269h803v-331z" />
    <glyph glyph-name="u0416" unicode="&#x416;" horiz-adv-x="2008" 
d="M1790 0h-352v401q0 81 -34 134.5t-89 80.5t-118 27h-126v-643h-352v643h-125q-63 0 -118 -27t-89.5 -80.5t-34.5 -134.5v-401h-352v535q0 84 29.5 155.5t84.5 114t133 42.5q-55 10 -81.5 47.5t-34.5 90t-8 106.5v339h355v-324q0 -71 32.5 -119t87 -73t121.5 -25v541h352
v-541q68 0 122.5 25t86.5 73t32 119v324h355v-339q0 -54 -7.5 -106.5t-34.5 -90t-82 -47.5q78 0 133.5 -42.5t84.5 -114t29 -155.5v-535z" />
    <glyph glyph-name="u0417" unicode="&#x417;" horiz-adv-x="1522" 
d="M959 0h-598q-124 0 -217.5 79t-116.5 204q-17 118 -27 236h364q8 -35 19 -71q14 -45 45.5 -65.5t74.5 -25t92 -4.5h133q70 0 120.5 8t78 32t27.5 72q0 53 -30 82.5t-81 41.5t-115 12h-212v331h85q93 0 140 15.5t47 68.5q0 37 -23 54.5t-65 22.5t-99 5h-6q-49 0 -92 -4.5
t-74.5 -25t-45.5 -65.5h-375l19 147q23 124 116.5 202t217.5 78h452q14 0 45 -3.5t55 -13.5q92 -37 144.5 -89t73.5 -110t21 -114q0 -77 -24.5 -135.5t-45.5 -75.5q130 -48 190.5 -159t60.5 -241q0 -117 -45 -228t-128.5 -183t-200.5 -78z" />
    <glyph glyph-name="u0418" unicode="&#x418;" horiz-adv-x="1501" 
d="M1270 0h-352v805l-587 -805h-331v1430h352v-805l587 805h331v-1430z" />
    <glyph glyph-name="u0419" unicode="&#x419;" horiz-adv-x="1496" 
d="M1270 0h-352v805l-587 -805h-331v1430h352v-805l587 805h331v-1430zM627 1592q-143 0 -232 13q-59 14 -114 58t-91.5 104t-36.5 118v142h299v-27q0 -35 7 -60.5t39 -40.5q31 -6 108 -6q107 0 166 6q31 9 39 33t8 56v39h299v-142q0 -58 -37 -118.5t-92 -105t-113 -56.5
q-95 -13 -249 -13z" />
    <glyph glyph-name="u041A" unicode="&#x41a;" horiz-adv-x="1497" 
d="M1300 0h-394l-453 599h-101v-599h-352v1430h352v-500h126l364 500h395l-497 -672z" />
    <glyph glyph-name="u041B" unicode="&#x41b;" horiz-adv-x="1502" 
d="M1287 0h-352v1099h-98q-57 0 -101.5 -34.5t-59.5 -90.5l-226 -781q-24 -86 -93 -139.5t-157 -53.5h-290v331h99q45 0 80.5 27.5t48.5 71.5l226 786q27 96 102.5 154t175.5 60h645v-1430z" />
    <glyph glyph-name="u041C" unicode="&#x41c;" horiz-adv-x="1869" 
d="M1648 0h-352v771l-317 -771h-310l-317 771v-771h-352v1430h437l387 -924l387 924h437v-1430z" />
    <glyph glyph-name="u041D" unicode="&#x41d;" horiz-adv-x="1503" 
d="M1270 0h-352v643h-566v-643h-352v1430h352v-456h566v456h352v-1430z" />
    <glyph glyph-name="u041E" unicode="&#x41e;" horiz-adv-x="1577" 
d="M942 0h-530q-124 0 -237.5 77.5t-139.5 202.5q-35 217 -35 434q0 218 35 433q26 125 139.5 204t237.5 79h530q127 0 239.5 -79t138.5 -204q35 -215 35 -433q0 -217 -35 -434q-26 -125 -138.5 -202.5t-239.5 -77.5zM752 329q76 0 134 55t78 127q19 70 29 116t10 86
q0 41 -10 87t-29 116q-20 74 -78 128t-134 54h-149q-74 0 -132 -54t-80 -128q-20 -70 -29.5 -116t-9.5 -87q0 -40 9.5 -86t29.5 -116q22 -72 80 -127t132 -55h149z" />
    <glyph glyph-name="u041F" unicode="&#x41f;" horiz-adv-x="1484" 
d="M1270 0h-352v1078h-566v-1078h-352v1430h1270v-1430z" />
    <glyph glyph-name="u0420" unicode="&#x420;" horiz-adv-x="1430" 
d="M351 0h-351v1430h881q16 0 48 -3q113 -20 186.5 -96.5t109 -188.5t35.5 -232q0 -126 -38 -242.5t-111.5 -191.5t-181.5 -85l-48 -2h-530v-389zM668 719q37 0 77.5 6.5t75.5 26t57 57.5t22 100q0 60 -22 97.5t-57 57.5t-75.5 27t-77.5 7h-316v-379h316z" />
    <glyph glyph-name="u0421" unicode="&#x421;" horiz-adv-x="1562" 
d="M986 0h-617q-124 0 -217.5 77.5t-116.5 202.5q-35 216 -35 433t35 434q23 125 116.5 204t217.5 79h617q124 0 217.5 -79t116.5 -204q21 -139 30 -283h-359q-8 73 -32.5 125t-74 80.5t-132.5 28.5h-149q-76 0 -133.5 -34.5t-78.5 -104.5q-39 -132 -39 -244t39 -245
q21 -71 78.5 -106t133.5 -35h149q77 0 123.5 29.5t71 70t34 78t10.5 56.5h359q-9 -142 -30 -283q-23 -125 -116.5 -202.5t-217.5 -77.5z" />
    <glyph glyph-name="u0422" unicode="&#x422;" horiz-adv-x="1275" 
d="M694 0h-353v1099h-401v331h1155v-331h-401v-1099z" />
    <glyph glyph-name="u0423" unicode="&#x423;" horiz-adv-x="1425" 
d="M835 0h-519q-123 0 -217 77.5t-117 204.5q-14 92 -22 185h372q3 -20 5 -39q13 -47 44 -67.5t74.5 -25t92.5 -4.5h54q49 0 92.5 10t74.5 35.5t44 72.5q24 78 33 157h-517q-125 0 -218 78.5t-116 202.5q-35 217 -35 434v109h352v-109q0 -72 9.5 -104t29.5 -99
q21 -73 79 -127t132 -54h290v493h352v-715q0 -217 -35 -433q-23 -125 -116 -203.5t-218 -78.5z" />
    <glyph glyph-name="u0424" unicode="&#x424;" horiz-adv-x="1921" 
d="M1029 0h-351v389h-92t-35.5 1t-58.5 1h-162q-107 10 -180.5 85t-111.5 191.5t-38 242.5q0 120 35.5 232t109 188.5t185.5 96.5q29 3 49 3h949q16 0 49 -3q112 -20 185.5 -96.5t109 -188.5t35.5 -232q0 -126 -38 -242.5t-111.5 -191.5t-180.5 -85l-49 -2h-299v-389z
M677 719v379h-86q-37 0 -77.5 -7t-75.5 -27t-57 -57.5t-22 -97.5q0 -62 22 -100t57 -57.5t75.5 -26t77.5 -6.5h86zM1116 719q37 0 77.5 6.5t75.5 26t57 57.5t22 100q0 60 -22 97.5t-57 57.5t-75.5 27t-77.5 7h-86v-379h86z" />
    <glyph glyph-name="u0425" unicode="&#x425;" horiz-adv-x="1548" 
d="M1376 0h-395l-363 485l-364 -485h-394l561 758l-498 672h395l300 -399l300 399h394l-497 -672z" />
    <glyph glyph-name="u0426" unicode="&#x426;" horiz-adv-x="1637" 
d="M1474 -270h-352v269h-1122v1430h352v-1099h503v1099h352v-1099h267v-600z" />
    <glyph glyph-name="u0427" unicode="&#x427;" horiz-adv-x="1491" 
d="M1260 0h-352v515h-528l-50 4q-107 9 -180.5 89.5t-111.5 200.5t-38 248v373h360v-373q0 -62 22 -102.5t57 -64.5t75.5 -34t77.5 -10h316v584h352v-1430z" />
    <glyph glyph-name="u0428" unicode="&#x428;" horiz-adv-x="1795" 
d="M1609 0h-1609v1430h352v-1099h276v1099h352v-1099h277v1099h352v-1430z" />
    <glyph glyph-name="u0429" unicode="&#x429;" horiz-adv-x="1997" 
d="M1876 -270h-352v258h-1524v1430h352v-1099h276v1099h352v-1099h277v1099h352v-1088h267v-600z" />
    <glyph glyph-name="u042A" unicode="&#x42a;" horiz-adv-x="1598" 
d="M1005 0h-878v1101h-277v331h628v-388h527l52 -6q107 -9 180.5 -84.5t111.5 -191.5t38 -242q0 -120 -35.5 -231.5t-109 -187.5t-185.5 -96q-32 -5 -52 -5zM795 332q37 0 77.5 7t75 27t57 57.5t22.5 98.5q0 62 -22.5 99.5t-57 57t-75 26.5t-77.5 7h-317v-380h317z" />
    <glyph glyph-name="u042B" unicode="&#x42b;" horiz-adv-x="1953" 
d="M1807 0h-352v1430h352v-1430zM881 0h-881v1430h353v-389h528l48 -3q108 -9 181.5 -84t111.5 -191.5t38 -242.5q0 -120 -35.5 -232t-109 -188.5t-186.5 -96.5q-32 -3 -48 -3zM668 331q37 0 77.5 7t75.5 27t57 57.5t22 98.5q0 62 -22 99.5t-57 57t-75.5 26.5t-77.5 7h-316
v-380h316z" />
    <glyph glyph-name="u042C" unicode="&#x42c;" horiz-adv-x="1472" 
d="M878 0h-878v1430h351v-389h527l51 -3q108 -9 181.5 -84.5t111.5 -191.5t38 -242q0 -121 -35.5 -232.5t-109 -188t-186.5 -96.5q-31 -3 -51 -3zM667 330q37 0 77.5 7t75.5 27t57 57.5t22 98.5q0 62 -22 99.5t-57 57.5t-75.5 26.5t-77.5 6.5h-316v-380h316z" />
    <glyph glyph-name="u042D" unicode="&#x42d;" horiz-adv-x="1561" 
d="M981 0h-617q-124 0 -217.5 77.5t-116.5 202.5q-21 143 -30 283h359q2 -18 17 -55t44 -77.5t73.5 -69.5t104.5 -29h149q76 0 142 31t87 102q16 46 16 92h-443v332h440q-2 24 -2 31t-1 13.5t-8 31.5q-21 71 -88 102t-143 31h-149q-66 0 -111 -29.5t-72.5 -70t-40.5 -78
t-15 -56.5h-359q9 144 30 283q23 125 116.5 204t217.5 79h617q124 0 217.5 -79t116.5 -204q35 -215 35 -433q0 -217 -35 -434q-23 -125 -116.5 -202.5t-217.5 -77.5z" />
    <glyph glyph-name="u042E" unicode="&#x42e;" horiz-adv-x="2100" 
d="M1557 0h-617q-124 0 -217.5 77.5t-116.5 202.5q-24 139 -33 277h-220v-557h-353v1430h353v-541h220q9 129 33 258q23 125 116.5 204t217.5 79h617q125 0 218 -79t117 -204q34 -217 34 -434t-34 -433q-24 -125 -117 -202.5t-218 -77.5zM1324 329q73 0 131.5 54t79.5 128
q20 70 29.5 116t9.5 86q0 41 -9.5 87t-29.5 116q-21 74 -79.5 128t-131.5 54h-150q-75 0 -133.5 -54t-78.5 -128q-19 -70 -29 -116t-10 -87q0 -40 10 -86t29 -116q20 -74 78.5 -128t133.5 -54h150z" />
    <glyph glyph-name="u042F" unicode="&#x42f;" horiz-adv-x="1474" 
d="M7 0l294 397q-98 19 -165 95t-101.5 187.5t-34.5 231.5t35.5 231.5t109 188t186.5 96.5q72 5 92 5h837v-1432h-353v389h-217l-288 -389h-395zM592 721h316v379h-316q-37 0 -77.5 -7t-75.5 -27t-57 -57.5t-22 -98.5t22 -99t57 -57.5t75.5 -26t77.5 -6.5z" />
    <glyph glyph-name="u0430" unicode="&#x430;" horiz-adv-x="1135" 
d="M926 0h-312v117q-32 -61 -89 -89t-129 -28h-184q-88 0 -154.5 56t-82.5 145q-5 37 -5 91q0 64 5 105q17 83 94.5 137t163.5 61h370q-5 36 -14 68q-10 31 -34 38.5t-55 7.5h-28q-49 0 -74 -17t-40 -51h-334l11 125q16 90 82.5 145.5t153.5 55.5h354q61 0 133.5 -29
t108.5 -76q27 -42 38 -96q21 -140 21 -282v-484zM500 258q30 0 53 7.5t36 38.5l19 55h-203q-47 0 -70.5 -16t-23.5 -35q0 -18 23.5 -34t70.5 -16h95z" />
    <glyph glyph-name="u0431" unicode="&#x431;" horiz-adv-x="1174" 
d="M704 0h-446q-87 0 -153.5 55.5t-82.5 142.5q-22 143 -22 286v445q0 70 9.5 182.5t31.5 163.5q30 62 111.5 100t222.5 38h49q69 0 109 68h334l-14 -84q-18 -92 -103.5 -167t-173.5 -75h-128q-24 0 -53.5 -9.5t-53 -50.5t-28.5 -130v-117q29 59 83.5 87t122.5 30h185
q88 0 154 -55.5t82 -143.5q25 -142 25 -284q0 -141 -25 -284q-16 -87 -82 -142.5t-154 -55.5zM511 299q41 0 72 24.5t42 62.5q19 61 19 107q0 50 -19 105q-11 39 -42 64.5t-72 25.5q-93 0 -140 -36.5t-56 -132.5l-3 -33q0 -21 6.5 -43t18.5 -57q15 -38 45.5 -62.5
t71.5 -24.5h57z" />
    <glyph glyph-name="u0432" unicode="&#x432;" horiz-adv-x="1136" 
d="M731 1l-731 -1v966h631q71 0 118 -23t73.5 -59t37.5 -75t11 -73q-2 -60 -27 -98.5t-56 -49.5q89 -15 134 -92t45 -185q0 -140 -62 -220t-174 -90zM436 658q35 0 59.5 4.5t24.5 31.5q0 24 -15.5 29.5t-40.5 5.5h-150v-71h122zM520 300q33 0 60 2t43.5 13.5t16.5 38.5
q0 24 -13 35t-34 14t-45 3h-234v-106h206z" />
    <glyph glyph-name="u0433" unicode="&#x433;" horiz-adv-x="1098" 
d="M650 0h-405q-82 0 -136.5 44t-81.5 114t-27 146q0 77 27.5 147.5t81.5 115t136 44.5h225q65 0 98.5 17t33.5 36q0 17 -28.5 31t-87.5 14q-36 0 -60 -11.5t-29 -34.5h-334q6 52 13 103q16 90 82.5 145.5t154.5 55.5h323q84 0 138.5 -42.5t81 -110t26.5 -141.5
q0 -79 -28.5 -152.5t-83.5 -120.5t-134 -47h-201q-54 0 -82 -15t-28 -33t27 -32.5t82 -14.5h23q34 0 62.5 8.5t43.5 37.5h334q-4 -51 -11 -103q-16 -89 -82.5 -145t-153.5 -56z" />
    <glyph glyph-name="u0434" unicode="&#x434;" horiz-adv-x="1184" 
d="M588 -450h-269q-90 0 -156.5 55.5t-83.5 142.5q-7 70 -10 139h328q14 -34 49 -45.5t74 -11.5h6q9 0 29.5 5t42 24.5t37 60t15.5 111.5v84q-29 -62 -87.5 -89.5t-129.5 -27.5h-174q-88 0 -154 56t-83 143q-22 142 -22 284q0 141 22 284q17 87 83 142.5t154 55.5h133
q71 0 148.5 -27t109.5 -90v117h315v-929q0 -70 -10.5 -182.5t-32.5 -162.5q-29 -63 -111 -101q-85 -38 -223 -38zM471 297q183 0 179 180q0 95 -41 141t-138 46q-48 0 -84 -19t-49 -68q-19 -58 -19 -98t19 -92q13 -39 44 -64.5t70 -25.5h19z" />
    <glyph glyph-name="u0435" unicode="&#x435;" horiz-adv-x="1172" 
d="M715 0h-456q-88 0 -154 56t-83 145q-22 141 -22 283q0 141 22 282q17 90 83 145.5t154 55.5h456q88 0 154.5 -55.5t82.5 -145.5q22 -139 22 -280q0 -58 -3 -116h-647q5 -33 14 -66q9 -31 33 -38.5t56 -7.5h93q36 0 65 8.5t43 37.5h335q-4 -51 -11 -103
q-16 -89 -82.5 -145t-154.5 -56zM650 620q-5 21 -13 43q-9 31 -33.5 38.5t-56.5 7.5h-120q-32 0 -56 -7.5t-33 -38.5q-9 -22 -14 -43h326z" />
    <glyph glyph-name="u0436" unicode="&#x436;" horiz-adv-x="1501" 
d="M1387 0h-326v253q0 38 -25 55t-72 21t-114 4v-332h-313v332q-67 0 -114 -4t-72 -21t-25 -55v-253h-326v295q1 105 33.5 154t79.5 64q-39 19 -55 67t-16 90v296h318v-254q0 -47 43.5 -63t133.5 -16v334h313v-334q90 0 133.5 16t43.5 63v254h318v-296q0 -42 -16 -90
t-55 -67q47 -15 79.5 -64t33.5 -154v-295z" />
    <glyph glyph-name="u0437" unicode="&#x437;" horiz-adv-x="1070" 
d="M646 0h-398q-87 0 -153.5 55.5t-83.5 144.5q-6 63 -11 125h334q38 -67 108 -67h29q49 0 72.5 8.5t23.5 44.5q0 43 -27 58.5t-91 15.5h-166v237h124q34 0 59.5 5.5t25.5 37.5q0 30 -14.5 47t-70.5 17q-33 1 -43 -7.5t-23 -38.5h-334l11 81q16 89 82.5 145.5t154.5 56.5
h304q71 0 118 -23t73.5 -59t37.5 -75t11 -73q-1 -60 -26.5 -98.5t-56.5 -49.5q89 -15 134 -92t45 -185q0 -143 -67.5 -226t-181.5 -85z" />
    <glyph glyph-name="u0438" unicode="&#x438;" horiz-adv-x="1174" 
d="M965 0h-313v430l-338 -430h-314v966h314v-430l338 430h313v-966z" />
    <glyph glyph-name="u0439" unicode="&#x439;" horiz-adv-x="1179" 
d="M480 1091q-82 0 -153 13q-59 13 -114 52t-91.5 93.5t-36.5 112.5v123h277q0 -45 12 -67.5t56 -38.5q20 -8 48 -8q32 0 58 8q38 8 51.5 30.5t13.5 61.5v14h280v-123q0 -58 -36.5 -112.5t-91.5 -93.5t-114 -52q-71 -13 -159 -13zM965 0h-313v430l-338 -430h-314v966h314
v-430l338 430h313v-966z" />
    <glyph glyph-name="u043A" unicode="&#x43a;" horiz-adv-x="1153" 
d="M1047 0h-377l-247 326h-109v-326h-314v966h314v-326h70l244 326h377l-328 -457z" />
    <glyph glyph-name="u043B" unicode="&#x43b;" horiz-adv-x="1135" 
d="M979 0h-313v652h-61q-40 0 -72 -22t-47 -59l-132 -416q-19 -69 -72 -112t-128 -43h-214v314h80q46 0 70 48l125 394q25 93 97 151.5t173 58.5h494v-966z" />
    <glyph glyph-name="u043C" unicode="&#x43c;" horiz-adv-x="1420" 
d="M1218 0h-314v493l-138 -493h-314l-138 493v-493h-314v966h435l174 -479l174 479h435v-966z" />
    <glyph glyph-name="u043D" unicode="&#x43d;" horiz-adv-x="1189" 
d="M982 0h-314v326h-354v-326h-314v966h314v-326h354v326h314v-966z" />
    <glyph glyph-name="u043E" unicode="&#x43e;" horiz-adv-x="1197" 
d="M715 0h-456q-88 0 -154 55.5t-83 142.5q-22 143 -22 284q0 142 22 284q17 88 83 143.5t154 55.5h456q88 0 154.5 -55.5t82.5 -143.5q22 -142 22 -284q0 -141 -22 -284q-16 -87 -82.5 -142.5t-154.5 -55.5zM522 299q39 0 75.5 25t49.5 65q17 53 17 96q0 42 -19 94
q-16 39 -50 63t-73 24h-67q-41 0 -76.5 -24t-48.5 -63q-20 -56 -20 -96q0 -43 20 -97q13 -39 48.5 -63t76.5 -24h67z" />
    <glyph glyph-name="u043F" unicode="&#x43f;" horiz-adv-x="1195" 
d="M1024 0h-314v652h-396v-652h-314v966h1024v-966z" />
    <glyph glyph-name="u0440" unicode="&#x440;" horiz-adv-x="1189" 
d="M0 966h314v-116q30 61 88 88.5t130 27.5h169q70 0 127.5 -37t89.5 -99q13 -30 20 -63q24 -142 24 -284q0 -76 -7.5 -179t-35.5 -166q-41 -83 -127 -120q-54 -17 -75 -17l-185 -1q-72 0 -130 28t-88 89v-582h-314v1431zM493 666q-97 0 -138 -45.5t-41 -141.5
q0 -100 47.5 -139t145.5 -39q42 0 79 23t50 62q5 23 8.5 55t3.5 42l-2 42q-7 81 -51.5 111t-86.5 30h-15z" />
    <glyph glyph-name="u0441" unicode="&#x441;" horiz-adv-x="1151" 
d="M715 0h-454q-88 0 -154 55.5t-83 142.5q-24 143 -24 284q0 142 24 284q17 88 83 143.5t154 55.5h454q89 0 156 -55.5t83 -143.5q11 -110 19 -220h-321q-5 37 -13 74q-9 31 -33.5 38.5t-55.5 7.5h-96q-39 0 -71 -25t-43 -65q-18 -55 -18 -100q0 -42 18 -90
q13 -38 44 -62.5t70 -24.5h96q31 0 55.5 7.5t33.5 38.5q8 33 13 71h321q-8 -111 -19 -218q-16 -87 -83 -142.5t-156 -55.5z" />
    <glyph glyph-name="u0442" unicode="&#x442;" horiz-adv-x="1026" 
d="M577 0h-314v652h-293v314h901v-314h-294v-652z" />
    <glyph glyph-name="u0443" unicode="&#x443;" horiz-adv-x="1195" 
d="M584 -450h-269q-87 0 -153.5 56t-82.5 145q-9 69 -14 139h329q15 -36 45 -48t69 -12l15 -1q18 0 48 12t53 56t26 134v84q-32 -62 -90.5 -89.5t-130.5 -27.5h-146q-155 0 -219 119.5t-64 361.5v484h315v-397q0 -88 16.5 -141.5t40.5 -81t49 -37t41 -9.5h8q60 0 100 40.5
t60 101.5t20 122v402h312v-965q-2 -80 -12.5 -173t-30.5 -136q-30 -63 -112 -101t-223 -38z" />
    <glyph glyph-name="u0444" unicode="&#x444;" horiz-adv-x="1702" 
d="M898 -465h-312v584q-33 -69 -106 -98q-71 -21 -144 -21q-67 0 -135.5 14.5t-114.5 64.5q-28 31 -43 71t-22 83q-21 125 -21 252q0 85 7 170q3 47 12.5 94t30.5 90q44 88 136 115q69 18 140 18q44 0 86 -7q54 -9 101 -37.5t73 -77.5v117h312v-117q26 49 73 77.5t101 37.5
q41 7 85 7q72 0 141 -18q90 -27 136 -115q36 -88 41 -184q8 -88 8 -176q0 -123 -22 -246q-9 -89 -63 -154q-46 -50 -114 -64.5t-136 -14.5q-73 0 -144 21q-73 29 -106 98v-584zM436 304q78 0 114 46.5t36 130.5q0 85 -33.5 135t-110.5 50q-37 0 -67.5 -26t-41.5 -61
q-17 -54 -17 -98q0 -47 17 -93q13 -33 41 -58.5t62 -25.5zM1045 304q37 0 65 25.5t41 58.5q15 46 15 93q0 44 -15 98q-13 35 -43.5 61t-65.5 26q-73 0 -108.5 -48t-35.5 -129q0 -88 34 -136.5t113 -48.5z" />
    <glyph glyph-name="u0445" unicode="&#x445;" horiz-adv-x="1124" 
d="M978 0h-335l-199 296l-199 -296h-335l345 514l-303 452h335l157 -233l156 233h335l-303 -451z" />
    <glyph glyph-name="u0446" unicode="&#x446;" horiz-adv-x="1256" 
d="M1168 -220h-313v224h-855v967h314v-653h312v653h313v-653h229v-538z" />
    <glyph glyph-name="u0447" unicode="&#x447;" horiz-adv-x="1173" 
d="M962 0h-314v392q-30 -62 -88.5 -89.5t-129.5 -27.5h-170q-71 0 -128.5 38t-89.5 100q-18 42 -27 133t-12 172.5l-3 81.5v166h314v-123q0 -88 16.5 -141.5t41 -81t49.5 -36.5t42 -9h6q61 0 100.5 40.5t59 101t19.5 121.5v128h314v-966z" />
    <glyph glyph-name="u0448" unicode="&#x448;" horiz-adv-x="1424" 
d="M1301 0h-1301v966h314v-652h180v652h314v-652h180v652h313v-966z" />
    <glyph glyph-name="u0449" unicode="&#x449;" horiz-adv-x="1593" 
d="M1446 -220h-314v227h-1132v966h314v-653h138v653h313v-653h138v653h314v-655h229v-538z" />
    <glyph glyph-name="u044A" unicode="&#x44a;" horiz-adv-x="1207" 
d="M783 0h-716v666h-157v300h471v-286h402q91 0 146.5 -50t81 -127.5t25.5 -162.5q0 -88 -26.5 -165.5t-82.5 -126t-144 -48.5zM588 279q69 0 97 13t28 48q0 30 -24 45.5t-101 15.5h-207v-122h207z" />
    <glyph glyph-name="u044B" unicode="&#x44b;" horiz-adv-x="1573" 
d="M1385 0h-314v966h314v-966zM694 0h-694v966h314v-286h380q92 0 147.5 -50t81 -127.5t25.5 -162.5q0 -88 -26.5 -165.5t-82.5 -126t-145 -48.5zM551 278q28 0 50.5 10.5t22.5 50.5q0 42 -24.5 53t-55.5 11l-230 -1v-123h187z" />
    <glyph glyph-name="u044C" unicode="&#x44c;" horiz-adv-x="1136" 
d="M715 0h-715v966h314v-286h401q92 0 147.5 -50t81 -127.5t25.5 -162.5q0 -88 -26.5 -165.5t-82.5 -126t-145 -48.5zM571 277q30 0 53 11t23 53q0 40 -24 50t-55 10l-256 -1v-122h210z" />
    <glyph glyph-name="u044D" unicode="&#x44d;" horiz-adv-x="1156" 
d="M712 0h-454q-87 0 -153.5 55.5t-82.5 142.5q-15 91 -22 177h321q1 -14 14 -41.5t41 -51.5t75 -24h68q60 0 87 20t36 44.5t10 38.5h-223v259h221q-2 12 -11 32t-36 37.5t-84 17.5h-68q-46 0 -74 -24t-41.5 -51t-14.5 -40h-318q3 85 19 174q16 88 82.5 143.5t153.5 55.5
h454q88 0 154 -55.5t82 -143.5q25 -142 25 -284q0 -141 -25 -284q-16 -87 -82 -142.5t-154 -55.5z" />
    <glyph glyph-name="u044E" unicode="&#x44e;" horiz-adv-x="1682" 
d="M313 0h-313v967h313v-334h184q7 72 22 144q16 88 82.5 143.5t154.5 55.5h453q88 0 155.5 -55.5t84.5 -143.5q22 -142 22 -284q0 -141 -22 -284q-17 -87 -84.5 -142.5t-155.5 -55.5h-453q-88 0 -154.5 55.5t-82.5 142.5q-6 38 -11.5 61.5t-7.5 63.5h-187v-334zM1016 310
q41 0 74 23.5t46 63.5q16 46 16 92q0 45 -16 98q-11 40 -45 65t-75 25h-68q-40 0 -74 -25t-45 -65q-17 -53 -17 -93q0 -42 17 -97q11 -40 45 -63.5t74 -23.5h68z" />
    <glyph glyph-name="u044F" unicode="&#x44f;" horiz-adv-x="1173" 
d="M948 0h-314v265h-101l-150 -265h-377l196 292q-72 16 -116.5 66t-65 121t-20.5 147q0 88 32 165.5t93 126t150 48.5h673v-966zM633 545v141h-197q-30 0 -55.5 -3.5t-41 -19.5t-15.5 -53q0 -30 13.5 -44t35 -18t45.5 -4z" />
    <glyph glyph-name="u0451" unicode="&#x451;" horiz-adv-x="1163" 
d="M715 0h-456q-88 0 -154 56t-83 145q-22 141 -22 283q0 141 22 282q17 90 83 145.5t154 55.5h456q88 0 154.5 -55.5t82.5 -145.5q24 -137 24 -277l-5 -119h-647q5 -33 14 -66q9 -31 33 -38.5t56 -7.5h95q35 0 63.5 8.5t42.5 37.5h335q-4 -51 -11 -103q-16 -89 -82.5 -145
t-154.5 -56zM650 620q-5 21 -13 43q-9 31 -33 38.5t-55 7.5h-122q-32 0 -56 -7.5t-33 -38.5q-9 -22 -14 -43h326zM310 1147h-86q-41 0 -72.5 24t-44.5 71q-3 20 -3 61l3 91q5 22 18 44t36.5 36.5t62.5 14.5h86q39 0 62.5 -14.5t36.5 -36.5t18 -44q4 -27 4 -76t-4 -76
q-13 -47 -44.5 -71t-72.5 -24zM753 1150h-89q-41 0 -71.5 24t-45.5 71q-3 20 -3 61l3 91q5 22 18.5 44t37.5 36.5t61 14.5h89q37 0 61 -14.5t37 -36.5t17 -44q4 -27 4 -76t-4 -76q-13 -47 -44.5 -71t-70.5 -24z" />
    <glyph glyph-name="endash" unicode="&#x2013;" horiz-adv-x="1349" 
d="M1152 383h-1152v352h1152v-352z" />
    <glyph glyph-name="emdash" unicode="&#x2014;" horiz-adv-x="1847" 
d="M1592 383h-1592v352h1592v-352z" />
    <glyph glyph-name="quoteleft" unicode="&#x2018;" horiz-adv-x="623" 
d="M0 1761h217v-263q51 0 85 -16.5t46 -65.5q4 -27 4 -72t-4 -72q-10 -38 -49 -70.5t-76 -32.5h-95q-26 0 -55 16t-49.5 45t-20.5 67l-3 79v385z" />
    <glyph glyph-name="quoteright" unicode="&#x2019;" horiz-adv-x="617" 
d="M352 1169h-217v264q-51 0 -85 16t-46 65q-4 27 -4 72t4 72q10 39 49 71t76 32h95q26 0 55 -16t49.5 -44.5t20.5 -66.5l3 -79v-386z" />
    <glyph glyph-name="quotesinglbase" unicode="&#x201a;" horiz-adv-x="591" 
d="M352 -257h-217v264q-51 0 -85 16t-46 65q-4 27 -4 72t4 72q10 39 49 71t76 32h95q26 0 55 -16t49.5 -44.5t20.5 -66.5l3 -79v-386z" />
    <glyph glyph-name="quotedblleft" unicode="&#x201c;" horiz-adv-x="954" 
d="M0 1761h217v-263q51 0 85 -16.5t46 -65.5q4 -27 4 -72t-4 -72q-10 -38 -49 -70.5t-76 -32.5h-95q-26 0 -55 16t-49.5 45t-20.5 67l-3 79v385zM501 1761h217v-263q51 0 85 -16.5t46 -65.5q4 -27 4 -72t-4 -72q-10 -38 -49 -70.5t-76 -32.5h-95q-26 0 -55 16t-49.5 45
t-20.5 67l-3 79v385z" />
    <glyph glyph-name="quotedblright" unicode="&#x201d;" horiz-adv-x="959" 
d="M853 1169h-217v264q-51 0 -85 16t-46 65q-4 27 -4 72t4 72q10 39 49 71t76 32h95q26 0 55 -16t49.5 -44.5t20.5 -66.5l3 -79v-386zM352 1169h-217v264q-51 0 -85 16t-46 65q-4 27 -4 72t4 72q10 39 49 71t76 32h95q26 0 55 -16t49.5 -44.5t20.5 -66.5l3 -79v-386z" />
    <glyph glyph-name="quotedblbase" unicode="&#x201e;" horiz-adv-x="965" 
d="M853 -257h-217v264q-51 0 -85 16t-46 65q-4 27 -4 72t4 72q10 39 49 71t76 32h95q26 0 55 -16t49.5 -44.5t20.5 -66.5l3 -79v-386zM352 -257h-217v264q-51 0 -85 16t-46 65q-4 27 -4 72t4 72q10 39 49 71t76 32h95q26 0 55 -16t49.5 -44.5t20.5 -66.5l3 -79v-386z" />
    <glyph glyph-name="ellipsis" unicode="&#x2026;" horiz-adv-x="1601" 
d="M1357 0h-95q-37 0 -76 42t-49 80q-4 26 -4 62q0 37 4 61q10 40 49 82.5t76 42.5h95q39 0 78 -43t47 -85q4 -23 4 -57q0 -35 -4 -57q-8 -42 -47 -85t-78 -43zM791 0h-95q-37 0 -76 42t-49 80q-4 26 -4 62q0 37 4 61q10 40 49 82.5t76 42.5h95q38 0 77 -43t48 -85
q4 -23 4 -57q0 -35 -4 -57q-9 -42 -48 -85t-77 -43zM224 0h-95q-37 0 -76 42t-49 80q-4 26 -4 62q0 37 4 61q10 40 49 82.5t76 42.5h95q39 0 78 -43t47 -85q4 -23 4 -57q0 -35 -4 -57q-8 -42 -47 -85t-78 -43z" />
    <glyph glyph-name="guilsinglleft" unicode="&#x2039;" horiz-adv-x="746" 
d="M480 235h-338l-142 481l142 482h338l-143 -482z" />
    <glyph glyph-name="guilsinglright" unicode="&#x203a;" horiz-adv-x="746" 
d="M0 235l142 481l-142 482h337l143 -482l-143 -481h-337z" />
    <glyph glyph-name="u2116" unicode="&#x2116;" horiz-adv-x="2387" 
d="M1270 0h-394l-524 826v-826h-352v1430h394l524 -826v826h352v-1430zM1997 721h-329q-73 0 -127.5 45t-68.5 118q-14 98 -14 195q0 98 14 194q14 72 68.5 117.5t127.5 45.5h329q73 0 127.5 -45.5t67.5 -117.5q15 -96 15 -194q0 -97 -15 -195q-13 -73 -67.5 -118
t-127.5 -45zM1839 982q14 0 26 7.5t15 22.5q16 44 16 66q0 23 -16 67q-12 30 -41 30q-20 0 -34 -5.5t-20 -24.5q-17 -44 -17 -67q0 -22 17 -66q12 -30 41 -30h13zM2198 295h-735v352h735v-352z" />
    <glyph glyph-name="minus" unicode="&#x2212;" horiz-adv-x="1129" 
d="M912 523h-912v352h912v-352z" />
  </font>
</defs>
</svg>
