<?xml version="1.0" encoding="utf-8"?>
<!-- Generator: Adobe Illustrator 27.0.0, SVG Export Plug-In . SVG Version: 6.00 Build 0)  -->
<svg version="1.1" id="Layer_1" xmlns="http://www.w3.org/2000/svg" xmlns:xlink="http://www.w3.org/1999/xlink" x="0px" y="0px"
	 viewBox="0 0 76 74" style="enable-background:new 0 0 76 74;" xml:space="preserve">
<style type="text/css">
	.st0{fill:#241F20;}
	.st1{fill:#99302B;}
</style>
<g>
	<path class="st0" d="M30.05,9.67c-0.18-0.6-0.34-1.26-0.46-1.99c-0.3-1.79-0.25-3.37-0.1-4.61c0.18-0.62,0.35-1.24,0.53-1.86
		c0.49,2.03,0.99,4.07,1.48,6.1c-0.27,0.4-0.54,0.82-0.82,1.27C30.45,8.95,30.24,9.31,30.05,9.67z"/>
	<path class="st0" d="M47.87,9.67c0.18-0.6,0.34-1.26,0.46-1.99c0.3-1.79,0.25-3.37,0.1-4.61c-0.18-0.62-0.35-1.24-0.53-1.86
		c-0.52,2.1-1.05,4.19-1.57,6.29c0.29,0.37,0.59,0.77,0.89,1.2C47.46,9.02,47.67,9.35,47.87,9.67z"/>
	<path class="st1" d="M42.81,74c-10.64-7.13-15.65-15.46-17.86-19.88c-6.37-12.75-9.35-32.79,0.7-43.54
		c1.12-1.2,5.2-5.44,11.29-5.84C44.53,4.23,52.57,9.85,54.1,16.8c1.08,4.89-1.37,9.06-4.83,14.94c-5.56,9.45-9.94,10.42-12.33,15.85
		C34.87,52.29,34.35,60.23,42.81,74z"/>
	<circle class="st0" cx="33.18" cy="15.54" r="0.94"/>
	<circle class="st0" cx="43.43" cy="15.54" r="0.94"/>
</g>
</svg>
