<?xml version="1.0" encoding="utf-8"?>
<!-- Generator: Adobe Illustrator 27.0.0, SVG Export Plug-In . SVG Version: 6.00 Build 0)  -->
<svg version="1.1" id="Layer_1" xmlns="http://www.w3.org/2000/svg" xmlns:xlink="http://www.w3.org/1999/xlink" x="0px" y="0px"
	 viewBox="0 0 841.89 595.28" style="enable-background:new 0 0 841.89 595.28;" xml:space="preserve">
<style type="text/css">
	.st0{fill:#241F20;}
	.st1{fill:#99302B;}
</style>
<path class="st0" d="M115.87,75.87c-0.35-1.17-0.67-2.47-0.91-3.9c-0.59-3.51-0.49-6.61-0.2-9.04c0.35-1.21,0.69-2.43,1.04-3.64
	c0.97,3.98,1.93,7.97,2.9,11.95c-0.53,0.77-1.07,1.6-1.6,2.48C116.66,74.45,116.25,75.17,115.87,75.87z"/>
<path class="st0" d="M150.79,75.87c0.35-1.17,0.67-2.47,0.91-3.9c0.59-3.51,0.49-6.61,0.2-9.04c-0.35-1.21-0.69-2.43-1.04-3.64
	c-1.02,4.11-2.05,8.21-3.07,12.32c0.57,0.72,1.16,1.5,1.74,2.34C149.98,74.6,150.4,75.24,150.79,75.87z"/>
<path class="st1" d="M140.87,201.88c-20.84-13.96-30.65-30.28-34.98-38.94c-12.47-24.97-18.32-64.23,1.37-85.29
	c2.2-2.35,10.19-10.65,22.11-11.45c14.87-1,30.61,10.02,33.61,23.63c2.11,9.59-2.69,17.75-9.46,29.26
	c-10.89,18.52-19.46,20.4-24.15,31.04C125.32,159.36,124.3,174.9,140.87,201.88z"/>
<circle class="st0" cx="122.02" cy="87.37" r="1.85"/>
<circle class="st0" cx="142.08" cy="87.36" r="1.85"/>
</svg>
