<svg width="193" height="60" viewBox="0 0 193 60" fill="none" xmlns="http://www.w3.org/2000/svg">
<path d="M4.18784 55.5809C3.88917 54.9341 3.39666 54.6283 2.63726 54.6283C1.50927 54.6283 0.791176 55.342 0.791176 56.4539C0.791176 57.5659 1.52834 58.2445 2.67857 58.2445C3.26321 58.2445 3.74301 58.0534 4.00991 57.7124C4.11159 57.5977 4.16242 57.4958 4.2355 57.2887L5.00445 57.4544C4.86146 57.7539 4.7566 57.91 4.58502 58.0948C4.13383 58.5504 3.47928 58.7925 2.64679 58.7925C1.03584 58.7925 0 57.8877 0 56.4699C0 55.052 1.0263 54.0962 2.59595 54.0962C3.4475 54.0962 4.13383 54.3606 4.57549 54.8577C4.71847 55.0138 4.81062 55.1476 4.93454 55.3898L4.18784 55.5809Z" fill="black"/>
<path d="M12.048 58.0948C11.6476 58.3848 11.4538 58.4931 11.1043 58.6014C10.7548 58.7097 10.3862 58.7671 10.0398 58.7671C8.91185 58.7671 8.22552 58.2924 8.22552 57.5054C8.22552 56.8427 8.7371 56.3616 9.69032 56.1449C10.294 56.0047 10.7865 55.9538 12.048 55.9314V55.4503C12.048 54.8864 11.6063 54.5965 10.7548 54.5965C10.1923 54.5965 9.76975 54.7112 9.48378 54.9533C9.35033 55.068 9.26772 55.1859 9.16604 55.4344L8.36533 55.2942C8.54962 54.9119 8.68307 54.7398 8.94045 54.555C9.35987 54.2396 9.97628 54.0835 10.7452 54.0835C12.0988 54.0835 12.7947 54.5487 12.7947 55.444V57.7762C12.7947 58.149 12.8169 58.3561 12.8773 58.6874H12.0448V58.098L12.048 58.0948ZM12.048 56.4189C10.8278 56.4444 10.2432 56.5018 9.78246 56.6579C9.25819 56.8331 9.004 57.1135 9.004 57.5054C9.004 57.961 9.42341 58.2509 10.0907 58.2509C10.6849 58.2509 11.3299 58.0184 11.7334 57.6711C11.9685 57.464 12.0511 57.2824 12.0511 56.9574V56.4189H12.048Z" fill="black"/>
<path d="M16.4833 58.6843C16.5342 58.3274 16.5564 58.1044 16.5564 57.7539V55.1413C16.5564 54.8099 16.5342 54.5678 16.4833 54.2109H17.3857C17.3349 54.5423 17.3127 54.7589 17.3127 55.1413V56.0461H20.5727V55.1413C20.5727 54.8099 20.5504 54.5455 20.4996 54.2109H21.402C21.3512 54.5264 21.3289 54.743 21.3289 55.1413V57.7539C21.3289 58.1362 21.348 58.3497 21.402 58.6843H20.4996C20.5504 58.3433 20.5727 58.0789 20.5727 57.7539V56.6005H17.3127V57.7539C17.3127 58.1362 17.3317 58.3497 17.3857 58.6843H16.4833Z" fill="black"/>
<path d="M28.6508 58.0948C28.2504 58.3848 28.0566 58.4931 27.7071 58.6014C27.3575 58.7097 26.989 58.7671 26.6426 58.7671C25.5146 58.7671 24.8283 58.2924 24.8283 57.5054C24.8283 56.8427 25.3399 56.3616 26.2931 56.1449C26.8968 56.0047 27.3893 55.9538 28.6508 55.9314V55.4503C28.6508 54.8864 28.2091 54.5965 27.3575 54.5965C26.7951 54.5965 26.3725 54.7112 26.0866 54.9533C25.9531 55.068 25.8705 55.1859 25.7688 55.4344L24.9681 55.2942C25.1524 54.9119 25.2859 54.7398 25.5432 54.555C25.9626 54.2396 26.5791 54.0835 27.348 54.0835C28.7016 54.0835 29.3974 54.5487 29.3974 55.444V57.7762C29.3974 58.149 29.4197 58.3561 29.4801 58.6874H28.6476V58.098L28.6508 58.0948ZM28.6508 56.4189C27.4306 56.4444 26.846 56.5018 26.3852 56.6579C25.861 56.8331 25.6068 57.1135 25.6068 57.5054C25.6068 57.961 26.0262 58.2509 26.6935 58.2509C27.2876 58.2509 27.9327 58.0184 28.3362 57.6711C28.5713 57.464 28.6539 57.2824 28.6539 56.9574V56.4189H28.6508Z" fill="black"/>
<path d="M34.7268 58.6834C34.7776 58.3935 34.7999 58.1705 34.7999 57.7531V54.7677H33.8975C33.3732 54.7677 33.1063 54.7741 32.7473 54.8187V54.1655C33.1158 54.2069 33.3732 54.2165 33.8848 54.2165H36.4903C36.9923 54.2165 37.2814 54.2006 37.6278 54.1655V54.8187C37.2592 54.7773 37.0114 54.7677 36.4775 54.7677H35.5656V57.7531C35.5656 58.1259 35.5847 58.3489 35.6355 58.6834H34.7236H34.7268Z" fill="black"/>
<path d="M40.492 56.4507C40.492 55.0138 41.5564 54.1025 43.2278 54.1025C44.8991 54.1025 45.9572 55.0138 45.9572 56.4412C45.9572 57.8685 44.8896 58.7893 43.2405 58.7893C41.5914 58.7893 40.492 57.8845 40.492 56.4507ZM41.2832 56.4348C41.2832 57.5627 42.0299 58.2509 43.231 58.2509C44.432 58.2509 45.1692 57.5627 45.1692 56.4443C45.1692 55.326 44.432 54.6282 43.2532 54.6282C42.0744 54.6282 41.2832 55.3164 41.2832 56.4348Z" fill="black"/>
<path d="M50.1181 54.6397C50.1181 54.7385 50.1086 54.8468 50.0863 54.971C50.5185 54.423 51.2747 54.1235 52.1993 54.1235C53.7563 54.1235 54.7222 54.936 54.7222 56.2487C54.7222 57.5614 53.7467 58.3898 52.1898 58.3898C51.2779 58.3898 50.528 58.0903 50.0863 57.5582C50.1181 57.8226 50.1276 57.9055 50.1276 58.1062V58.8039C50.1276 59.1608 50.1467 59.3838 50.1976 59.6674H49.2952C49.346 59.3679 49.3683 59.1289 49.3683 58.8135V55.0889C49.3683 54.7162 49.3492 54.4931 49.2952 54.2096H50.1149V54.6397H50.1181ZM52.1294 54.6492C50.9601 54.6492 50.1499 55.3024 50.1499 56.2423C50.1499 57.23 50.9188 57.8672 52.1199 57.8672C53.2384 57.8672 53.9342 57.2459 53.9342 56.2487C53.9342 55.2514 53.2479 54.6492 52.1294 54.6492Z" fill="black"/>
<path d="M58.8392 54.2107C58.7884 54.5261 58.7661 54.7747 58.7661 55.1411V57.2885C58.7661 57.4637 58.7566 57.5784 58.7344 57.8524C58.8488 57.6868 58.9409 57.5625 59.0521 57.4478L61.4733 54.7842C61.6862 54.5421 61.8006 54.4019 61.915 54.2107H62.7856C62.7443 54.5516 62.7252 54.7747 62.7252 55.1411V57.7537C62.7252 58.1265 62.7443 58.3495 62.7983 58.684H61.8959C61.9467 58.3941 61.969 58.1519 61.969 57.7537V55.5871C61.969 55.3386 61.969 55.2653 61.9912 55.0965C61.9086 55.2462 61.8578 55.3195 61.7434 55.4374L59.2809 58.1169C59.0871 58.3335 58.9631 58.4992 58.8519 58.6808H57.9273C57.9877 58.3495 58.0099 58.101 58.0099 57.7505V55.1379C58.0099 54.8065 57.9909 54.5644 57.9368 54.2075H58.8392V54.2107Z" fill="black"/>
<path d="M67.2519 54.2105C67.201 54.5259 67.1788 54.7745 67.1788 55.1409V57.2883C67.1788 57.4636 67.1693 57.5782 67.147 57.8523C67.2614 57.6866 67.3536 57.5623 67.4648 57.4476L69.886 54.784C70.0989 54.5419 70.2132 54.4017 70.3276 54.2105H71.1982C71.1569 54.5514 71.1379 54.7745 71.1379 55.1409V57.7535C71.1379 58.1263 71.1569 58.3493 71.2109 58.6838H70.3086C70.3594 58.3939 70.3816 58.1518 70.3816 57.7535V55.5869C70.3816 55.3384 70.3816 55.2651 70.4039 55.0963C70.3213 55.246 70.2704 55.3193 70.156 55.4372L67.6935 58.1167C67.4997 58.3334 67.3758 58.499 67.2646 58.6807H66.34C66.4003 58.3493 66.4226 58.1008 66.4226 57.7503V55.1377C66.4226 54.8063 66.4035 54.5642 66.3495 54.2073H67.2519V54.2105ZM70.3276 53.3057C70.2546 53.5383 70.1846 53.6529 70.0099 53.7963C69.7112 54.0385 69.2632 54.1787 68.7802 54.1787C68.2973 54.1787 67.7952 54.0225 67.5188 53.7485C67.3853 53.6243 67.325 53.5159 67.2646 53.3088H67.9096C67.9605 53.4745 68.0113 53.5414 68.1257 53.6147C68.2909 53.7135 68.5165 53.7645 68.7929 53.7645C69.3045 53.7645 69.5936 53.6243 69.6858 53.3088H70.3308L70.3276 53.3057Z" fill="black"/>
<path d="M79.3497 54.21C79.2989 54.5254 79.2766 54.7643 79.2766 55.1307V56.0675H79.4927C79.8104 56.0675 80.1695 55.8859 80.3633 55.6341L81.1831 54.5477C81.4087 54.2577 81.6565 54.1494 82.0855 54.1494C82.2888 54.1494 82.4541 54.1845 82.6479 54.2577L82.381 54.7803C82.2888 54.7229 82.2158 54.6974 82.1141 54.6974C81.9711 54.6974 81.8885 54.7388 81.7741 54.879L80.9638 55.8731C80.7986 56.0898 80.554 56.23 80.2267 56.3064C80.627 56.3574 80.8399 56.4307 81.056 56.59C81.2064 56.7047 81.664 57.1996 82.4287 58.0747C82.7686 58.4634 82.8385 58.5399 82.9942 58.6801H81.8885C81.7963 58.4571 81.6311 58.2308 81.0274 57.4948C80.4332 56.7557 80.2076 56.6155 79.623 56.6155H79.2735V57.7529C79.2735 58.1161 79.2925 58.3423 79.3466 58.6833H78.4346C78.4855 58.3105 78.5077 58.1034 78.5077 57.7529V55.1307C78.5077 54.7962 78.4886 54.5923 78.4346 54.21H79.3466H79.3497Z" fill="black"/>
<path d="M85.8147 56.4507C85.8147 55.0138 86.8791 54.1025 88.5505 54.1025C90.2218 54.1025 91.2799 55.0138 91.2799 56.4412C91.2799 57.8685 90.2123 58.7893 88.5632 58.7893C86.9141 58.7893 85.8147 57.8845 85.8147 56.4507ZM86.6059 56.4348C86.6059 57.5627 87.3526 58.2509 88.5536 58.2509C89.7547 58.2509 90.4919 57.5627 90.4919 56.4443C90.4919 55.326 89.7547 54.6282 88.5759 54.6282C87.3971 54.6282 86.6059 55.3164 86.6059 56.4348Z" fill="black"/>
<path d="M95.4409 54.6397C95.4409 54.7385 95.4313 54.8468 95.4091 54.971C95.8412 54.423 96.5975 54.1235 97.5221 54.1235C99.079 54.1235 100.045 54.936 100.045 56.2487C100.045 57.5614 99.0695 58.3898 97.5125 58.3898C96.6006 58.3898 95.8508 58.0903 95.4091 57.5582C95.4409 57.8226 95.4504 57.9055 95.4504 58.1062V58.8039C95.4504 59.1608 95.4695 59.3838 95.5203 59.6674H94.6179C94.6688 59.3679 94.691 59.1289 94.691 58.8135V55.0889C94.691 54.7162 94.6719 54.4931 94.6179 54.2096H95.4377V54.6397H95.4409ZM97.4522 54.6492C96.2829 54.6492 95.4726 55.3024 95.4726 56.2423C95.4726 57.23 96.2416 57.8672 97.4427 57.8672C98.5611 57.8672 99.257 57.2459 99.257 56.2487C99.257 55.2514 98.5706 54.6492 97.4522 54.6492Z" fill="black"/>
<path d="M103.812 56.5431C103.844 57.0975 103.946 57.4065 104.222 57.706C104.549 58.0693 105.051 58.27 105.668 58.27C106.497 58.27 107.072 57.9386 107.358 57.3078L108.076 57.5308C107.883 57.8781 107.749 58.0278 107.511 58.219C107.028 58.6013 106.405 58.7989 105.655 58.7989C104.044 58.7989 103.031 57.8877 103.031 56.4507C103.031 55.0138 104.035 54.1025 105.573 54.1025C106.894 54.1025 107.851 54.7907 108.054 55.9027C108.064 55.9951 108.105 56.3169 108.127 56.5431H103.809H103.812ZM107.307 56.0206C107.247 55.5554 107.091 55.2559 106.764 55.001C106.446 54.7525 106.046 54.6282 105.553 54.6282C104.928 54.6282 104.403 54.8831 104.098 55.3483C103.955 55.5554 103.904 55.7052 103.844 56.0206H107.311H107.307Z" fill="black"/>
<path d="M112.41 54.2105C112.359 54.5259 112.337 54.7745 112.337 55.1409V57.2883C112.337 57.4636 112.327 57.5782 112.305 57.8523C112.42 57.6866 112.512 57.5623 112.623 57.4476L115.044 54.784C115.257 54.5419 115.371 54.4017 115.486 54.2105H116.356C116.315 54.5514 116.296 54.7745 116.296 55.1409V57.7535C116.296 58.1263 116.315 58.3493 116.369 58.6838H115.467C115.518 58.3939 115.54 58.1518 115.54 57.7535V55.5869C115.54 55.3384 115.54 55.2651 115.562 55.0963C115.479 55.246 115.429 55.3193 115.314 55.4372L112.852 58.1167C112.658 58.3334 112.534 58.499 112.423 58.6807H111.498C111.559 58.3493 111.581 58.1008 111.581 57.7503V55.1377C111.581 54.8063 111.562 54.5642 111.508 54.2073H112.41V54.2105ZM115.486 53.3057C115.413 53.5383 115.343 53.6529 115.168 53.7963C114.869 54.0385 114.421 54.1787 113.938 54.1787C113.455 54.1787 112.953 54.0225 112.677 53.7485C112.544 53.6243 112.483 53.5159 112.423 53.3088H113.068C113.119 53.4745 113.169 53.5414 113.284 53.6147C113.449 53.7135 113.675 53.7645 113.951 53.7645C114.463 53.7645 114.752 53.6243 114.844 53.3088H115.489L115.486 53.3057Z" fill="black"/>
<path d="M123.921 55.5809C123.623 54.9341 123.13 54.6283 122.371 54.6283C121.243 54.6283 120.525 55.342 120.525 56.4539C120.525 57.5659 121.262 58.2445 122.412 58.2445C122.997 58.2445 123.476 58.0534 123.743 57.7124C123.845 57.5977 123.896 57.4958 123.969 57.2887L124.738 57.4544C124.595 57.7539 124.49 57.91 124.318 58.0948C123.867 58.5504 123.213 58.7925 122.38 58.7925C120.769 58.7925 119.733 57.8877 119.733 56.4699C119.733 55.052 120.76 54.0962 122.329 54.0962C123.181 54.0962 123.867 54.3606 124.309 54.8577C124.452 55.0138 124.544 55.1476 124.668 55.3898L123.921 55.5809Z" fill="black"/>
<path d="M129.281 54.21C129.23 54.5254 129.208 54.7643 129.208 55.1307V56.0675H129.424C129.741 56.0675 130.1 55.8859 130.294 55.6341L131.114 54.5477C131.34 54.2577 131.587 54.1494 132.016 54.1494C132.22 54.1494 132.385 54.1845 132.579 54.2577L132.312 54.7803C132.22 54.7229 132.147 54.6974 132.045 54.6974C131.902 54.6974 131.819 54.7388 131.705 54.879L130.895 55.8731C130.73 56.0898 130.485 56.23 130.158 56.3064C130.558 56.3574 130.774 56.4307 130.987 56.59C131.137 56.7047 131.595 57.1996 132.36 58.0747C132.7 58.4634 132.769 58.5399 132.925 58.6801H131.819C131.727 58.4571 131.562 58.2308 130.958 57.4948C130.364 56.7557 130.139 56.6155 129.554 56.6155H129.204V57.7529C129.204 58.1161 129.223 58.3423 129.277 58.6833H128.366C128.416 58.3105 128.439 58.1034 128.439 57.7529V55.1307C128.439 54.7962 128.42 54.5923 128.366 54.21H129.277H129.281Z" fill="black"/>
<path d="M136.977 54.2107C136.926 54.5261 136.904 54.7747 136.904 55.1411V57.2885C136.904 57.4637 136.894 57.5784 136.872 57.8524C136.983 57.6868 137.079 57.5625 137.19 57.4478L139.611 54.7842C139.827 54.5421 139.938 54.4019 140.053 54.2107H140.923C140.882 54.5516 140.863 54.7747 140.863 55.1411V57.7537C140.863 58.1265 140.882 58.3495 140.936 58.684H140.034C140.085 58.3941 140.107 58.1519 140.107 57.7537V55.5871C140.107 55.3386 140.107 55.2653 140.129 55.0965C140.046 55.2462 139.996 55.3195 139.881 55.4374L137.419 58.1169C137.225 58.3335 137.101 58.4992 136.987 58.6808H136.065C136.125 58.3495 136.148 58.101 136.148 57.7505V55.1379C136.148 54.8065 136.129 54.5644 136.075 54.2075H136.977V54.2107Z" fill="black"/>
<path d="M148.222 58.6843C148.079 58.4676 147.974 58.337 147.761 58.0693L146.674 56.8013L145.537 58.1458C145.371 58.3274 145.289 58.4517 145.136 58.6843H144.12C144.285 58.5186 144.561 58.2286 144.787 57.961L146.213 56.3679L144.892 54.8737C144.831 54.7972 144.749 54.7175 144.275 54.2109H145.279C145.381 54.4021 145.486 54.5423 145.68 54.7653L146.684 55.9346L147.678 54.7653C147.853 54.5582 147.987 54.3734 148.079 54.2109H149.064C148.829 54.4754 148.612 54.7016 148.438 54.8991L147.144 56.3679L148.498 57.8941C148.566 57.9663 148.812 58.2286 149.235 58.6811H148.222V58.6843Z" fill="black"/>
<path d="M155.18 58.6904C155.18 58.5566 155.158 58.3846 155.107 58.1106C155.362 58.1265 155.435 58.1265 155.619 58.1265C156.019 57.5116 156.172 57.1898 156.305 56.6163C156.429 56.1352 156.48 55.6445 156.48 55.0073C156.48 54.6919 156.461 54.4848 156.42 54.1948C156.737 54.2108 156.88 54.2108 157.525 54.2108H159.391C160.036 54.2108 160.182 54.2108 160.509 54.1948C160.458 54.5103 160.449 54.7747 160.449 55.1475V58.1265C160.544 58.1265 160.704 58.1212 160.928 58.1106C160.887 58.3081 160.868 58.5503 160.868 58.6904V59.1238C160.868 59.3404 160.887 59.5157 160.928 59.6781H160.026C160.067 59.487 160.099 59.2735 160.099 58.9899V58.6841H155.946V58.9899C155.946 59.2639 155.965 59.471 156.007 59.6781H155.104C155.155 59.5125 155.177 59.3468 155.177 59.1301V58.6904H155.18ZM159.702 58.1361V54.7588H157.22C157.22 55.7465 157.179 56.167 157.055 56.6927C156.922 57.2153 156.788 57.5307 156.429 58.1361H159.702Z" fill="black"/>
<path d="M164.157 55.1251C163.862 54.6217 163.678 54.3179 163.604 54.2139H164.621C164.662 54.4305 164.796 54.7364 164.958 55.0359L166.435 57.6326L167.747 55.0454C167.954 54.6472 168.046 54.4241 168.084 54.2171H169.05C168.977 54.3413 168.802 54.6472 168.539 55.1283L166.518 58.8783C166.324 59.2416 166.14 59.4168 165.841 59.5411C165.615 59.6335 165.339 59.6749 164.98 59.6749C164.64 59.6749 164.456 59.6494 164.077 59.5666L164.313 58.9707C164.649 59.095 164.824 59.1364 165.008 59.1364C165.377 59.1364 165.625 58.9962 165.8 58.7063L166.035 58.2985L164.157 55.1283V55.1251Z" fill="black"/>
<path d="M175.709 58.6843C175.566 58.4676 175.461 58.337 175.248 58.0693L174.162 56.8013L173.024 58.1458C172.859 58.3274 172.776 58.4517 172.624 58.6843H171.607C171.772 58.5186 172.049 58.2286 172.274 57.961L173.701 56.3679L172.379 54.8737C172.319 54.7972 172.236 54.7175 171.763 54.2109H172.767C172.868 54.4021 172.973 54.5423 173.167 54.7653L174.171 55.9346L175.166 54.7653C175.34 54.5582 175.474 54.3734 175.566 54.2109H176.551C176.316 54.4754 176.1 54.7016 175.925 54.8991L174.632 56.3679L175.985 57.8941C176.053 57.9663 176.299 58.2286 176.723 58.6811H175.709V58.6843Z" fill="black"/>
<path d="M179.558 56.4507C179.558 55.0138 180.623 54.1025 182.294 54.1025C183.965 54.1025 185.023 55.0138 185.023 56.4412C185.023 57.8685 183.956 58.7893 182.307 58.7893C180.657 58.7893 179.558 57.8845 179.558 56.4507ZM180.349 56.4348C180.349 57.5627 181.096 58.2509 182.297 58.2509C183.498 58.2509 184.235 57.5627 184.235 56.4443C184.235 55.326 183.498 54.6282 182.319 54.6282C181.14 54.6282 180.349 55.3164 180.349 56.4348Z" fill="black"/>
<path d="M189.57 58.6841C189.087 58.6841 188.862 58.6905 188.452 58.7096C188.502 58.3846 188.525 58.1361 188.525 57.7633V55.1411C188.525 54.7588 188.502 54.5262 188.452 54.1885C188.811 54.2044 189.087 54.214 189.57 54.214H191.006C192.185 54.214 192.789 54.5772 192.789 55.2941C192.789 55.858 192.439 56.1989 191.743 56.3232C192.112 56.3582 192.306 56.4156 192.531 56.5558C192.84 56.7533 192.992 57.0528 192.992 57.4351C192.992 58.2412 192.315 58.6873 191.095 58.6873H189.567L189.57 58.6841ZM190.984 56.0715C191.651 56.0715 192.02 55.8134 192.02 55.3578C192.02 54.934 191.683 54.7365 190.984 54.7365H189.281V56.0715H190.984ZM189.281 58.1616H191.035C191.826 58.1616 192.214 57.9067 192.214 57.381C192.214 56.8553 191.823 56.5781 191.016 56.5781H189.284V58.1616H189.281Z" fill="black"/>
<path d="M11.9832 10.4789H0.909912V1.13086H33.0019V10.4789H21.8714V40.7885H11.9832V10.4789Z" fill="#1D411A"/>
<path d="M45.8845 41.0719C41.3281 41.0719 37.7757 39.7401 35.2337 37.0765C32.6918 34.4129 31.4208 30.7234 31.4208 26.0016C31.4208 21.2797 32.6918 17.6093 35.2337 14.9839C37.7757 12.3586 41.3249 11.0459 45.8845 11.0459C48.1436 11.0459 50.1772 11.3868 51.9851 12.0655C53.7931 12.7441 55.3183 13.7382 56.5606 15.0381C57.803 16.3412 58.7531 17.9088 59.414 19.7408C60.0717 21.5728 60.4021 23.6598 60.4021 26.0016C60.4021 28.3434 60.0717 30.4494 59.414 32.3196C58.7531 34.1899 57.803 35.7766 56.5606 37.0797C55.3183 38.3828 53.7931 39.3737 51.9851 40.0523C50.1772 40.731 48.1436 41.0719 45.8845 41.0719ZM45.9417 31.7238C48.992 31.7238 50.5172 29.8345 50.5172 26.0589C50.5172 24.1313 50.1518 22.7071 49.4146 21.7831C48.6806 20.8592 47.5209 20.394 45.9385 20.394C44.3561 20.394 43.1424 20.8464 42.4084 21.7545C41.6744 22.6593 41.3058 24.0963 41.3058 26.0589C41.3058 28.0216 41.6744 29.4107 42.4084 30.3347C43.1424 31.2618 44.3212 31.7238 45.9385 31.7238H45.9417Z" fill="#1D411A"/>
<path d="M92.4362 40.7887H81.5312L73.0571 26.6264H72.7171V40.7887H62.8289V0H72.7171V25.4922H73.0571L81.5312 11.3299H92.4362L86.8439 20.9615C85.8652 22.6247 84.6324 23.8609 83.1422 24.6733C81.6552 25.4858 79.9489 25.8904 78.0297 25.8904V26.174C81.9475 26.174 84.8834 27.8372 86.8439 31.1603L92.4362 40.7919V40.7887Z" fill="#1D411A"/>
<path d="M124.357 40.7887H113.452L104.978 26.6264H104.638V40.7887H94.7501V0H104.638V25.4922H104.978L113.452 11.3299H124.357L118.765 20.9615C117.786 22.6247 116.55 23.8609 115.063 24.6733C113.573 25.4858 111.87 25.8904 109.951 25.8904V26.174C113.869 26.174 116.805 27.8372 118.765 31.1603L124.357 40.7919V40.7887Z" fill="#1D411A"/>
<path d="M137.461 40.7881C132.603 40.7881 128.825 39.485 126.134 36.8787C123.439 34.2725 122.095 30.6085 122.095 25.8866C122.095 21.1648 123.376 17.5581 125.937 14.9519C128.498 12.3456 132.114 11.0425 136.785 11.0425C138.856 11.0425 140.702 11.2974 142.323 11.8072C143.943 12.3169 145.316 13.0242 146.447 13.9323C147.578 14.8372 148.443 15.9141 149.046 17.163C149.647 18.4088 149.949 19.7502 149.949 21.1839C149.949 22.6177 149.637 24.1215 149.018 25.5744C148.395 27.0273 147.521 28.152 146.39 28.9453H132.549C133.417 30.6085 135.561 31.4368 138.99 31.4368H148.649V40.7849H137.461V40.7881ZM132.263 28.1551C133.506 27.9289 134.627 27.5976 135.625 27.1643C136.623 26.7309 137.48 26.2498 138.195 25.7209C138.91 25.1921 139.466 24.644 139.864 24.0769C140.258 23.5098 140.458 22.9649 140.458 22.4329C140.458 21.8657 140.213 21.3846 139.724 20.9896C139.234 20.5945 138.424 20.3937 137.296 20.3937C135.603 20.3937 134.29 20.8844 133.369 21.8657C132.447 22.8471 131.984 24.2649 131.984 26.116C131.984 26.8329 132.076 27.5147 132.266 28.1551H132.263Z" fill="#1D411A"/>
<path d="M151.7 0H161.588V17.6193H161.928C162.566 15.2042 163.64 13.5028 165.146 12.5215C166.653 11.5401 168.346 11.0495 170.23 11.0495C173.659 11.0495 176.255 12.3717 178.028 15.0162C179.798 17.6607 180.684 21.3247 180.684 26.0051C180.684 30.6855 179.798 34.4165 178.028 37.0801C176.258 39.7437 173.64 41.0755 170.173 41.0755C168.289 41.0755 166.614 40.5848 165.146 39.6035C163.678 38.6222 162.605 36.9208 161.928 34.5057H161.588V40.7951H151.7V0ZM165.823 33.6518C166.691 33.6518 167.434 33.5371 168.054 33.3109C168.677 33.0847 169.185 32.6864 169.579 32.1225C169.973 31.5554 170.275 30.7811 170.481 29.7998C170.688 28.8185 170.793 27.5727 170.793 26.0593C170.793 24.5459 170.697 23.3033 170.51 22.3188C170.319 21.3375 170.021 20.5632 169.604 19.9961C169.188 19.429 168.673 19.0339 168.051 18.8077C167.428 18.5815 166.684 18.4668 165.82 18.4668C162.995 18.4668 161.585 19.8846 161.585 22.7171V29.4015C161.585 32.234 162.999 33.6518 165.82 33.6518H165.823Z" fill="#1D411A"/>
<path d="M183.114 0H193.002V9.4596H183.114V0ZM183.114 11.3299H193.002V40.7887H183.114V11.3299Z" fill="#1D411A"/>
</svg>
